<?xml version="1.0" encoding="utf-8"?>
<!-- Generator: Adobe Illustrator 27.1.1, SVG Export Plug-In . SVG Version: 6.00 Build 0)  -->
<svg version="1.1" id="Layer_1" xmlns="http://www.w3.org/2000/svg" xmlns:xlink="http://www.w3.org/1999/xlink" x="0px" y="0px"
	 viewBox="0 0 170.2 43.2" style="enable-background:new 0 0 170.2 43.2;" xml:space="preserve">
<style type="text/css">
	.st0{fill:#EBEFEE;}
	.st1{fill:none;stroke:#EBEFEE;stroke-miterlimit:10;}
</style>
<g>
	<g>
		<polygon class="st0" points="18.5,2.7 19.3,0.9 0,0 0.7,3.9 6.8,3.3 6.2,34.8 8.6,35.3 12,3 		"/>
		<path class="st0" d="M28.7,29.2c-0.3,0-0.6,0-0.8,0.1c-3.4,0.2-7.6-0.8-8.7-8.7l14.1-1c-0.1-1.3-0.2-2-0.4-3
			C32,11.4,29.6,7,23.6,7.4c-0.2,0-0.5,0-0.7,0.1C17,8.3,14.8,14.6,16,21.8c1,5.7,4.5,12.2,13.1,10.9c2-0.3,4.1-0.9,5.2-1.6
			l-1.7-3.3C31.7,28.3,30.5,28.9,28.7,29.2z M23,10c2.9-0.4,5,2.2,5.8,6.8l-9.5,1.1C18.9,14.4,19.7,10.4,23,10z"/>
		<path class="st0" d="M53.7,12l-0.1,0c-1.1-2.7-3.1-4-5.2-4.3c-4.4-0.6-9.5,2.9-10.9,10.8c-1.1,6.2-0.3,13.9,6.7,14.9
			c3,0.4,5.6-1.1,6.8-2.8l0.2,0l-1.6,12.6l3-0.4L57.3,17l1.3-7.4l-4.8-2.2L53.7,12z M52.5,18.2l-0.7,6c-0.5,4.6-3.7,5.9-5.6,5.6
			c-4.9-0.7-5.2-7.3-4.5-11.4c0.8-4.7,3.2-8.2,6.8-7.7C51.4,11.2,53,14.5,52.5,18.2z"/>
		<path class="st0" d="M62.8,8.6c0-0.1,0-0.2-0.1-0.3c0-0.1-0.1-0.1-0.2-0.2c0.2-0.1,0.3-0.2,0.3-0.4c0-0.2-0.1-0.3-0.2-0.4
			c-0.1-0.1-0.3-0.1-0.5-0.1h-0.6V9h0.2V8.2h0.4c0.1,0,0.2,0,0.3,0.1c0.1,0.1,0.1,0.2,0.1,0.3c0,0.2,0,0.4,0,0.4h0.2v0
			c0,0,0-0.1,0-0.1C62.8,8.8,62.8,8.7,62.8,8.6z M62.5,7.9C62.5,8,62.4,8,62.2,8h-0.4V7.3h0.4c0.2,0,0.3,0,0.3,0.1
			c0.1,0.1,0.1,0.1,0.1,0.3C62.6,7.8,62.6,7.9,62.5,7.9z"/>
		<path class="st0" d="M63.6,7.2C63.4,7,63.2,6.8,63,6.6c-0.2-0.1-0.5-0.2-0.8-0.2c-0.3,0-0.6,0.1-0.8,0.2c-0.2,0.1-0.4,0.4-0.6,0.6
			c-0.1,0.3-0.2,0.5-0.2,0.8c0,0.3,0.1,0.6,0.2,0.8c0.1,0.3,0.3,0.5,0.6,0.6c0.2,0.2,0.5,0.2,0.8,0.2s0.6-0.1,0.8-0.2
			c0.2-0.2,0.4-0.4,0.6-0.6c0.1-0.3,0.2-0.5,0.2-0.8C63.8,7.8,63.7,7.5,63.6,7.2z M63.4,8.8c-0.1,0.2-0.3,0.4-0.5,0.5
			c-0.2,0.1-0.5,0.2-0.7,0.2c-0.3,0-0.5-0.1-0.7-0.2c-0.2-0.1-0.4-0.3-0.5-0.5c-0.1-0.2-0.2-0.5-0.2-0.8c0-0.3,0.1-0.5,0.2-0.7
			c0.1-0.2,0.3-0.4,0.5-0.5c0.2-0.1,0.5-0.2,0.7-0.2c0.3,0,0.5,0.1,0.7,0.2c0.2,0.1,0.4,0.3,0.5,0.5c0.1,0.2,0.2,0.5,0.2,0.7
			C63.6,8.3,63.5,8.6,63.4,8.8z"/>
	</g>
	<g>
		<path class="st0" d="M109,26.3c-0.1-0.2-0.2-0.6-0.2-1v-7.1h1.7v-1.5h-1.7v-2.8H107v2.8h-1.7v1.5h1.7v7.1c0,1,0.2,1.7,0.6,2.2
			c0.4,0.5,0.9,0.8,1.7,0.8c0.4,0,0.9-0.1,1.3-0.2l0-1.6c-0.3,0.1-0.5,0.1-0.7,0.1C109.4,26.6,109.2,26.5,109,26.3z"/>
		<path class="st0" d="M116.1,16.5c-1.3,0-2.4,0.5-3.1,1.4c-0.7,1-1.1,2.3-1.1,4v1.4c0,1.6,0.4,2.9,1.2,3.7c0.8,0.8,1.8,1.3,3.3,1.3
			c1.7,0,2.9-0.6,3.7-1.7l-1-1.2c-0.4,0.4-0.8,0.8-1.2,1c-0.4,0.2-0.9,0.3-1.4,0.3c-0.9,0-1.5-0.3-2-0.8c-0.5-0.6-0.7-1.4-0.7-2.7
			v-0.3h6.4v-1.2c0-1.8-0.4-3.1-1-4C118.4,16.9,117.4,16.5,116.1,16.5z M118.2,21.3h-4.5c0-1.1,0.3-1.9,0.6-2.5
			c0.4-0.5,0.9-0.8,1.7-0.8c0.7,0,1.2,0.2,1.6,0.7c0.3,0.5,0.5,1.2,0.6,2.3V21.3z"/>
		<path class="st0" d="M127.8,17.8c-0.6-0.9-1.5-1.3-2.6-1.3c-1.3,0-2.2,0.5-2.9,1.4c-0.6,0.9-1,2.2-1,4V23c0,1.7,0.4,3,1,3.9
			c0.7,0.9,1.6,1.3,2.8,1.3c1.1,0,1.9-0.4,2.5-1.2v5.4h1.9V16.7h-1.7L127.8,17.8z M127.7,25.4c-0.5,0.8-1.2,1.3-2,1.3
			c-0.9,0-1.5-0.3-1.9-0.9c-0.4-0.6-0.6-1.6-0.6-2.8v-1.1c0-1.2,0.2-2.2,0.6-2.8c0.4-0.6,1-0.9,1.9-0.9c0.8,0,1.5,0.4,2,1.3V25.4z"
			/>
		<path class="st0" d="M133.3,25.9c-0.4,0-0.7,0.1-0.9,0.3c-0.2,0.2-0.3,0.5-0.3,0.8c0,0.3,0.1,0.6,0.3,0.8c0.2,0.2,0.5,0.3,0.9,0.3
			s0.7-0.1,0.9-0.3c0.2-0.2,0.3-0.5,0.3-0.8c0-0.3-0.1-0.6-0.3-0.8C134,26,133.7,25.9,133.3,25.9z"/>
		<path class="st0" d="M139.2,18.9c0.4-0.5,1-0.8,1.8-0.8c0.6,0,1.1,0.2,1.5,0.6c0.4,0.4,0.6,1.1,0.6,1.9h1.8c0-1.3-0.4-2.3-1.1-3
			c-0.7-0.7-1.6-1.1-2.8-1.1c-1.4,0-2.5,0.4-3.2,1.3c-0.7,0.9-1.1,2.2-1.1,3.9V23c0,1.8,0.4,3.1,1.1,4c0.7,0.9,1.8,1.3,3.2,1.3
			c1.1,0,2-0.4,2.7-1.1c0.7-0.7,1.1-1.6,1.2-2.7h-1.8c0,0.7-0.2,1.3-0.6,1.6c-0.4,0.4-0.9,0.6-1.5,0.6c-0.9,0-1.5-0.3-1.9-0.8
			c-0.4-0.6-0.6-1.5-0.6-2.8v-1.5C138.6,20.3,138.8,19.4,139.2,18.9z"/>
		<path class="st0" d="M150.5,16.5c-1.3,0-2.4,0.5-3.2,1.4c-0.8,1-1.2,2.3-1.2,3.9v1.2c0,1.6,0.4,2.9,1.2,3.8
			c0.8,0.9,1.9,1.4,3.2,1.4c1.3,0,2.4-0.5,3.2-1.4c0.8-1,1.2-2.3,1.2-3.9v-1.2c0-1.6-0.4-2.9-1.2-3.8
			C152.9,16.9,151.9,16.5,150.5,16.5z M153.1,23.1c0,2.4-0.9,3.6-2.5,3.6c-0.8,0-1.4-0.3-1.9-1c-0.5-0.7-0.7-1.6-0.7-2.8v-1.1
			c0-1.2,0.2-2.1,0.7-2.8c0.5-0.7,1.1-1,1.8-1c0.8,0,1.4,0.3,1.9,1c0.5,0.7,0.7,1.6,0.7,2.8V23.1z"/>
		<path class="st0" d="M167,16.5c-1.3,0-2.3,0.6-3,1.7c-0.5-1.1-1.4-1.7-2.7-1.7c-1.1,0-2.1,0.4-2.7,1.3l0-1.1h-1.7v11.4h1.9v-8.5
			c0.4-0.9,1-1.4,2-1.4c1.3,0,1.9,0.8,1.9,2.4v7.6h1.9v-7.6c0.1-0.7,0.3-1.2,0.6-1.7c0.4-0.4,0.8-0.7,1.4-0.7c0.7,0,1.2,0.2,1.5,0.6
			c0.3,0.4,0.4,1,0.4,1.8v7.5h1.9v-7.7C170.2,17.8,169.1,16.5,167,16.5z"/>
	</g>
	<line class="st1" x1="84.3" y1="0" x2="84.3" y2="43.2"/>
</g>
</svg>
