<?xml version="1.0" encoding="utf-8"?>
<!-- Generator: Adobe Illustrator 27.5.0, SVG Export Plug-In . SVG Version: 6.00 Build 0)  -->
<svg version="1.1" id="Layer_1" xmlns="http://www.w3.org/2000/svg" xmlns:xlink="http://www.w3.org/1999/xlink" x="0px" y="0px"
	 viewBox="0 0 119.3 114.4" style="enable-background:new 0 0 119.3 114.4;" xml:space="preserve">
<g>
	<path d="M111.8,54.3H79c0,0,0-0.2,0-0.2v-8c0-4.9-2.5-9.5-6.7-12.1c7.8-6.6,8.8-18.2,2.3-26c-6.6-7.8-18.2-8.8-26-2.3
		s-8.8,18.2-2.3,26c0.7,0.8,1.5,1.6,2.3,2.3c-4.1,2.6-6.7,7.2-6.7,12.1V54c0,0,0,0.2,0,0.2H9.3c-1.8,0-3.3,1.5-3.3,3.3
		s1.5,3.3,3.3,3.3h4.5v48.8c0,1.8,1.5,3.3,3.3,3.3c1.8,0,3.3-1.5,3.3-3.3V87.5h80.3v22.1c0,1.8,1.5,3.3,3.3,3.3s3.3-1.5,3.3-3.3V61
		h4.5c1.8,0,3.3-1.5,3.3-3.3C115.2,55.8,113.7,54.3,111.8,54.3C111.8,54.3,111.8,54.3,111.8,54.3z M60.6,8.2
		c6.5,0,11.8,5.3,11.8,11.8s-5.3,11.8-11.8,11.8s-11.8-5.3-11.8-11.8C48.8,13.4,54.1,8.2,60.6,8.2z M48.8,54.1v-8
		c0-4.3,3.5-7.8,7.8-7.8h7.9c4.3,0,7.8,3.5,7.8,7.8V54c0,0,0,0.2,0,0.2H48.8C48.8,54.2,48.8,54.1,48.8,54.1z M100.7,80.9H20.4V61
		h80.3V80.9z"/>
</g>
</svg>
