<?xml version="1.0" encoding="utf-8"?>
<!-- Generator: Adobe Illustrator 27.5.0, SVG Export Plug-In . SVG Version: 6.00 Build 0)  -->
<svg version="1.1" id="Layer_1" xmlns="http://www.w3.org/2000/svg" xmlns:xlink="http://www.w3.org/1999/xlink" x="0px" y="0px"
	 viewBox="0 0 119.3 114.4" style="enable-background:new 0 0 119.3 114.4;" xml:space="preserve">
<g>
	<path d="M21.4,33.9c6.5,0,11.7-5.2,11.7-11.7c0-6.5-5.2-11.7-11.7-11.7c-6.5,0-11.7,5.2-11.7,11.7C9.7,28.7,14.9,33.9,21.4,33.9z
		 M21.4,16.5c3.1,0,5.7,2.6,5.7,5.7s-2.6,5.7-5.7,5.7c-3.1,0-5.7-2.6-5.7-5.7C15.7,19.1,18.2,16.5,21.4,16.5z M116.3-0.2H42.8
		c-1.7,0-3,1.3-3,3v32.7H14c-7.2,0-13,5.8-13,13v20c0,4.2,3,7.9,7.1,8.8v31.1H2.8c-1.7,0-3,1.3-3,3s1.3,3,3,3h94.1c1.7,0,3-1.3,3-3
		s-1.3-3-3-3H39.2V51.6h0.6v5.7c0,1.7,1.3,3,3,3h73.5c1.7,0,3-1.3,3-3V2.8C119.3,1.2,117.9-0.2,116.3-0.2z M36.2,45.6
		c-1.7,0-3,1.3-3,3l0,0v59.7h-6.8v-31c0-1.7-1.3-3-3-3s-3,1.3-3,3v31h-6.3V74.5c0-1.7-1.3-3-3-3H10c-1.7,0-3-1.3-3-3v-20
		c0-3.9,3.1-7,7-7h45.3c-0.4,2.4-2.5,4.1-4.9,4.1H42.8c0,0-0.1,0-0.1,0H36.2z M113.3,54.3H45.8v-2.7h8.6c6.1,0,11-5,11-11.1
		c0,0,0,0,0,0c0-2.8-2.2-5-5-5H45.8V5.8h67.5V54.3z"/>
</g>
</svg>
