<?xml version="1.0" encoding="utf-8"?>
<!-- Generator: Adobe Illustrator 25.2.1, SVG Export Plug-In . SVG Version: 6.00 Build 0)  -->
<svg version="1.1" id="Layer_1" xmlns="http://www.w3.org/2000/svg" xmlns:xlink="http://www.w3.org/1999/xlink" x="0px" y="0px"
	 viewBox="0 0 60 60" style="enable-background:new 0 0 60 60;" xml:space="preserve">
<g>
	<path d="M48.395,44.655L39.52,30.91c-0.587-0.909-1.746-1.519-2.892-1.519l-0.12,0.003c-0.268,0.011-0.531,0.055-0.782,0.132
		l-0.219,0.067c-0.746,0.229-1.313,0.743-1.558,1.411c-0.13,0.355-0.163,0.747-0.096,1.132l0.031,0.177l-0.147,0.105
		c-0.368,0.263-0.721,0.529-1.051,0.792c-0.599,0.476-1.179,0.984-1.724,1.508c-1.086,1.045-2.061,2.185-2.898,3.389
		c-0.825,1.186-1.527,2.448-2.087,3.749c-0.552,1.287-0.983,2.663-1.272,4.062l-0.075,0.241l-0.354,0.028l-0.28-0.064
		c-0.173-0.063-0.34-0.174-0.436-0.29l-0.105-0.127l4.72-12.935l0.387,0.005c1.342-0.055,2.506-0.906,2.967-2.168
		c0.334-0.914,0.246-1.925-0.241-2.776l-0.169-0.295l0.32-0.116c0.918-0.333,1.637-1.052,1.972-1.972
		c0.333-0.914,0.245-1.925-0.241-2.775l-0.169-0.296l0.32-0.116c0.917-0.333,1.636-1.052,1.972-1.972
		c0.302-0.828,0.264-1.725-0.108-2.526c-0.211-0.453-0.516-0.844-0.905-1.162l-0.158-0.129l2.36-6.47
		c0.012-0.038,0.083-0.295,0.089-0.32l0.016-0.067c0.055-0.235,0.092-0.453,0.112-0.67l0.007-0.082
		c0.026-0.342,0.021-0.675-0.014-0.99c-0.028-0.26-0.065-0.615-0.205-1.005l-0.071-0.223c-0.039-0.117-0.082-0.226-0.135-0.36
		l-0.032-0.074c-0.839-1.975-2.735-3.662-5.071-4.515c-1.236-0.451-2.458-0.654-3.628-0.602c-0.617,0.025-1.234,0.121-1.833,0.284
		c-1.928,0.522-3.423,1.795-3.999,3.404l-0.097,0.271l-2.046-0.747c-0.079-0.029-0.166-0.025-0.243,0.011
		c-0.076,0.035-0.136,0.1-0.164,0.179l-0.449,1.232c-0.06,0.165,0.025,0.347,0.19,0.407L21.2,6.972
		c0.105,0.038,0.219,0.017,0.303-0.047l0.344,0.225c0.065,0.042,0.129,0.074,0.194,0.098l1.994,0.728
		c0.43,0.157,0.873,0.237,1.324,0.237c0,0,0,0,0.001,0l0.137-0.003c1.078-0.044,1.974-0.564,2.397-1.387
		c0.014-0.026,0.094-0.19,0.165-0.334l0.111-0.04c0.047-0.017,0.093-0.028,0.151-0.037c0.03-0.005,0.061-0.008,0.139-0.01
		c0.292,0,0.633,0.126,0.85,0.314c0.082,0.071,0.149,0.153,0.189,0.231l0.066,0.128L19.08,28.597l-1.63-0.595l0.352-0.963
		c0.088-0.244,0.077-0.507-0.033-0.743c-0.11-0.236-0.305-0.415-0.552-0.506c-0.139-0.05-0.267-0.069-0.369-0.057
		c-0.398,0.016-0.741,0.267-0.876,0.639l-1.284,3.518c-0.089,0.244-0.078,0.508,0.032,0.743c0.109,0.236,0.305,0.415,0.552,0.506
		c0.085,0.03,0.168,0.038,0.234,0.045l0.071,0.008c0.021,0.003,0.044,0.005,0.065,0.004c0.398-0.016,0.741-0.267,0.875-0.639
		l0.266-0.727l1.44,0.526l-6.219,12.766c-0.903,1.852-1.057,4.021-0.435,6.107c0.581,1.952,1.799,3.825,3.524,5.416
		c1.732,1.599,3.884,2.824,6.224,3.542c1.544,0.474,3.203,0.725,4.801,0.725c0.211,0,0.422-0.004,0.63-0.013
		c1.31-0.054,2.545-0.274,3.673-0.652c2.781-0.933,4.909-2.837,5.839-5.224c0.122-0.315,0.224-0.638,0.303-0.957l0.108-0.428
		c0.63-2.526,3.21-4.271,6.574-4.444l0.132-0.007l0.09,0.094c0.628,0.659,1.597,1.068,2.537,1.068l0.119-0.003
		c0.268-0.011,0.531-0.055,0.782-0.132l0.219-0.068c0.746-0.229,1.314-0.743,1.557-1.411C48.921,46.069,48.818,45.31,48.395,44.655z
		 M46.066,46.4l-0.068,0.002c-0.486,0-1.025-0.268-1.254-0.624l-8.729-13.531c-0.012-0.019-0.026-0.036-0.042-0.052l-0.109-0.109
		l-0.014-0.058c-0.006-0.024-0.014-0.047-0.025-0.069c-0.016-0.032-0.03-0.065-0.041-0.099l-0.065-0.207l0.182-0.118
		c0.048-0.031,0.107-0.058,0.178-0.079l0.218-0.067c0.086-0.026,0.18-0.042,0.265-0.046l0.068-0.002
		c0.485,0,1.024,0.269,1.254,0.626l8.875,13.745c0.038,0.058,0.065,0.115,0.083,0.172l0.065,0.208l-0.183,0.117
		c-0.048,0.03-0.108,0.057-0.172,0.077l-0.223,0.068C46.245,46.381,46.152,46.397,46.066,46.4z M28.498,30.83l-0.07,0.002
		c-0.157,0-0.313-0.028-0.463-0.083c-0.341-0.124-0.613-0.374-0.766-0.702c-0.153-0.329-0.168-0.697-0.044-1.037
		c0.188-0.516,0.664-0.866,1.213-0.891l0.062-0.001c0.157,0,0.313,0.028,0.464,0.083c0.702,0.256,1.065,1.036,0.809,1.739
		C29.513,30.457,29.038,30.807,28.498,30.83z M30.312,25.673c-0.157,0-0.314-0.028-0.465-0.083c-0.34-0.124-0.611-0.374-0.764-0.703
		c-0.153-0.329-0.169-0.697-0.045-1.036c0.188-0.516,0.664-0.866,1.212-0.891l0.063-0.002c0.158,0,0.314,0.028,0.464,0.083
		c0.34,0.124,0.611,0.373,0.765,0.703c0.153,0.328,0.169,0.696,0.045,1.036c-0.19,0.518-0.665,0.868-1.206,0.891L30.312,25.673z
		 M32.194,20.514c-0.158,0-0.315-0.028-0.465-0.083c-0.702-0.256-1.066-1.036-0.81-1.739c0.188-0.516,0.664-0.866,1.213-0.891
		l0.062-0.001c0.158,0,0.314,0.028,0.464,0.083c0.34,0.124,0.612,0.373,0.765,0.702c0.153,0.328,0.169,0.696,0.045,1.037
		c-0.189,0.518-0.665,0.868-1.205,0.891L32.194,20.514z M26.795,5.021c-0.326,0.274-0.474,0.581-0.591,0.825l-0.043,0.087
		c-0.124,0.241-0.542,0.32-0.74,0.328l-0.083,0.002c-0.212,0-0.426-0.039-0.636-0.117l-1.205-0.44l0.064-0.293
		c0.367-0.997,1.365-1.803,2.667-2.157c0.467-0.126,0.941-0.2,1.412-0.219c0.936-0.033,1.871,0.123,2.872,0.489
		c1.848,0.673,3.326,1.968,3.952,3.458l0.025,0.064c0.03,0.075,0.059,0.15,0.081,0.217c0,0,0.074,0.235,0.09,0.278
		c0.05,0.13,0.074,0.325,0.098,0.548c0.021,0.194,0.024,0.389,0.01,0.592l-0.008,0.096C34.75,8.9,34.727,9.031,34.691,9.193
		l-2.335,6.452l-0.089,0.203l-0.209,0.009c-0.915,0.038-1.78,0.458-2.373,1.151l-0.129,0.151l-0.625-0.228
		c-0.116-0.042-0.252-0.053-0.372-0.058c-0.395,0.016-0.739,0.267-0.875,0.639c-0.184,0.504,0.077,1.065,0.581,1.248l0.628,0.229
		l0.002,0.199c0.006,0.565,0.157,1.122,0.437,1.612l0.169,0.295l-0.32,0.116c-0.586,0.213-1.098,0.587-1.48,1.08l-0.128,0.166
		l-0.577-0.211c-0.112-0.041-0.218-0.066-0.375-0.059c-0.395,0.016-0.739,0.267-0.876,0.64c-0.089,0.244-0.078,0.508,0.032,0.743
		c0.11,0.236,0.305,0.416,0.549,0.504l0.679,0.248l0.011,0.188c0.031,0.507,0.181,1.008,0.434,1.448l0.169,0.296l-0.32,0.116
		c-0.639,0.232-1.183,0.65-1.573,1.209l-0.126,0.181l-0.545-0.199c-0.112-0.041-0.215-0.074-0.374-0.059
		c-0.395,0.016-0.739,0.267-0.875,0.64c-0.089,0.243-0.077,0.507,0.033,0.745c0.111,0.236,0.306,0.414,0.548,0.502l0.742,0.271
		l0.02,0.176c0.041,0.364,0.137,0.711,0.287,1.032c0.19,0.406,0.454,0.764,0.786,1.062l0.144,0.129l-4.735,12.98l-0.036,0.118
		c-0.017,0.062-0.03,0.122-0.04,0.184c-0.014,0.076-0.022,0.154-0.026,0.258l-0.001,0.075c-0.001,0.033,0.011,0.203,0.017,0.247
		l0.025,0.149c0.016,0.078,0.038,0.159,0.076,0.268l0.122,0.285c0.025,0.048,0.051,0.094,0.085,0.151
		c0.328,0.536,0.873,0.96,1.536,1.194c0.054,0.019,0.109,0.037,0.177,0.056l0.141,0.035c0.049,0.011,0.099,0.021,0.214,0.04
		l0.351,0.031l0.382-0.015c0.084-0.008,0.161-0.02,0.238-0.037c0.878-0.18,1.525-0.797,1.689-1.61
		c0.273-1.351,0.673-2.644,1.19-3.846c0.507-1.18,1.145-2.326,1.896-3.407c0.762-1.097,1.653-2.138,2.648-3.095
		c0.503-0.484,1.037-0.951,1.587-1.389c0.223-0.177,0.454-0.352,0.691-0.527l0.245-0.181l7.305,11.312l-0.427,0.074
		c-3.546,0.618-6.204,2.824-6.935,5.757l-0.107,0.429c-0.061,0.246-0.138,0.489-0.229,0.723c-0.719,1.846-2.412,3.334-4.643,4.083
		c-0.961,0.323-2.017,0.51-3.138,0.556c-1.564,0.065-3.216-0.153-4.774-0.631c-2.035-0.625-3.979-1.731-5.475-3.112
		c-1.445-1.333-2.503-2.946-2.979-4.541c-0.489-1.642-0.378-3.266,0.32-4.699L31.291,7.976c0.432-0.89,0.149-1.988-0.707-2.731
		c-0.569-0.495-1.363-0.79-2.126-0.79h-0.003c-0.002,0-0.005,0-0.007,0l-0.114,0.003c-0.106,0.004-0.212,0.014-0.317,0.03
		C27.551,4.56,27.129,4.744,26.795,5.021z"/>
	<path d="M21.679,33.609c-0.001,0-0.001,0-0.002,0c-0.257,0.011-0.503,0.125-0.675,0.313c-0.172,0.186-0.267,0.448-0.256,0.698
		c0.01,0.252,0.127,0.506,0.313,0.677c0.177,0.163,0.418,0.257,0.66,0.257c0.004,0,0.034-0.001,0.038-0.001
		c0.256-0.01,0.503-0.123,0.677-0.312c0.174-0.19,0.267-0.445,0.257-0.698c-0.01-0.254-0.127-0.508-0.313-0.678
		C22.197,33.698,21.96,33.609,21.679,33.609z"/>
	<path d="M20.312,37.359c0,0-0.001,0-0.001,0c-0.257,0.01-0.505,0.125-0.677,0.315c-0.172,0.186-0.267,0.448-0.256,0.698
		c0.011,0.257,0.124,0.503,0.313,0.677c0.177,0.163,0.417,0.256,0.659,0.256c0.004,0,0.035-0.001,0.039-0.001
		c0.253-0.01,0.505-0.126,0.675-0.31c0.175-0.19,0.269-0.446,0.258-0.702c-0.01-0.252-0.127-0.504-0.312-0.675
		C20.827,37.449,20.59,37.359,20.312,37.359z"/>
	<path d="M18.941,41.112c-0.258,0.011-0.505,0.125-0.676,0.311c-0.174,0.188-0.267,0.443-0.257,0.699
		c0.011,0.257,0.125,0.505,0.313,0.677c0.176,0.164,0.417,0.258,0.66,0.258c0.004,0,0.034-0.001,0.038-0.001
		c0.252-0.01,0.506-0.128,0.677-0.315c0.173-0.189,0.267-0.443,0.256-0.698c-0.01-0.255-0.124-0.501-0.313-0.677
		C19.46,41.203,19.202,41.103,18.941,41.112z"/>
</g>
</svg>
