<?xml version="1.0" encoding="utf-8"?>
<!-- Generator: Adobe Illustrator 25.2.1, SVG Export Plug-In . SVG Version: 6.00 Build 0)  -->
<svg version="1.1" id="Layer_1" xmlns="http://www.w3.org/2000/svg" xmlns:xlink="http://www.w3.org/1999/xlink" x="0px" y="0px"
	 viewBox="0 0 60 60" style="enable-background:new 0 0 60 60;" xml:space="preserve">
<path d="M55.739,22.987h-0.702c-0.629,0-1.222,0.246-1.667,0.693c-0.433,0.434-0.679,1.015-0.675,1.566l-0.013,0.121
	c-0.48-2.939-1.541-5.78-3.099-8.318c0.114-0.295,0.183-0.612,0.183-0.946v-5.023c0-2.178-1.458-2.347-1.904-2.347h-0.702
	c-0.629,0-1.221,0.246-1.667,0.693c-0.433,0.434-0.679,1.015-0.675,1.566l-0.053,0.471c-2.713-2.281-5.91-3.902-9.341-4.738V3.416
	c0-2.178-1.458-2.347-1.904-2.347h-0.702c-0.629,0-1.221,0.246-1.668,0.693c-0.433,0.434-0.679,1.015-0.675,1.566l-0.105,0.94
	h-3.233c-1.386,0-2.514,1.081-2.613,2.443c-2.092,0.507-4.093,1.303-5.966,2.374c-0.418-0.31-0.89-0.352-1.112-0.352h-0.702
	c-0.629,0-1.221,0.246-1.667,0.693c-0.433,0.434-0.679,1.015-0.675,1.566l-0.105,0.94h-3.233c-1.451,0-2.632,1.181-2.632,2.632v1.54
	c0,0.919,0.476,1.728,1.192,2.198c-1.31,2.464-2.144,5.109-2.491,7.886H5.279c-1.451,0-2.632,1.181-2.632,2.632v1.539
	c0,1.451,1.181,2.632,2.632,2.632H7.29c0.537,3.124,1.714,6.118,3.464,8.767c-1.303,0.156-2.321,1.256-2.321,2.6v1.54
	c0,1.451,1.181,2.632,2.632,2.632h5.654c0.263,0,0.512-0.051,0.752-0.123c1.109,0.719,2.266,1.342,3.468,1.855l-3.013,7.357h-5.159
	c-0.44,0-0.797,0.358-0.797,0.797s0.358,0.797,0.797,0.797h35.367c0.44,0,0.797-0.358,0.797-0.797s-0.358-0.797-0.797-0.797h-6.163
	l-3.01-7.351c1.143-0.486,2.248-1.067,3.307-1.738h4.865c1.451,0,2.632-1.181,2.632-2.632v-5.023c0-0.021-0.002-0.039-0.003-0.059
	c1.441-2.425,2.407-5.053,2.88-7.825h2.368c1.451,0,2.632-1.181,2.632-2.632v-5.023C57.643,23.156,56.185,22.987,55.739,22.987z
	 M12.004,43.319c0.002,0,0.004,0.002,0.007,0.002c0.002,0,0.003-0.002,0.005-0.002h3.471c0.136,0,0.249-0.102,0.264-0.237
	l0.242-2.21c0-0.415,0.337-0.752,0.752-0.752h0.702c0.123,0,0.309,0,0.309,0.752v5.023c0,0.572-0.465,1.037-1.037,1.037h-5.654
	c-0.572,0-1.037-0.465-1.037-1.037v-1.54c0-0.572,0.465-1.037,1.037-1.037H12.004z M5.279,27.781h4.422
	c0.136,0,0.249-0.102,0.264-0.237l0.242-2.21c0-0.415,0.337-0.752,0.752-0.752h0.702c0.123,0,0.309,0,0.309,0.752v5.023
	c0,0.572-0.465,1.037-1.037,1.037H5.279c-0.572,0-1.037-0.465-1.037-1.037v-1.539C4.242,28.246,4.708,27.781,5.279,27.781z
	 M11.065,13.525h4.422c0.136,0,0.249-0.102,0.264-0.237l0.242-2.21c0-0.415,0.337-0.752,0.752-0.752h0.702
	c0.123,0,0.309,0,0.309,0.752v5.023c0,0.572-0.465,1.037-1.037,1.037h-5.654c-0.572,0-1.037-0.465-1.037-1.037v-1.54
	C10.028,13.99,10.493,13.525,11.065,13.525z M27.137,5.862h4.422c0.136,0,0.249-0.102,0.264-0.237l0.242-2.21
	c0-0.415,0.337-0.752,0.753-0.752h0.702c0.123,0,0.309,0,0.309,0.752v5.023c0,0.572-0.465,1.037-1.037,1.037h-5.654
	c-0.572,0-1.037-0.465-1.037-1.037v-1.54C26.1,6.327,26.565,5.862,27.137,5.862z M54.043,27.544l0.242-2.21
	c0-0.415,0.337-0.752,0.752-0.752h0.702c0.123,0,0.31,0,0.31,0.752v5.023c0,0.572-0.465,1.037-1.037,1.037h-5.654
	c-0.572,0-1.037-0.465-1.037-1.037v-1.539c0-0.572,0.465-1.037,1.037-1.037h4.422C53.914,27.781,54.028,27.679,54.043,27.544z
	 M48.17,40.873v5.023c0,0.572-0.465,1.037-1.037,1.037h-4.995c-0.087-0.068-0.209-0.079-0.306-0.017l-0.026,0.017h-0.327
	c-0.572,0-1.037-0.465-1.037-1.037v-1.54c0-0.572,0.465-1.037,1.037-1.037h1.66c0.037,0.019,0.077,0.032,0.12,0.032
	s0.082-0.013,0.12-0.032h2.523c0.136,0,0.249-0.102,0.264-0.237l0.242-2.21c0-0.415,0.337-0.752,0.752-0.752h0.702
	c0.092,0,0.218,0.001,0.276,0.31c-0.034,0.059-0.046,0.129-0.029,0.196c0.01,0.04,0.031,0.076,0.058,0.107
	C48.167,40.779,48.17,40.82,48.17,40.873z M24.505,8.357v0.081c0,1.451,1.181,2.632,2.632,2.632h2.03v8.554
	c-1.943,0.164-3.809,0.933-5.302,2.188l-4.713-4.713c0.127-0.308,0.199-0.644,0.199-0.998v-5.023c0-0.216-0.018-0.407-0.044-0.585
	C20.943,9.552,22.684,8.835,24.505,8.357z M35.56,34.638c-1.493,1.501-3.48,2.328-5.596,2.328c-2.116,0-4.103-0.827-5.596-2.328
	c-1.479-1.488-2.294-3.476-2.294-5.597c0.009-2.103,0.836-4.077,2.327-5.561c1.489-1.48,3.464-2.295,5.562-2.295
	s4.074,0.815,5.563,2.295c1.492,1.484,2.318,3.459,2.327,5.562l0,0.046C37.851,31.182,37.037,33.153,35.56,34.638z M26.1,50.418
	c0-0.572,0.465-1.037,1.037-1.037h4.422c0.136,0,0.249-0.102,0.264-0.237l0.242-2.21c0-0.415,0.337-0.752,0.753-0.752h0.702
	c0.123,0,0.309,0,0.309,0.752v5.023c0,0.572-0.465,1.037-1.037,1.037h-5.654c-0.572,0-1.037-0.465-1.037-1.037V50.418z
	 M29.166,38.528v9.258h-2.03c-1.242,0-2.28,0.868-2.555,2.028c-0.523-0.135-1.037-0.293-1.545-0.466l4.544-11.096
	C28.099,38.388,28.629,38.483,29.166,38.528z M35.423,49.797v-2.862c0-2.178-1.458-2.347-1.904-2.347h-0.702
	c-0.629,0-1.221,0.246-1.668,0.693c-0.159,0.159-0.283,0.342-0.388,0.532v-7.284c0.528-0.044,1.05-0.137,1.56-0.268l4.545,11.098
	C36.39,49.519,35.911,49.669,35.423,49.797z M19.351,45.896v-5.023c0-0.031-0.003-0.058-0.004-0.089l4.478-4.478
	c0.68,0.578,1.441,1.049,2.25,1.413l-4.53,11.063c-0.921-0.394-1.813-0.854-2.676-1.378C19.17,46.976,19.351,46.458,19.351,45.896z
	 M42.788,11.93h-1.309c-1.451,0-2.632,1.181-2.632,2.632v1.54c0,0.801,0.367,1.511,0.934,1.994l-3.717,3.717
	c-1.493-1.255-3.359-2.025-5.302-2.188V11.07h2.03c1.451,0,2.632-1.181,2.632-2.632V8.365C38.083,9.066,40.583,10.278,42.788,11.93z
	 M10.934,32.989c1.451,0,2.632-1.181,2.632-2.632v-0.52h6.944c0.157,1.957,0.928,3.835,2.191,5.339l-3.912,3.912
	c-0.461-0.499-1.077-0.562-1.342-0.562h-0.702c-0.629,0-1.221,0.246-1.667,0.693c-0.433,0.434-0.679,1.015-0.675,1.566l-0.105,0.94
	h-1.614c-1.9-2.592-3.192-5.587-3.775-8.735H10.934z M22.431,50.827c0.679,0.235,1.371,0.438,2.074,0.609v0.522
	c0,1.451,1.181,2.632,2.632,2.632h5.654c1.451,0,2.632-1.181,2.632-2.632v-0.521c0.694-0.169,1.377-0.369,2.049-0.6l2.776,6.78
	H19.651L22.431,50.827z M33.829,37.731c0.818-0.365,1.587-0.84,2.275-1.424l5.418,5.418h-0.042c-1.451,0-2.632,1.181-2.632,2.632
	v1.54c0,0.881,0.439,1.658,1.106,2.136c-0.522,0.276-1.055,0.527-1.596,0.757L33.829,37.731z M46.793,28.242h-7.381
	c-0.171-1.948-0.952-3.814-2.218-5.305l4.211-4.211c0.025,0.001,0.048,0.007,0.073,0.007h5.654c0.501,0,0.965-0.148,1.365-0.393
	c1.396,2.408,2.312,5.088,2.686,7.846h-1.827C48.104,26.186,47.057,27.068,46.793,28.242z M11.208,18.733h5.511
	c0.515,0,0.993-0.154,1.4-0.412l4.615,4.615c-1.266,1.491-2.047,3.357-2.218,5.305h-6.95v-2.908c0-2.178-1.458-2.347-1.904-2.347
	h-0.702c-0.629,0-1.221,0.246-1.667,0.693c-0.034,0.034-0.06,0.075-0.092,0.111C9.646,22.031,10.318,20.34,11.208,18.733z
	 M48.17,16.101c0,0.572-0.465,1.037-1.037,1.037h-5.654c-0.572,0-1.037-0.465-1.037-1.037v-1.54c0-0.572,0.465-1.037,1.037-1.037
	h3.238c0.04,0.023,0.084,0.04,0.132,0.04c0.004,0,0.007,0,0.011,0c0.044-0.002,0.085-0.018,0.122-0.04h0.92
	c0.136,0,0.249-0.102,0.264-0.237l0.242-2.21c0-0.415,0.337-0.752,0.752-0.752h0.702c0.123,0,0.309,0,0.309,0.752V16.101z
	 M49.001,38.9c-0.425-0.329-0.913-0.374-1.14-0.374h-0.702c-0.629,0-1.221,0.246-1.667,0.693c-0.433,0.434-0.679,1.015-0.675,1.566
	l-0.105,0.94h-0.935l-6.548-6.549c1.257-1.498,2.027-3.376,2.188-5.339h7.309v0.52c0,1.451,1.181,2.632,2.632,2.632h1.67
	C50.646,35.057,49.966,37.036,49.001,38.9z"/>
</svg>
