<?xml version="1.0" encoding="utf-8"?>
<!-- Generator: Adobe Illustrator 25.2.1, SVG Export Plug-In . SVG Version: 6.00 Build 0)  -->
<svg version="1.1" id="Layer_1" xmlns="http://www.w3.org/2000/svg" xmlns:xlink="http://www.w3.org/1999/xlink" x="0px" y="0px"
	 viewBox="0 0 60 60" style="enable-background:new 0 0 60 60;" xml:space="preserve">
<path d="M52.142,57.829c-0.036-3.349-2.19-6.167-5.073-6.998c-0.252-2.397-1.872-4.351-4-4.953l-3.477-27.635h2.097
	c2.987,0,5.417-2.604,5.417-5.806V1.692c0-0.335-0.271-0.606-0.606-0.606H38.81c-0.335,0-0.606,0.271-0.606,0.606v5.847h-2.18V1.692
	c0-0.335-0.271-0.606-0.606-0.606H24.749c-0.335,0-0.606,0.271-0.606,0.606v5.847h-2.18V1.692c0-0.335-0.271-0.606-0.606-0.606
	h-7.689c-0.335,0-0.606,0.271-0.606,0.606v10.746c0,3.201,2.43,5.806,5.417,5.806h2.097l-3.477,27.635
	c-2.128,0.603-3.748,2.556-4,4.953c-2.883,0.831-5.037,3.649-5.073,6.998l-0.003,0.306c-0.002,0.162,0.062,0.318,0.175,0.432
	c0.114,0.115,0.269,0.18,0.431,0.18h42.91c0.162,0,0.317-0.065,0.431-0.18c0.114-0.115,0.177-0.271,0.175-0.432L52.142,57.829z
	 M14.848,52.395h30.471c2.44,0,4.501,1.945,4.925,4.535H9.923C10.347,54.34,12.408,52.395,14.848,52.395z M18.478,47.499h23.21
	c1.69,0,3.13,1.308,3.504,3.077H14.973C15.348,48.807,16.788,47.499,18.478,47.499z M37.758,18.243l3.453,27.437H18.955
	l3.453-27.437H37.758z M18.478,16.425c-1.984,0-3.598-1.789-3.598-3.987V2.904h5.264v5.847c0,0.335,0.271,0.606,0.606,0.606h4.605
	c0.335,0,0.606-0.271,0.606-0.606V2.904h8.242v5.847c0,0.335,0.271,0.606,0.606,0.606h4.605c0.335,0,0.606-0.271,0.606-0.606V2.904
	h5.264v9.534c0,2.198-1.614,3.987-3.598,3.987h-2.861H21.338H18.478z"/>
</svg>
