<?xml version="1.0" encoding="utf-8"?>
<!-- Generator: Adobe Illustrator 25.2.1, SVG Export Plug-In . SVG Version: 6.00 Build 0)  -->
<svg version="1.1" id="Layer_1" xmlns="http://www.w3.org/2000/svg" xmlns:xlink="http://www.w3.org/1999/xlink" x="0px" y="0px"
	 viewBox="0 0 60 60" style="enable-background:new 0 0 60 60;" xml:space="preserve">
<g>
	<path d="M49.568,50.658c-0.845-1.457-2.357-2.37-4.278-2.592c1.852-14.51-5.521-17.995-10.915-20.544
		c-2.504-1.183-4.482-2.118-4.47-3.892l0.003-0.267c0.025-1.98,0.055-4.458-0.674-6.588c4.449-1.768,7.046-6.252,7.73-9
		c0.264-1.062,0.418-2.485-0.347-3.239c-0.526-0.517-1.507-0.58-2.838-0.183c-0.618,0.185-1.36,0.496-2.146,0.938
		c0.156-2.051-0.265-3.616-1.185-4.124c-0.648-0.357-1.609-0.153-2.781,0.59c-2.124,1.345-5.544,4.989-5.611,10.411
		c-5.698,0.05-10.144,3.418-11.343,8.617c-1.29,5.593,1.32,6.531,2.728,7.036c0.239,0.086,0.537,0.193,0.625,0.269
		c0.597,0.512,0.97,0.985,1.103,4.126c0.079,1.882,0.206,3.799,0.318,5.493c0.109,1.653,0.203,3.08,0.203,3.789
		c-0.027,0.293-1.015,1.421-1.437,1.903c-1.448,1.653-3.249,3.709-1.785,5.224c1.278,1.322,3.284,0.938,4.722-0.011
		c0.874,1.476,1.318,3.308,1.51,4.302h-2.116c-1.819,0-3.04,1.681-3.04,3.251c0,0.849,0.335,1.619,0.942,2.17
		c0.668,0.605,1.601,0.912,2.773,0.912h27.798c1.834,0,3.438-0.959,4.402-2.632C50.539,54.744,50.581,52.406,49.568,50.658z
		 M16.586,54.627h3.75c0.081,0,0.158-0.034,0.212-0.094c0.054-0.06,0.08-0.14,0.072-0.221l-0.066-0.63
		c-0.018-0.17-0.463-4.207-2.494-6.834l-0.388-0.502c-0.05-0.064-0.124-0.104-0.204-0.11c-0.085-0.006-0.16,0.023-0.219,0.079
		l-0.458,0.439c-0.784,0.752-2.308,1.491-3.091,0.68c-0.369-0.382,1.18-2.151,1.843-2.907c1.039-1.186,1.86-2.123,1.86-3.026
		c0-0.776-0.093-2.186-0.211-3.97c-0.109-1.661-0.233-3.545-0.311-5.386c-0.136-3.213-0.486-4.314-1.699-5.353
		c-0.328-0.281-0.735-0.428-1.167-0.583c-1.21-0.434-2.581-0.927-1.632-5.039c1.022-4.431,4.869-7.294,9.801-7.294
		c1.903,0,3.291,0.47,4.245,1.436c1.85,1.874,1.802,5.446,1.765,8.316c-0.038,2.849,2.505,4.051,5.45,5.443
		c5.035,2.379,11.93,5.638,9.824,19.672L43.37,49.4c-0.012,0.082,0.012,0.166,0.066,0.229c0.054,0.063,0.133,0.099,0.216,0.099
		c0,0,0.001,0,0.001,0l0.688-0.002c2.237,0,3.272,0.974,3.746,1.792c0.701,1.208,0.657,2.914-0.109,4.245
		c-0.65,1.128-1.714,1.775-2.919,1.775H17.261c-0.723,0-1.285-0.162-1.624-0.469c-0.314-0.284-0.38-0.647-0.38-0.901
		C15.257,55.423,15.791,54.627,16.586,54.627z M28.585,3.203c0.587-0.372,0.944-0.47,1.064-0.498
		c0.193,0.296,0.531,1.609,0.071,3.899c-1.684,1.385-3.295,3.399-4.128,6.161c-0.555-0.225-1.16-0.391-1.821-0.488
		C23.792,7.537,26.749,4.365,28.585,3.203z M27.648,14.109c-0.163-0.165-0.336-0.32-0.518-0.464
		c0.718-2.711,2.274-4.628,3.876-5.886c0.05-0.002,0.099-0.012,0.142-0.039c0.06-0.038,0.101-0.098,0.12-0.166
		c1.09-0.807,2.176-1.314,3.004-1.562c0.648-0.194,1.015-0.197,1.155-0.189c0.053,0.186,0.096,0.68-0.123,1.558
		c-0.601,2.415-2.889,6.361-6.797,7.857C28.264,14.822,27.983,14.448,27.648,14.109z"/>
	<path d="M25.284,19.4c0-1.738-1.414-3.151-3.152-3.151S18.98,17.662,18.98,19.4c0,1.738,1.414,3.152,3.152,3.152
		S25.284,21.138,25.284,19.4z M21.303,18.918c0.425,0,0.771,0.346,0.771,0.771c0,0.425-0.346,0.771-0.771,0.771
		s-0.771-0.346-0.771-0.771C20.532,19.263,20.878,18.918,21.303,18.918z"/>
</g>
</svg>
