<?xml version="1.0" encoding="utf-8"?>
<!-- Generator: Adobe Illustrator 25.2.1, SVG Export Plug-In . SVG Version: 6.00 Build 0)  -->
<svg version="1.1" id="Layer_1" xmlns="http://www.w3.org/2000/svg" xmlns:xlink="http://www.w3.org/1999/xlink" x="0px" y="0px"
	 viewBox="0 0 60 60" style="enable-background:new 0 0 60 60;" xml:space="preserve">
<g>
	<path d="M57.015,35.931c-0.607-17.906-11.292-19.792-21.36-20.05c-0.75-2.604-2.618-3.401-4.53-3.645V11.06h1.152
		c1.875,1.974,5.013,3.038,7.051,3.038c3.398,0,6.163-2.765,6.163-6.163s-2.765-6.163-6.163-6.163c-2.038,0-5.176,1.064-7.051,3.038
		h-8.969c-1.882-1.974-5.018-3.038-7.051-3.038c-3.398,0-6.163,2.765-6.163,6.163s2.765,6.163,6.163,6.163
		c2.033,0,5.168-1.064,7.051-3.038h1.42v1.145c-2.025,0.197-4.067,0.922-4.829,3.633H8.672c-0.165,0-0.298,0.133-0.298,0.298v1.098
		H7.308v-1.652c0-2.54-2.067-4.607-4.607-4.607H1.546c-0.165,0-0.298,0.133-0.298,0.298v21.824c0,0.165,0.133,0.298,0.298,0.298H2.7
		c2.54,0,4.607-2.067,4.607-4.607v-1.521h1.067v1.121c0,0.165,0.133,0.298,0.298,0.298h9.911c1.529,3.712,5.218,6.191,9.245,6.191
		c3.994,0,7.669-2.45,9.215-6.12c3.529,0.302,6.734,1.443,6.888,7.023c-1.17,0.658-1.968,2.145-1.968,3.47v0.596
		c0,0.165,0.133,0.298,0.298,0.298h16.187c0.165,0,0.298-0.133,0.298-0.298v-0.596C58.747,38.017,58.054,36.646,57.015,35.931z
		 M7.308,25.478v-6.455h1.067v6.455H7.308z M5.519,17.532v9.436v1.819c0,1.434-1.089,2.631-2.483,2.798V12.783
		c1.394,0.167,2.483,1.364,2.483,2.798V17.532z M27.828,33.089c-3.524,0-6.65-2.244-7.778-5.583L19.913,27.1
		c-0.041-0.121-0.155-0.203-0.282-0.203h-9.468v-9.271h10.95c0.145,0,0.268-0.104,0.294-0.247l0.087-0.493
		c0.47-2.681,2.266-2.95,4.623-2.97h3.242c2.365,0.015,4.187,0.258,4.707,3.008l0.09,0.477c0.026,0.139,0.146,0.24,0.287,0.243
		l0.485,0.009c9.424,0.176,19.495,1.738,20.274,17.781h-9.484c-0.297-7.005-4.799-8.248-9.22-8.51l-0.453-0.027
		c-0.134-0.006-0.256,0.075-0.3,0.201l-0.146,0.429C34.464,30.854,31.341,33.089,27.828,33.089z M26.868,12.127
		c-0.091,0-0.186,0.001-0.28,0.001h-0.072V11.06h2.82v1.068h-0.208c-0.171-0.001-0.339-0.001-0.502-0.001l-0.422,0.001
		L26.868,12.127z M16.257,3.56c1.773,0,4.558,1.039,5.966,2.718l0.179,0.213c0.057,0.068,0.14,0.107,0.229,0.107h10.324
		c0.089,0,0.172-0.039,0.229-0.107l0.177-0.213c1.41-1.679,4.195-2.718,5.967-2.718c2.412,0,4.375,1.963,4.375,4.375
		s-1.962,4.375-4.375,4.375c-1.773,0-4.558-1.039-5.966-2.718l-0.178-0.213c-0.057-0.068-0.141-0.107-0.229-0.107h-2.128h-5.801
		H22.63c-0.088,0-0.172,0.039-0.229,0.107l-0.179,0.213c-1.408,1.679-4.194,2.718-5.966,2.718c-2.412,0-4.375-1.962-4.375-4.375
		S13.845,3.56,16.257,3.56z M45.203,37.224h10.304c0.474,0,0.967,0.535,1.238,1.133H43.966
		C44.236,37.758,44.729,37.224,45.203,37.224z"/>
	<path d="M50.578,40.296c-0.113-0.128-0.333-0.128-0.446,0L49.685,40.8c-0.671,0.758-6.552,7.518-6.552,11.239
		c0,3.982,3.24,7.223,7.222,7.223s7.223-3.24,7.223-7.223c0-3.793-6.285-10.937-6.553-11.24L50.578,40.296z M50.355,57.474
		c-2.996,0-5.434-2.438-5.434-5.434c0-2.48,3.899-7.419,5.434-9.266c1.535,1.847,5.434,6.786,5.434,9.266
		C55.789,55.036,53.351,57.474,50.355,57.474z"/>
</g>
</svg>
