<?xml version="1.0" encoding="utf-8"?>
<!-- Generator: Adobe Illustrator 25.2.1, SVG Export Plug-In . SVG Version: 6.00 Build 0)  -->
<svg version="1.1" id="Layer_1" xmlns="http://www.w3.org/2000/svg" xmlns:xlink="http://www.w3.org/1999/xlink" x="0px" y="0px"
	 viewBox="0 0 60 60" style="enable-background:new 0 0 60 60;" xml:space="preserve">
<g>
	<path d="M31.943,0.887c1.471,0.075,2.944,0.118,4.412,0.233c3.637,0.285,7.276,0.561,10.905,0.928
		c1.468,0.148,2.423,1.084,2.831,2.51c0.095,0.33,0.241,0.449,0.561,0.498c2.029,0.309,3.045,1.394,3.221,3.467
		c0.919,10.792,1.232,21.601,0.785,32.424c-0.189,4.571-0.52,9.136-0.804,13.703c-0.108,1.735-1.371,3.018-3.105,3.221
		c-8.771,1.027-17.572,1.391-26.391,0.965c-4.152-0.201-8.293-0.63-12.437-0.978c-1.344-0.113-2.528-1.135-2.88-2.466
		c-0.099-0.376-0.251-0.517-0.625-0.568c-1.928-0.267-3.003-1.434-3.167-3.396c-0.068-0.81-0.151-1.619-0.199-2.431
		c-0.036-0.613,0.294-0.998,0.812-1.012c0.497-0.013,0.831,0.325,0.882,0.906c0.076,0.866,0.139,1.734,0.222,2.6
		c0.088,0.909,0.625,1.529,1.533,1.624c2.632,0.276,5.265,0.548,7.904,0.746c5.021,0.378,10.051,0.453,15.084,0.351
		c1.928-0.039,3.855-0.149,5.783-0.228c0.106-0.004,0.212-0.028,0.52-0.071c-0.534-0.564-0.895-1.131-1.41-1.451
		c-1.148-0.714-2.362-1.326-3.572-1.936c-0.416-0.21-0.7-0.44-0.67-0.929c0.03-0.484,0.365-0.749,0.995-0.8
		c1.941-0.156,3.886-0.276,5.822-0.48c1.066-0.112,2.138-0.291,3.169-0.575c1.271-0.35,1.767-1.048,1.516-2.325
		c-0.278-1.416-0.776-2.79-1.193-4.177c-0.097-0.324-0.263-0.626-0.387-0.943c-0.163-0.414-0.104-0.789,0.266-1.063
		c0.373-0.276,0.742-0.207,1.094,0.064c0.614,0.473,1.206,0.981,1.853,1.403c0.82,0.535,1.671,1.03,2.541,1.478
		c0.368,0.189,0.819,0.215,1.344,0.342c0.11-3.173,0.215-6.224,0.32-9.286c-0.542,0-1.007-0.022-1.47,0.004
		c-2.853,0.157-5.699,0.373-8.445,1.247c-0.52,0.165-1.034,0.366-1.527,0.6c-2.584,1.227-3.623,3.248-3.089,6.068
		c0.158,0.831,0.415,1.646,0.663,2.457c0.145,0.473,0.205,0.91-0.259,1.214c-0.455,0.297-0.836,0.111-1.218-0.225
		c-0.936-0.824-1.874-1.651-2.864-2.406c-0.565-0.431-1.211-0.774-1.86-1.07c-1.427-0.65-2.722-0.387-3.862,0.685
		c-1.147,1.078-1.994,2.38-2.692,3.765c-1.019,2.023-1.956,4.087-2.925,6.135c-0.081,0.171-0.155,0.345-0.221,0.521
		c-0.18,0.484-0.497,0.768-1.036,0.659c-0.513-0.104-0.67-0.484-0.692-0.967c-0.069-1.53-0.07-3.069-0.249-4.587
		c-0.218-1.852-0.575-3.688-0.905-5.525c-0.069-0.382-0.258-0.75-0.433-1.104c-0.875-1.762-2.309-2.579-4.26-2.293
		c-1.169,0.171-2.312,0.529-3.466,0.803c-0.238,0.056-0.474,0.158-0.712,0.164c-0.653,0.015-1.054-0.68-0.722-1.242
		c0.113-0.191,0.289-0.348,0.445-0.512c1.692-1.783,3.397-3.554,5.072-5.354c0.369-0.396,0.67-0.87,0.935-1.346
		c0.56-1.004,0.5-1.748-0.36-2.493c-0.808-0.699-1.724-1.282-2.63-1.857c-0.619-0.393-1.3-0.692-1.96-1.017
		c-0.414-0.203-0.691-0.493-0.609-0.974c0.087-0.51,0.465-0.683,0.945-0.733c1.464-0.151,2.944-0.228,4.386-0.5
		c2.138-0.403,2.739-1.298,2.133-3.378c-0.653-2.243-1.526-4.422-2.306-6.628c-0.139-0.391-0.284-0.781-0.447-1.163
		c-0.206-0.481-0.243-0.931,0.242-1.258c0.467-0.316,0.827-0.064,1.217,0.232c0.929,0.707,1.843,1.456,2.855,2.027
		c1.419,0.8,2.969,0.992,4.54,0.423c0.239-0.087,0.5-0.339,0.59-0.576c0.559-1.484,1.071-2.986,1.602-4.48
		c0.425-1.196,1.062-1.644,2.34-1.645c3.026-0.002,6.053,0.005,9.079-0.004c0.882-0.003,1.602,0.282,2.044,1.073
		c0.443,0.794,0.301,1.555-0.176,2.298c-0.714,1.112-1.404,2.24-2.118,3.385c1,1.195,2.308,1.532,3.767,1.467
		c1.785-0.08,3.438-0.671,5.066-1.349c0.296-0.123,0.586-0.341,0.886-0.356c0.3-0.015,0.674,0.095,0.9,0.286
		c0.298,0.253,0.269,0.649,0.039,0.983c-0.106,0.154-0.254,0.28-0.371,0.428c-1.146,1.451-2.3,2.896-3.427,4.362
		c-0.371,0.483-0.812,0.668-1.249,0.415c-0.437-0.252-0.546-0.76-0.222-1.279c0.469-0.751,0.974-1.479,1.52-2.302
		c-2.793,0.722-5.486,1.006-7.858-1.14c-0.841,1.34-1.667,2.657-2.554,4.071c0.982,0,1.845,0.018,2.706-0.005
		c1.098-0.029,1.977,0.335,2.472,1.358c0.492,1.016,0.237,1.924-0.432,2.793c-2.792,3.625-5.565,7.266-8.346,10.9
		c-0.66,0.862-1.346,1.134-2.198,0.882c-0.94-0.278-1.519-1.121-1.33-2.085c0.461-2.354,0.968-4.699,1.455-7.047
		c0.049-0.238,0.09-0.477,0.148-0.786c-0.354,0-0.67,0-0.987,0c-1.173-0.001-2.346,0.015-3.518-0.008
		c-1.88-0.037-2.963-1.589-2.349-3.361c0.668-1.927,1.357-3.846,2.035-5.769c0.062-0.176,0.117-0.354,0.207-0.627
		c-2.143,0.387-4.053-0.131-5.957-1.263c0.286,0.763,0.566,1.397,0.762,2.055c0.436,1.462,0.934,2.916,1.215,4.41
		c0.336,1.784-0.529,3.182-2.213,3.897c-0.484,0.205-0.999,0.345-1.51,0.473c-0.492,0.123-0.997,0.191-1.591,0.301
		c0.177,0.129,0.304,0.217,0.426,0.311c0.672,0.518,1.394,0.984,2.005,1.567c1.331,1.27,1.608,2.843,0.651,4.428
		c-0.678,1.122-1.551,2.138-2.421,3.127c-0.582,0.661-1.313,1.19-1.977,1.778c0.057,0.048,0.114,0.095,0.171,0.143
		c0.793,0,1.589-0.047,2.377,0.009c2.114,0.15,3.583,1.273,4.53,3.128c0.822,1.609,1.126,3.359,1.345,5.125
		c0.13,1.043,0.21,2.091,0.409,3.16c0.168-0.347,0.335-0.695,0.506-1.041c1.052-2.139,2.126-4.266,3.755-6.046
		c1.998-2.182,4.358-2.587,6.952-1.149c0.804,0.446,1.552,0.994,2.373,1.526c-0.033-0.566-0.096-1.116-0.091-1.666
		c0.027-3.085,1.656-5.079,4.361-6.315c2.018-0.922,4.174-1.303,6.355-1.574c0.798-0.099,1.598-0.172,2.517-0.27
		c-0.711-0.416-1.331-0.761-1.932-1.135c-1.517-0.944-2.935-2.007-4.019-3.456c-1.04-1.391-1.527-2.939-1.32-4.68
		c0.063-0.527,0.431-0.835,0.919-0.796c0.453,0.037,0.82,0.397,0.765,0.886c-0.234,2.064,0.757,3.561,2.194,4.853
		c1.879,1.69,4.106,2.803,6.464,3.874c0.024-0.214,0.055-0.369,0.056-0.525c0.044-6.774-0.127-13.541-0.608-20.299
		c-0.114-1.603-0.234-3.206-0.354-4.809c-0.083-1.111-0.629-1.688-1.719-1.818C38.131,2.673,29.424,2.334,20.7,2.753
		c-4.039,0.194-8.066,0.62-12.097,0.962c-1,0.085-1.558,0.696-1.644,1.7C6.033,16.206,5.746,27.014,6.147,37.839
		c0.09,2.419,0.228,4.836,0.348,7.254c0.037,0.753-0.239,1.171-0.804,1.196c-0.544,0.024-0.854-0.337-0.898-1.063
		c-0.541-8.747-0.717-17.501-0.335-26.258c0.2-4.59,0.524-9.174,0.81-13.76c0.107-1.722,1.414-3,3.129-3.196
		c4.831-0.552,9.675-0.921,14.536-1.05c0.167-0.004,0.332-0.049,0.498-0.074C26.268,0.887,29.105,0.887,31.943,0.887z
		 M26.129,33.521c0.055,0.019,0.11,0.038,0.165,0.056c0.118-0.132,0.246-0.258,0.354-0.399c2.771-3.616,5.545-7.229,8.294-10.861
		c0.188-0.248,0.298-0.668,0.236-0.966c-0.086-0.416-0.526-0.4-0.897-0.398c-1.342,0.006-2.685,0.012-4.027-0.001
		c-1.001-0.01-1.358-0.657-0.848-1.505c0.068-0.113,0.139-0.225,0.209-0.337c1.997-3.185,3.998-6.369,5.984-9.561
		c0.136-0.218,0.167-0.502,0.246-0.755c-0.263-0.062-0.525-0.176-0.789-0.178c-2.912-0.013-5.824,0.001-8.736-0.017
		c-0.465-0.003-0.706,0.124-0.869,0.59c-1.524,4.366-3.075,8.722-4.616,13.082c-0.321,0.908-0.058,1.274,0.918,1.276
		c1.721,0.003,3.441-0.01,5.162,0.003c0.809,0.006,1.124,0.41,0.959,1.208c-0.554,2.681-1.12,5.36-1.675,8.04
		C26.153,33.035,26.152,33.28,26.129,33.521z M10.799,55.122c0.313,0.689,0.698,0.994,1.42,1.048
		c4.768,0.357,9.533,0.813,14.308,1.02c8.006,0.347,15.992-0.079,23.95-1.01c1.042-0.122,1.594-0.695,1.685-1.727
		c0.604-6.823,0.899-13.661,0.975-20.508c0.074-6.697-0.14-13.389-0.558-20.073c-0.114-1.83-0.272-3.658-0.43-5.485
		c-0.088-1.015-0.81-1.646-1.783-1.577c0,0.107-0.005,0.217,0.001,0.326c0.26,5.477,0.607,10.951,0.762,16.431
		c0.265,9.385-0.134,18.756-0.916,28.111c-0.134,1.606-1.37,2.918-2.956,3.126c-0.937,0.123-1.875,0.255-2.817,0.32
		c-3.866,0.265-7.731,0.582-11.602,0.737c-5.673,0.227-11.345,0.091-17.009-0.336C14.174,55.4,12.519,55.26,10.799,55.122z
		 M36.324,50.304c1.384,0.882,2.495,1.851,3.108,3.291c0.047,0.111,0.3,0.205,0.447,0.192c2.351-0.209,4.703-0.418,7.05-0.671
		c0.997-0.108,1.512-0.734,1.593-1.749c0.095-1.186,0.207-2.371,0.292-3.558c0.086-1.2,0.147-2.402,0.222-3.642
		c-1.63-0.047-2.919-0.859-4.259-1.695c0.19,0.787,0.385,1.474,0.518,2.174c0.48,2.533-0.51,4.132-2.986,4.833
		c-0.507,0.144-1.026,0.265-1.548,0.33C39.324,49.99,37.884,50.133,36.324,50.304z"/>
	<path d="M14.578,7.205c-1.549,0-3.098,0-4.647-0.001c-0.151,0-0.304,0.006-0.453-0.014c-0.499-0.067-0.812-0.412-0.8-0.866
		c0.012-0.454,0.34-0.792,0.846-0.811c0.66-0.024,1.322-0.011,1.983-0.011c2.531-0.001,5.063-0.001,7.594,0
		c0.189,0,0.379-0.006,0.566,0.018c0.46,0.058,0.713,0.338,0.732,0.793c0.019,0.458-0.22,0.753-0.668,0.852
		c-0.182,0.04-0.375,0.037-0.563,0.038C17.638,7.206,16.108,7.205,14.578,7.205z"/>
	<path d="M10.61,9.964c-0.358,0-0.718,0.016-1.075-0.004C9.014,9.932,8.666,9.57,8.676,9.098c0.009-0.45,0.344-0.814,0.832-0.829
		c0.754-0.023,1.509-0.024,2.263,0.003c0.489,0.018,0.805,0.39,0.798,0.852c-0.007,0.457-0.332,0.801-0.827,0.831
		C11.366,9.979,10.987,9.96,10.61,9.96C10.61,9.961,10.61,9.962,10.61,9.964z"/>
</g>
</svg>
