<?xml version="1.0" encoding="utf-8"?>
<!-- Generator: Adobe Illustrator 25.2.1, SVG Export Plug-In . SVG Version: 6.00 Build 0)  -->
<svg version="1.1" id="Layer_1" xmlns="http://www.w3.org/2000/svg" xmlns:xlink="http://www.w3.org/1999/xlink" x="0px" y="0px"
	 viewBox="0 0 60 60" style="enable-background:new 0 0 60 60;" xml:space="preserve">
<g>
	<path d="M44.373,55.599c2.059,0,4.117-0.009,6.176,0.011c0.294,0.003,0.692,0.059,0.855,0.25c0.211,0.248,0.367,0.685,0.301,0.987
		c-0.059,0.272-0.421,0.519-0.702,0.688c-0.173,0.104-0.446,0.05-0.674,0.05c-13.286,0.002-26.571,0.001-39.857,0.001
		c-0.167,0-0.334,0.009-0.5-0.006c-0.607-0.055-0.983-0.449-0.973-1.008c0.01-0.555,0.397-0.956,1.01-0.965
		c1.311-0.019,2.622-0.006,4.022-0.006c-0.166-0.433-0.305-0.811-0.455-1.186c-1.683-4.199-2.529-8.567-2.64-13.082
		c-0.018-0.749,0.332-1.207,0.937-1.235c0.631-0.029,1.009,0.4,1.032,1.201c0.139,4.777,1.117,9.363,3.068,13.736
		c0.188,0.421,0.399,0.585,0.872,0.577c1.782-0.03,3.564-0.012,5.335-0.012c-0.722-1.473-1.49-2.876-2.111-4.339
		c-1.348-3.174-2.017-6.507-2.11-9.954c-0.019-0.721,0.317-1.163,0.892-1.206c0.6-0.045,1.03,0.371,1.061,1.111
		c0.143,3.445,0.797,6.781,2.254,9.915c0.655,1.409,1.493,2.734,2.281,4.077c0.111,0.189,0.408,0.375,0.622,0.379
		c1.686,0.03,3.373,0.016,5.06,0.013c0.054,0,0.108-0.029,0.13-0.036c-0.848-0.935-1.77-1.809-2.526-2.808
		c-3.561-4.704-4.764-10.023-3.764-15.795c0.334-1.93,1.015-3.811,1.659-5.672c1.066-3.084,2.221-6.138,3.356-9.199
		c0.932-2.511,3.571-3.257,5.668-1.616c3.362,2.631,7.093,4.556,11.148,5.87c0.198,0.064,0.401,0.113,0.593,0.191
		c0.561,0.23,0.805,0.733,0.622,1.252c-0.185,0.524-0.69,0.814-1.252,0.598c-2.015-0.773-4.049-1.511-6.01-2.407
		c-2.275-1.039-4.385-2.378-6.34-3.956c-0.952-0.769-2.105-0.513-2.507,0.583c-1.552,4.235-3.301,8.417-4.536,12.745
		c-1.802,6.316-0.605,12.17,3.78,17.203c0.73,0.838,1.656,1.512,2.527,2.218c1.229,0.996,2.728,0.857,4.131,0.731
		c7.543-0.679,12.606-4.824,15.515-11.626c1.633-3.818,2.915-7.786,4.335-11.694c0.444-1.222-0.238-2.154-1.553-2.197
		c-0.437-0.014-0.877-0.003-1.31-0.052c-0.658-0.074-1.011-0.492-0.964-1.075c0.045-0.552,0.439-0.887,1.078-0.885
		c0.541,0.002,1.086,0,1.622,0.059c2.432,0.265,3.834,2.462,3.005,4.766c-1.372,3.815-2.741,7.632-4.206,11.411
		c-0.545,1.405-1.266,2.764-2.066,4.045c-1.867,2.988-4.399,5.305-7.498,6.993c-0.142,0.077-0.28,0.163-0.419,0.245
		C44.356,55.523,44.365,55.561,44.373,55.599z"/>
	<path d="M19.229,36.395c0.312-0.014,0.624-0.034,0.936-0.04c0.701-0.014,1.149,0.332,1.195,0.912
		c0.046,0.581-0.412,1.087-1.124,1.059c-1.387-0.055-2.807-0.036-4.149-0.335c-4.614-1.03-7.981-3.787-10.283-7.867
		c-1.421-2.518-2.784-5.068-4.154-7.614c-1.046-1.944-0.089-3.942,2.078-4.371c5.446-1.08,10.101-3.619,13.988-7.577
		c1.707-1.739,3.802-1.455,4.972,0.685c1.427,2.61,2.858,5.217,4.246,7.847c0.171,0.324,0.211,0.823,0.09,1.162
		c-0.085,0.24-0.565,0.506-0.831,0.472c-0.33-0.042-0.74-0.314-0.909-0.606c-0.913-1.585-1.762-3.208-2.634-4.817
		c-0.565-1.042-1.13-2.084-1.7-3.124c-0.51-0.93-1.073-1.017-1.803-0.263c-3.771,3.897-8.301,6.48-13.538,7.84
		c-0.502,0.13-1.013,0.23-1.522,0.336c-0.814,0.17-1.114,0.695-0.728,1.407c1.528,2.815,2.961,5.691,4.648,8.408
		C10.562,34.024,14.336,36.224,19.229,36.395z"/>
	<path d="M38.183,19.261c-0.541,0.008-0.903-0.315-0.996-0.913c-0.073-0.471-0.085-0.956-0.197-1.417
		c-0.551-2.277-2.592-3.952-4.93-4.097c-0.303-0.019-0.702-0.032-0.876-0.218c-0.236-0.252-0.459-0.703-0.391-1.002
		c0.067-0.296,0.463-0.612,0.785-0.734c0.414-0.157,0.907-0.091,1.35-0.19c2.344-0.527,4.051-2.546,4.222-4.958
		c0.015-0.207,0.027-0.418,0.078-0.617c0.124-0.487,0.471-0.748,0.955-0.735c0.511,0.014,0.859,0.302,0.943,0.828
		c0.076,0.471,0.078,0.958,0.19,1.419c0.582,2.41,2.581,4.054,5.108,4.203c0.522,0.031,0.947,0.156,1.138,0.687
		c0.223,0.619-0.208,1.196-0.944,1.307c-0.613,0.093-1.26,0.113-1.828,0.331c-2.26,0.869-3.448,2.564-3.637,4.971
		C39.093,18.879,38.769,19.252,38.183,19.261z M40.741,11.766c-0.432-0.359-0.942-0.724-1.379-1.162
		c-0.436-0.438-0.799-0.949-1.136-1.357c-0.859,0.86-1.743,1.747-2.574,2.579c0.81,0.812,1.701,1.705,2.509,2.516
		C39,13.503,39.874,12.631,40.741,11.766z"/>
	<path d="M48.77,29.398c0.268-1.503-0.065-2.813-1-3.958c-0.667-0.816-1.536-1.32-2.557-1.574c-0.699-0.174-1.051-0.617-0.955-1.164
		c0.103-0.59,0.615-0.892,1.335-0.787c2.336,0.34,4.51-1.064,5.176-3.342c0.284-0.973,0.667-1.332,1.283-1.203
		c0.594,0.125,0.807,0.591,0.709,1.556c-0.222,2.194,1.178,4.286,3.304,4.931c0.179,0.054,0.366,0.083,0.543,0.141
		c0.535,0.174,0.838,0.651,0.738,1.147c-0.106,0.527-0.583,0.8-1.172,0.796c-0.739-0.005-1.516-0.055-2.211,0.144
		c-1.714,0.493-2.767,1.701-3.198,3.429c-0.136,0.547-0.412,0.913-0.992,0.951C49.202,30.501,48.736,29.962,48.77,29.398z
		 M51.177,21.93c-0.774,0.529-1.588,1.085-2.351,1.607c0.533,0.78,1.087,1.591,1.603,2.345c0.789-0.539,1.598-1.092,2.351-1.605
		C52.242,23.49,51.695,22.69,51.177,21.93z"/>
	<path d="M42.001,49.297c0.139-2.206-1.13-4.22-3.444-5.321c-2.037-0.969-4.131-1.196-6.15,0.015
		c-0.619,0.371-1.122,0.975-1.591,1.544c-0.504,0.61-1.008,0.817-1.528,0.461c-0.497-0.341-0.572-0.905-0.149-1.542
		c1.652-2.489,4.06-3.46,6.937-3.191c2.947,0.275,5.367,1.589,6.948,4.184c0.839,1.377,1.161,2.886,0.889,4.494
		c-0.119,0.706-0.546,1.085-1.101,1.022c-0.599-0.068-0.909-0.542-0.843-1.292C41.98,49.546,41.991,49.422,42.001,49.297z"/>
	<path d="M17.293,32.879c-1.888-0.038-3.319-0.631-4.417-1.942c-0.414-0.495-0.391-1.07,0.035-1.444
		c0.437-0.384,0.989-0.357,1.432,0.145c1.114,1.265,2.515,1.505,4.032,1.056c1.708-0.506,3.01-1.535,3.406-3.373
		c0.113-0.524,0.021-1.111-0.067-1.655c-0.111-0.685,0.1-1.185,0.669-1.331c0.583-0.149,1.039,0.155,1.244,0.825
		c0.497,1.622,0.216,3.148-0.7,4.525C21.553,31.751,19.555,32.752,17.293,32.879z"/>
	<path d="M51.819,38.689c-0.101,0.501-0.186,1.12-0.355,1.716c-0.175,0.617-0.701,0.88-1.256,0.71
		c-0.522-0.16-0.765-0.639-0.628-1.243c0.009-0.041,0.018-0.081,0.029-0.121c0.287-1.065,0.443-2.158-0.523-2.941
		c-1.148-0.932-2.468-1.265-3.905-0.634c-0.19,0.083-0.366,0.199-0.556,0.282c-0.513,0.226-1.044,0.069-1.301-0.376
		c-0.267-0.464-0.124-1.052,0.373-1.352c1.536-0.927,3.156-1.103,4.846-0.471c1.538,0.575,2.737,1.495,3.121,3.195
		C51.746,37.816,51.759,38.194,51.819,38.689z"/>
	<path d="M33.648,29.18c2.39-0.015,4.534,1.454,5.361,3.674c0.249,0.669,0.085,1.204-0.439,1.436
		c-0.561,0.248-1.108,0.002-1.375-0.691c-0.549-1.425-1.608-2.156-3.074-2.408c-1.098-0.188-1.847,0.298-2.41,1.168
		c-0.202,0.312-0.33,0.672-0.527,0.988c-0.281,0.453-0.796,0.598-1.248,0.366c-0.467-0.24-0.699-0.658-0.519-1.141
		C30.032,30.923,31.329,29.186,33.648,29.18z"/>
	<path d="M9.698,26.888c-1.493,0.012-2.952-0.973-3.461-2.214c-0.205-0.498-0.067-0.911,0.363-1.195
		c0.406-0.268,0.83-0.229,1.202,0.102c0.092,0.081,0.164,0.187,0.235,0.288c0.417,0.59,0.857,1.183,1.697,1.022
		c0.982-0.189,1.714-0.718,2.02-1.721c0.042-0.139,0.068-0.283,0.113-0.421c0.175-0.529,0.549-0.772,1.096-0.696
		c0.532,0.073,0.868,0.508,0.802,1.077c-0.115,0.985-0.549,1.827-1.276,2.499C11.656,26.4,10.67,26.846,9.698,26.888z"/>
	<path d="M18.272,22.095c-0.556-0.15-1.128-0.257-1.664-0.461c-0.53-0.201-0.734-0.737-0.556-1.227
		c0.186-0.512,0.708-0.78,1.266-0.577c0.912,0.332,1.746,0.258,2.533-0.324c0.646-0.478,0.832-0.954,0.641-1.731
		c-0.03-0.12-0.076-0.237-0.121-0.353c-0.343-0.895-0.206-1.464,0.406-1.683c0.63-0.226,1.094,0.092,1.451,0.992
		C23.29,19.406,21.322,22.044,18.272,22.095z"/>
</g>
</svg>
