<?xml version="1.0" encoding="utf-8"?>
<!-- Generator: Adobe Illustrator 25.2.1, SVG Export Plug-In . SVG Version: 6.00 Build 0)  -->
<svg version="1.1" id="Layer_1" xmlns="http://www.w3.org/2000/svg" xmlns:xlink="http://www.w3.org/1999/xlink" x="0px" y="0px"
	 viewBox="0 0 60 60" style="enable-background:new 0 0 60 60;" xml:space="preserve">
<path d="M59.008,30.049l-0.773-0.481c-1.939-1.205-2.943-2.304-3.16-3.459c-0.212-1.128,0.296-2.464,1.599-4.205l0.58-0.774
	c0.06-0.081,0.073-0.187,0.034-0.279c-0.039-0.093-0.125-0.158-0.224-0.17l-0.96-0.125c-2.193-0.285-3.502-0.849-4.119-1.772
	c-0.613-0.917-0.636-2.325-0.071-4.43l0.255-0.948c0.027-0.098-0.001-0.202-0.073-0.273c-0.071-0.072-0.174-0.099-0.273-0.073
	l-0.948,0.255c-2.104,0.567-3.513,0.546-4.429-0.067c-0.924-0.618-1.486-1.926-1.769-4.119l-0.125-0.959
	c-0.013-0.1-0.078-0.185-0.171-0.224c-0.093-0.039-0.199-0.027-0.279,0.034l-0.774,0.58c-1.743,1.303-3.081,1.808-4.208,1.596
	c-1.156-0.218-2.256-1.223-3.461-3.161l-0.48-0.773c-0.104-0.166-0.377-0.166-0.48,0l-0.48,0.773
	c-1.203,1.938-2.302,2.942-3.457,3.16c-1.129,0.213-2.465-0.294-4.208-1.595l-0.776-0.58c-0.081-0.061-0.188-0.073-0.279-0.034
	c-0.092,0.039-0.157,0.125-0.17,0.224l-0.124,0.96c-0.19,1.476-0.517,2.556-0.99,3.29c-1.546-0.404-3.132-0.621-4.728-0.621
	c-10.352,0-18.774,8.422-18.774,18.774c0,10.352,8.422,18.774,18.774,18.774c1.7,0,3.377-0.241,5.002-0.691
	c0.326,0.696,0.562,1.616,0.717,2.794l0.125,0.959c0.013,0.1,0.078,0.185,0.17,0.224c0.092,0.039,0.199,0.026,0.279-0.034
	l0.774-0.58c1.739-1.302,3.075-1.809,4.206-1.597c1.155,0.218,2.254,1.223,3.458,3.162l0.48,0.773
	c0.052,0.083,0.142,0.134,0.24,0.134s0.188-0.051,0.24-0.133l0.48-0.773c1.207-1.94,2.307-2.945,3.461-3.163
	c1.133-0.208,2.469,0.297,4.206,1.597l0.775,0.58c0.081,0.06,0.186,0.073,0.279,0.034c0.093-0.039,0.157-0.124,0.171-0.224
	l0.125-0.96c0.283-2.192,0.845-3.501,1.768-4.118c0.919-0.613,2.326-0.634,4.43-0.068l0.948,0.255
	c0.099,0.025,0.202-0.002,0.273-0.073c0.072-0.072,0.099-0.176,0.073-0.273l-0.255-0.948c-0.565-2.106-0.543-3.515,0.072-4.433
	c0.617-0.923,1.926-1.485,4.118-1.769l0.96-0.125c0.099-0.013,0.185-0.078,0.224-0.17c0.039-0.093,0.026-0.199-0.034-0.279
	l-0.58-0.776c-1.303-1.741-1.811-3.078-1.599-4.207c0.219-1.155,1.223-2.254,3.16-3.457l0.773-0.48
	c0.083-0.052,0.134-0.142,0.134-0.24S59.091,30.101,59.008,30.049z M27.867,48.244c0.137,0.054,0.275,0.108,0.413,0.159
	c0.262,0.097,0.526,0.185,0.791,0.27c0.091,0.029,0.179,0.065,0.27,0.092c-0.834,0.158-1.722,0.53-2.683,1.125
	c-0.144-0.666-0.323-1.245-0.541-1.755c0.016-0.006,0.032-0.013,0.048-0.019c0.039-0.015,0.08-0.033,0.119-0.048
	c0.195-0.077,0.391-0.154,0.593-0.241c0.081,0.037,0.164,0.067,0.245,0.103C27.369,48.041,27.617,48.145,27.867,48.244z
	 M40.531,11.814c0.837-0.155,1.722-0.528,2.69-1.128c0.241,1.116,0.584,2.008,1.046,2.709c-0.022-0.012-0.046-0.023-0.068-0.035
	c-0.183-0.1-0.369-0.195-0.556-0.289c-0.103-0.052-0.204-0.107-0.308-0.158c-0.281-0.136-0.566-0.266-0.855-0.389
	c-0.011-0.005-0.022-0.01-0.033-0.015c-0.301-0.127-0.605-0.246-0.913-0.359c-0.104-0.038-0.21-0.07-0.315-0.107
	c-0.205-0.071-0.41-0.142-0.618-0.206C40.578,11.83,40.555,11.821,40.531,11.814z M53.178,23.981
	c-0.033-0.095-0.063-0.192-0.097-0.286c-0.113-0.309-0.232-0.614-0.36-0.915c-0.006-0.015-0.013-0.029-0.02-0.044
	c-0.122-0.285-0.25-0.566-0.385-0.844c-0.048-0.099-0.101-0.196-0.151-0.294c-0.097-0.192-0.194-0.384-0.298-0.572
	c-0.012-0.021-0.022-0.043-0.033-0.064c0.701,0.461,1.594,0.804,2.71,1.046c-0.6,0.966-0.974,1.849-1.13,2.684
	c-0.007-0.022-0.015-0.043-0.022-0.065C53.326,24.41,53.252,24.195,53.178,23.981z M51.87,39.547c0.103-0.188,0.2-0.379,0.297-0.57
	c0.049-0.098,0.102-0.193,0.15-0.292c0.136-0.28,0.265-0.564,0.388-0.852c0.005-0.012,0.011-0.024,0.016-0.036
	c0.127-0.3,0.246-0.605,0.359-0.912c0.037-0.101,0.069-0.205,0.104-0.307c0.072-0.207,0.144-0.415,0.208-0.625
	c0.007-0.022,0.015-0.044,0.022-0.067c0.156,0.835,0.53,1.717,1.129,2.683c-1.115,0.241-2.007,0.583-2.707,1.044
	C51.848,39.59,51.859,39.568,51.87,39.547z M49.445,43c0.146-0.166,0.292-0.333,0.432-0.505c0.014-0.017,0.029-0.033,0.043-0.05
	c-0.164,0.817-0.146,1.764,0.051,2.876c-0.61-0.109-1.171-0.163-1.688-0.163c-0.424,0-0.819,0.037-1.188,0.111
	c0.017-0.014,0.034-0.03,0.051-0.044c0.172-0.141,0.339-0.287,0.506-0.433c0.075-0.066,0.153-0.129,0.227-0.197
	c0.478-0.432,0.934-0.888,1.367-1.366C49.315,43.154,49.379,43.076,49.445,43z M36.289,49.536c0.236-0.016,0.472-0.033,0.706-0.058
	c0.025-0.003,0.051-0.004,0.077-0.006c-0.731,0.481-1.432,1.189-2.133,2.146c-0.698-0.955-1.397-1.662-2.126-2.143
	c0.199,0.022,0.401,0.033,0.602,0.049c0.148,0.011,0.295,0.028,0.444,0.036c0.238,0.013,0.476,0.015,0.715,0.02
	c0.122,0.002,0.243,0.01,0.365,0.01c0.35,0,0.697-0.011,1.042-0.029C36.084,49.554,36.186,49.543,36.289,49.536z M33.826,11.023
	c-0.15,0.009-0.3,0.025-0.449,0.037c-0.191,0.015-0.383,0.026-0.574,0.048c0.732-0.481,1.435-1.189,2.135-2.148
	c0.701,0.958,1.403,1.665,2.135,2.146c-0.025-0.003-0.05-0.004-0.075-0.006c-0.239-0.026-0.481-0.043-0.722-0.06
	c-0.097-0.007-0.193-0.017-0.29-0.022c-0.347-0.019-0.696-0.029-1.047-0.029c-0.114,0-0.227,0.008-0.341,0.01
	C34.34,11.003,34.083,11.008,33.826,11.023z M34.029,47.867c-0.096-0.005-0.191-0.012-0.287-0.019
	c-0.209-0.014-0.418-0.031-0.626-0.052c-0.106-0.011-0.211-0.022-0.316-0.034c-0.216-0.026-0.43-0.057-0.644-0.091
	c-0.084-0.013-0.169-0.024-0.253-0.039c-0.288-0.05-0.574-0.107-0.859-0.171c-0.08-0.018-0.16-0.04-0.24-0.059
	c-0.212-0.051-0.424-0.105-0.634-0.165c-0.1-0.028-0.2-0.058-0.3-0.088c-0.2-0.06-0.399-0.124-0.597-0.192
	c-0.089-0.03-0.178-0.059-0.266-0.091c-0.041-0.015-0.081-0.032-0.122-0.047c0.12-0.07,0.233-0.148,0.352-0.221
	c0.201-0.122,0.401-0.245,0.596-0.374c0.106-0.071,0.209-0.146,0.314-0.219c4.329-2.998,7.23-7.702,7.936-12.94
	c0.014-0.101,0.021-0.203,0.034-0.305c0.036-0.303,0.073-0.605,0.094-0.911c0.03-0.424,0.047-0.851,0.047-1.278
	c0-0.446-0.018-0.89-0.05-1.332c-0.022-0.318-0.061-0.632-0.099-0.947c-0.013-0.106-0.021-0.213-0.036-0.319
	c-0.752-5.445-3.841-10.244-8.448-13.192c-0.1-0.065-0.198-0.132-0.3-0.195c-0.207-0.127-0.421-0.246-0.634-0.366
	c-0.133-0.075-0.261-0.157-0.396-0.228c0.063-0.026,0.125-0.054,0.188-0.079c0.118-0.046,0.237-0.091,0.356-0.135
	c0.185-0.068,0.372-0.132,0.559-0.194c0.131-0.043,0.262-0.087,0.394-0.128c0.192-0.059,0.386-0.111,0.581-0.163
	c0.189-0.051,0.379-0.099,0.57-0.144c0.222-0.052,0.445-0.102,0.669-0.145c0.145-0.028,0.29-0.05,0.435-0.075
	c0.18-0.03,0.36-0.059,0.54-0.083c0.14-0.019,0.281-0.036,0.422-0.052c0.203-0.023,0.407-0.041,0.611-0.056
	c0.117-0.009,0.233-0.019,0.349-0.026c0.323-0.018,0.646-0.03,0.97-0.03c9.709,0,17.607,7.897,17.607,17.604
	s-7.899,17.604-17.607,17.604C34.634,47.892,34.331,47.882,34.029,47.867z M54.126,32.413c0.003-0.026,0.004-0.053,0.007-0.079
	c0.023-0.214,0.038-0.431,0.053-0.648c0.009-0.123,0.022-0.244,0.028-0.368c0.018-0.341,0.028-0.685,0.028-1.03
	c0-0.347-0.01-0.692-0.028-1.035c-0.006-0.109-0.017-0.216-0.025-0.325c-0.016-0.232-0.033-0.464-0.057-0.693
	c-0.003-0.025-0.003-0.05-0.006-0.075c0.481,0.729,1.187,1.428,2.142,2.127C55.313,30.986,54.607,31.685,54.126,32.413z
	 M47.883,15.984c-0.083-0.075-0.169-0.146-0.253-0.219c-0.158-0.138-0.316-0.277-0.478-0.41c-0.019-0.015-0.036-0.032-0.055-0.047
	c0.817,0.164,1.763,0.145,2.876-0.052c-0.198,1.113-0.216,2.06-0.051,2.877c-0.015-0.019-0.032-0.036-0.047-0.055
	c-0.133-0.163-0.272-0.321-0.411-0.479c-0.073-0.084-0.144-0.17-0.219-0.252c-0.213-0.235-0.431-0.465-0.654-0.689
	c-0.012-0.012-0.025-0.024-0.037-0.036C48.335,16.403,48.111,16.191,47.883,15.984z M29.238,11.853
	c-0.097,0.03-0.193,0.063-0.289,0.094c-0.247,0.081-0.492,0.166-0.736,0.256c-0.097,0.036-0.194,0.071-0.291,0.109
	c-0.32,0.125-0.638,0.256-0.951,0.398c-0.044,0.02-0.086,0.042-0.13,0.062c-0.201,0.093-0.402,0.186-0.599,0.286
	c-0.117-0.045-0.236-0.089-0.355-0.133c0.328-0.618,0.583-1.356,0.773-2.239c0.97,0.601,1.855,0.974,2.693,1.129
	C29.314,11.827,29.276,11.841,29.238,11.853z M19.486,13.494c1.633,0,3.257,0.236,4.828,0.701c0.316,0.092,0.627,0.196,0.934,0.305
	c0.243,0.087,0.483,0.176,0.717,0.273l0.006,0.002c6.432,2.643,10.589,8.843,10.589,15.796c0,0.835-0.061,1.661-0.181,2.473
	c-0.776,5.276-4.003,9.944-8.725,12.521c-0.363,0.198-0.734,0.384-1.114,0.556c-0.653,0.295-1.27,0.534-1.889,0.729
	c-1.667,0.529-3.405,0.797-5.165,0.797c-9.417,0-17.078-7.661-17.078-17.077C2.409,21.155,10.07,13.494,19.486,13.494z
	 M41.237,48.528c0.099-0.034,0.2-0.065,0.298-0.101c0.308-0.112,0.614-0.232,0.914-0.36c0.011-0.005,0.022-0.01,0.033-0.015
	c0.289-0.123,0.575-0.253,0.856-0.39c0.094-0.046,0.186-0.096,0.279-0.143c0.197-0.099,0.393-0.199,0.586-0.305
	c0.021-0.011,0.042-0.021,0.062-0.033c-0.461,0.701-0.804,1.593-1.045,2.709c-0.966-0.601-1.849-0.974-2.684-1.13
	c0.022-0.007,0.044-0.015,0.066-0.022C40.816,48.673,41.027,48.6,41.237,48.528z"/>
</svg>
