<?xml version="1.0" encoding="utf-8"?>
<!-- Generator: Adobe Illustrator 25.2.1, SVG Export Plug-In . SVG Version: 6.00 Build 0)  -->
<svg version="1.1" id="Layer_1" xmlns="http://www.w3.org/2000/svg" xmlns:xlink="http://www.w3.org/1999/xlink" x="0px" y="0px"
	 viewBox="0 0 60 60" style="enable-background:new 0 0 60 60;" xml:space="preserve">
<g>
	<path d="M15.945,18.883v22.234c0,2.523,2.053,4.576,4.576,4.576h16.438c2.523,0,4.577-2.053,4.577-4.576V18.883
		c0-2.524-2.053-4.577-4.577-4.577H20.521C17.998,14.307,15.945,16.359,15.945,18.883z M20.521,16.085h16.438
		c1.542,0,2.798,1.255,2.798,2.798v22.234c0,1.542-1.255,2.798-2.798,2.798H20.521c-1.542,0-2.797-1.255-2.797-2.798V18.883
		C17.724,17.34,18.978,16.085,20.521,16.085z"/>
	<path d="M44.676,28.248c1.037,0,1.881-0.844,1.881-1.881v-8.191c0-1.037-0.844-1.881-1.881-1.881h-0.651
		c-0.116-2.488-1.934-4.537-4.318-5V6.792c0-3.154-2.566-5.72-5.72-5.72H23.494c-3.154,0-5.72,2.566-5.72,5.72v4.503
		c-2.464,0.478-4.331,2.649-4.331,5.251v26.907c0,2.602,1.867,4.773,4.331,5.251v4.503c0,3.154,2.566,5.72,5.72,5.72h10.493
		c3.154,0,5.72-2.566,5.72-5.72v-4.503c2.464-0.478,4.33-2.65,4.33-5.251v-0.155h0.639c1.037,0,1.881-0.844,1.881-1.881v-8.191
		c0-1.037-0.844-1.881-1.881-1.881h-0.639v-3.098H44.676z M23.494,2.851h10.493c2.173,0,3.941,1.768,3.941,3.941v4.403H19.552V6.792
		C19.552,4.619,21.321,2.851,23.494,2.851z M38.686,12.974c1.97,0,3.573,1.603,3.573,3.573v26.907c0,1.97-1.603,3.573-3.573,3.573
		H18.794c-1.97,0-3.573-1.603-3.573-3.573V16.546c0-1.97,1.603-3.573,3.573-3.573H38.686z M33.987,57.149H23.494
		c-2.173,0-3.941-1.768-3.941-3.941v-4.403h18.376v4.403C37.928,55.381,36.16,57.149,33.987,57.149z M44.038,33.125h0.639
		c0.057,0,0.102,0.046,0.102,0.102v8.191c0,0.056-0.046,0.102-0.102,0.102h-0.639V33.125z M44.038,18.074h0.639
		c0.057,0,0.102,0.046,0.102,0.102v8.191c0,0.056-0.046,0.102-0.102,0.102h-0.639V18.074z"/>
	<path d="M28.74,33.178c1.015,0,1.841-0.825,1.841-1.84c0-0.253-0.051-0.493-0.144-0.713l4.85-6.466
		c0.294-0.392,0.214-0.95-0.178-1.244c-0.39-0.294-0.95-0.214-1.246,0.177l-4.233,5.643V18.078c0-0.49-0.399-0.889-0.889-0.889
		s-0.889,0.399-0.889,0.889v11.659c-0.564,0.315-0.951,0.911-0.951,1.601C26.9,32.353,27.726,33.178,28.74,33.178z"/>
</g>
</svg>
