<?xml version="1.0" encoding="utf-8"?>
<!-- Generator: Adobe Illustrator 26.5.0, SVG Export Plug-In . SVG Version: 6.00 Build 0)  -->
<svg version="1.1" id="Layer_1" xmlns="http://www.w3.org/2000/svg" xmlns:xlink="http://www.w3.org/1999/xlink" x="0px" y="0px"
	 viewBox="0 0 60 60" style="enable-background:new 0 0 60 60;" xml:space="preserve">
<g>
	<path d="M7.1,58.8h8c3.3,0,6.6,0.2,9.8,0.5l5,0.5v0c0,0,0.1,0,0.1,0c0,0,0.1,0,0.1,0v0l5-0.5c3.2-0.3,6.5-0.5,9.8-0.5h8
		c0.3,0,0.5-0.1,0.7-0.3c0.2-0.2,0.3-0.4,0.3-0.7V22c0-0.3-0.1-0.5-0.3-0.7c-0.2-0.2-0.4-0.3-0.7-0.3h-1.8c-1.8,0-3.5,0.1-5.3,0.3
		l0.2,2c1.7-0.2,3.4-0.3,5-0.3h0.8v29.8h-0.8c-6.9,0-13.8,1.5-20.1,4.4V38h-2v19.3c-6.3-2.9-13.1-4.4-20.1-4.4H8.1V23h0.8
		c1.7,0,3.4,0.1,5,0.3l0.2-2c-1.7-0.2-3.5-0.3-5.3-0.3H7.1c-0.5,0-1,0.4-1,1v35.8c0,0.3,0.1,0.5,0.3,0.7S6.9,58.8,7.1,58.8L7.1,58.8
		z M51.1,54.9h0.8v2h-7c-2.7,0-5.5,0.1-8.3,0.3C41.3,55.7,46.2,54.9,51.1,54.9L51.1,54.9z M8.1,54.9h0.8c4.9,0,9.8,0.8,14.4,2.3
		c-2.7-0.2-5.5-0.3-8.3-0.3h-7L8.1,54.9z"/>
	<path d="M30,36c3.7,0,7.2-1.5,9.8-4.1c2.6-2.6,4.1-6.2,4.1-9.8s-1.5-7.2-4.1-9.8c-2.6-2.6-6.2-4.1-9.8-4.1s-7.2,1.5-9.8,4.1
		s-4.1,6.2-4.1,9.8c0,3.7,1.5,7.2,4.1,9.8S26.3,36,30,36z M30,10.1c3.2,0,6.2,1.3,8.4,3.5s3.5,5.3,3.5,8.4s-1.3,6.2-3.5,8.4
		S33.2,34,30,34s-6.2-1.3-8.4-3.5s-3.5-5.3-3.5-8.4c0-3.2,1.3-6.2,3.5-8.4C23.8,11.4,26.8,10.1,30,10.1z"/>
	<path d="M31,27h-2c-0.5,0-1-0.2-1.4-0.6S27,25.6,27,25h-2c0,1.1,0.4,2.1,1.2,2.8C26.9,28.6,28,29,29,29v2h2v-2c1.4,0,2.7-0.8,3.4-2
		c0.7-1.2,0.7-2.7,0-4c-0.7-1.2-2-2-3.4-2h-2c-0.7,0-1.4-0.4-1.7-1c-0.4-0.6-0.4-1.4,0-2c0.4-0.6,1-1,1.7-1h2c0.5,0,1,0.2,1.4,0.6
		c0.4,0.4,0.6,0.9,0.6,1.4h2c0-1.1-0.4-2.1-1.2-2.8c-0.7-0.7-1.8-1.2-2.8-1.2v-2h-2v2c-1.4,0-2.7,0.8-3.4,2c-0.7,1.2-0.7,2.7,0,4
		c0.7,1.2,2,2,3.4,2h2c0.7,0,1.4,0.4,1.7,1c0.4,0.6,0.4,1.4,0,2S31.7,27,31,27z"/>
	<path d="M22,37h2v7h-2V37z"/>
	<path d="M36,37h2v7h-2V37z"/>
	<path d="M41.9,33h2v6h-2V33z"/>
	<path d="M16.1,33h2v6h-2V33z"/>
	<path d="M42.5,6.3c1.8,0.5,3.1,1.9,3.6,3.6c0.2,0.4,0.5,0.6,0.9,0.6s0.8-0.2,0.9-0.6c0.5-1.8,1.9-3.1,3.6-3.6
		c0.4-0.2,0.6-0.5,0.6-0.9S52,4.6,51.7,4.4c-1.8-0.5-3.1-1.9-3.6-3.6c-0.2-0.4-0.5-0.6-0.9-0.6s-0.8,0.2-0.9,0.6
		c-0.5,1.8-1.9,3.1-3.6,3.6c-0.4,0.2-0.6,0.5-0.6,0.9S42.2,6.1,42.5,6.3L42.5,6.3z M47.1,3.4c0.5,0.8,1.2,1.5,2,2
		c-0.8,0.5-1.5,1.2-2,2c-0.5-0.8-1.2-1.5-2-2C45.9,4.8,46.6,4.2,47.1,3.4L47.1,3.4z"/>
	<path d="M7.3,9.2c1.8,0.5,3.1,1.9,3.6,3.6c0.2,0.4,0.5,0.6,0.9,0.6s0.8-0.2,0.9-0.6c0.5-1.8,1.9-3.1,3.6-3.6
		c0.4-0.2,0.6-0.5,0.6-0.9c0-0.4-0.2-0.8-0.6-0.9c-1.8-0.5-3.1-1.9-3.6-3.6c-0.2-0.4-0.5-0.6-0.9-0.6S11.1,3.4,11,3.8
		c-0.5,1.8-1.9,3.1-3.6,3.6C7,7.6,6.7,7.9,6.7,8.3C6.7,8.7,7,9.1,7.3,9.2z M11.9,6.4c0.5,0.8,1.2,1.5,2,2c-0.8,0.5-1.5,1.2-2,2
		c-0.5-0.8-1.2-1.5-2-2C10.7,7.8,11.4,7.2,11.9,6.4z"/>
</g>
</svg>
