<?xml version="1.0" encoding="utf-8"?>
<!-- Generator: Adobe Illustrator 25.2.1, SVG Export Plug-In . SVG Version: 6.00 Build 0)  -->
<svg version="1.1" id="Layer_1" xmlns="http://www.w3.org/2000/svg" xmlns:xlink="http://www.w3.org/1999/xlink" x="0px" y="0px"
	 viewBox="0 0 60 60" style="enable-background:new 0 0 60 60;" xml:space="preserve">
<g>
	<path d="M21.56,21.911h-2.708v-2.708c0-0.151-0.122-0.272-0.272-0.272h-4.926c-0.151,0-0.272,0.122-0.272,0.272v2.708h-2.708
		c-0.151,0-0.272,0.122-0.272,0.272v4.926c0,0.151,0.122,0.272,0.272,0.272h2.708v2.708c0,0.151,0.122,0.272,0.272,0.272h4.926
		c0.151,0,0.272-0.122,0.272-0.272v-2.708h2.708c0.151,0,0.272-0.122,0.272-0.272v-4.926C21.833,22.033,21.711,21.911,21.56,21.911z
		 M17.227,26.029v2.708h-2.221v-2.708c0-0.151-0.122-0.272-0.272-0.272h-2.708v-2.221h2.708c0.151,0,0.272-0.122,0.272-0.272v-2.708
		h2.221v2.708c0,0.151,0.122,0.272,0.272,0.272h2.708v2.221H17.5C17.349,25.757,17.227,25.879,17.227,26.029z"/>
	<path d="M44.672,23.262c1.381,0,2.505-1.124,2.505-2.506c0-1.382-1.124-2.506-2.505-2.506c-1.382,0-2.506,1.124-2.506,2.506
		C42.166,22.138,43.29,23.262,44.672,23.262z M44.672,19.876c0.486,0,0.881,0.395,0.881,0.881c0,0.486-0.395,0.881-0.881,0.881
		c-0.486,0-0.881-0.395-0.881-0.881C43.791,20.271,44.186,19.876,44.672,19.876z"/>
	<path d="M44.672,26.031c-1.382,0-2.506,1.124-2.506,2.506c0,1.382,1.124,2.506,2.506,2.506c1.381,0,2.505-1.124,2.505-2.506
		C47.178,27.155,46.054,26.031,44.672,26.031z M44.672,29.417c-0.486,0-0.881-0.395-0.881-0.881s0.395-0.881,0.881-0.881
		c0.486,0,0.881,0.395,0.881,0.881S45.158,29.417,44.672,29.417z"/>
	<path d="M43.336,24.642c0-1.382-1.124-2.506-2.505-2.506c-1.381,0-2.505,1.124-2.505,2.506s1.124,2.506,2.505,2.506
		C42.212,27.148,43.336,26.024,43.336,24.642z M40.831,25.523c-0.486,0-0.881-0.395-0.881-0.881s0.395-0.881,0.881-0.881
		s0.881,0.395,0.881,0.881S41.317,25.523,40.831,25.523z"/>
	<path d="M48.513,22.137c-1.381,0-2.505,1.124-2.505,2.506s1.124,2.506,2.505,2.506c1.382,0,2.506-1.124,2.506-2.506
		S49.895,22.137,48.513,22.137z M48.513,25.523c-0.486,0-0.881-0.395-0.881-0.881s0.395-0.881,0.881-0.881
		c0.486,0,0.881,0.395,0.881,0.881S48.999,25.523,48.513,25.523z"/>
	<path d="M58.988,36.157l-2.319-14.092c-0.149-0.908-0.419-1.82-0.799-2.705c-1.784-4.48-6.203-7.491-10.996-7.491H15.499
		c-4.793,0-9.21,3.005-10.987,7.471c-0.387,0.902-0.659,1.819-0.808,2.725L1.385,36.157c-0.598,3.629-0.553,6.438,0.135,8.588
		c0.904,2.823,2.915,4.51,5.975,5.013c0.226,0.038,0.46,0.056,0.697,0.056c0.002,0,0.003,0,0.005,0c2.543,0,5.704-2.152,9.394-6.395
		c2.793-3.211,5.075-6.698,5.823-7.877h13.546c1.693,2.671,9.384,14.271,15.22,14.271c0.238,0,0.473-0.019,0.699-0.056
		c3.06-0.503,5.07-2.19,5.975-5.013C59.541,42.595,59.585,39.786,58.988,36.157z M37.942,34.048c-0.049-0.081-0.137-0.13-0.232-0.13
		H22.661c-0.095,0-0.182,0.049-0.232,0.13l-0.157,0.256c-2.528,4.1-10.06,14.573-14.514,13.851c-2.443-0.402-3.978-1.68-4.691-3.906
		c-0.608-1.898-0.634-4.459-0.08-7.829l2.319-14.091c0.128-0.777,0.365-1.571,0.706-2.368c1.541-3.868,5.353-6.467,9.486-6.467
		h29.375c4.134,0,7.948,2.604,9.494,6.487c0.335,0.781,0.57,1.571,0.697,2.348l2.319,14.092c0.554,3.369,0.528,5.93-0.08,7.829
		c-0.712,2.226-2.246,3.503-4.69,3.906c-5.281,0.871-14.422-13.703-14.513-13.85L37.942,34.048z"/>
	<path d="M16.117,16.088c-4.719,0-8.559,3.839-8.559,8.559s3.839,8.559,8.559,8.559s8.559-3.84,8.559-8.559
		S20.836,16.088,16.117,16.088z M16.117,31.58c-3.823,0-6.934-3.111-6.934-6.934c0-3.823,3.11-6.934,6.934-6.934
		s6.934,3.111,6.934,6.934C23.05,28.47,19.94,31.58,16.117,31.58z"/>
	<path d="M53.231,24.646c0-4.719-3.839-8.559-8.559-8.559s-8.559,3.839-8.559,8.559s3.839,8.559,8.559,8.559
		S53.231,29.366,53.231,24.646z M44.672,31.58c-3.824,0-6.934-3.111-6.934-6.934c0-3.823,3.11-6.934,6.934-6.934
		s6.934,3.111,6.934,6.934C51.606,28.47,48.496,31.58,44.672,31.58z"/>
</g>
</svg>
