<?xml version="1.0" encoding="utf-8"?>
<!-- Generator: Adobe Illustrator 25.2.1, SVG Export Plug-In . SVG Version: 6.00 Build 0)  -->
<svg version="1.1" id="Layer_1" xmlns="http://www.w3.org/2000/svg" xmlns:xlink="http://www.w3.org/1999/xlink" x="0px" y="0px"
	 viewBox="0 0 60 60" style="enable-background:new 0 0 60 60;" xml:space="preserve">
<g>
	<path d="M24.655,43.324c0.243,0,0.47-0.042,0.674-0.125c0.389-0.155,0.683-0.444,0.85-0.835c0.468-1.101-0.227-2.819-1.279-5.419
		l-0.638-1.593c-1.036-2.608-1.721-4.332-2.818-4.804c-0.392-0.168-0.805-0.174-1.192-0.019c-0.875,0.349-1.459,1.439-1.646,3.068
		c-0.101,0.882-0.151,2.665,0.658,4.68C20.473,41.296,23.028,43.324,24.655,43.324z M20.629,33.829
		c0.057-0.493,0.159-0.851,0.254-1.09c0.436,0.721,1.096,2.382,1.488,3.367l0.641,1.6c0.396,0.981,1.075,2.658,1.252,3.476
		c-0.737-0.351-2.253-1.523-3.111-3.663C20.512,35.92,20.549,34.521,20.629,33.829z"/>
	<path d="M58.85,33.374l-13.896-8.022V9.406c0-0.121-0.065-0.233-0.17-0.294L30.127,0.649c-0.105-0.06-0.235-0.06-0.339,0
		L15.129,9.112c-0.105,0.061-0.17,0.173-0.17,0.294v15.946L1.15,33.325c-0.105,0.06-0.17,0.172-0.17,0.294v16.927
		c0,0.121,0.065,0.233,0.17,0.294l14.659,8.462c0.105,0.061,0.235,0.061,0.339,0l13.81-7.972l13.895,8.021
		c0.052,0.03,0.111,0.046,0.17,0.046s0.117-0.015,0.17-0.046l14.659-8.462c0.105-0.06,0.17-0.172,0.17-0.294V33.667
		C59.02,33.546,58.956,33.434,58.85,33.374z M31.061,47.956c3.169-0.233,6.177-1.536,8.503-3.688
		c2.753-2.55,4.347-6.018,4.491-9.767c0.063-1.647-0.509-3.791-1.7-6.373l1.668-0.963l12.961,7.484v14.965l-12.961,7.484
		l-12.961-7.484V47.956z M42.918,25.352l-1.511,0.873c-3.769-7.094-10.336-14.783-10.618-15.112l-0.509-0.593
		c-0.064-0.075-0.132-0.109-0.258-0.118c-0.098,0-0.191,0.042-0.255,0.115l-0.516,0.587c-0.29,0.33-7.056,8.06-10.8,15.089
		l-1.456-0.841V10.386l12.961-7.483l12.961,7.483V25.352z M17.541,28.018c-0.978,2.13-1.502,3.947-1.558,5.406
		c-0.288,7.505,5.497,13.958,12.955,14.534v1.606l-12.961,7.484L3.017,49.564V34.6l12.961-7.484L17.541,28.018z M30.007,13.357
		c2.57,3.134,12.232,15.321,12.012,21.065c-0.123,3.206-1.493,6.175-3.857,8.361c-2.37,2.191-5.425,3.324-8.601,3.18
		c-0.001,0-0.001,0-0.002,0c-3.2-0.122-6.164-1.487-8.347-3.844c-2.182-2.356-3.316-5.416-3.194-8.615
		C18.238,27.75,27.517,16.323,30.007,13.357z"/>
</g>
</svg>
