<?xml version="1.0" encoding="utf-8"?>
<!-- Generator: Adobe Illustrator 25.2.1, SVG Export Plug-In . SVG Version: 6.00 Build 0)  -->
<svg version="1.1" id="Layer_1" xmlns="http://www.w3.org/2000/svg" xmlns:xlink="http://www.w3.org/1999/xlink" x="0px" y="0px"
	 viewBox="0 0 60 60" style="enable-background:new 0 0 60 60;" xml:space="preserve">
<g>
	<path d="M17.448,44.952c-0.127-0.143-0.372-0.143-0.5,0l-0.499,0.565c-0.782,0.882-4.683,5.419-4.683,8.118
		c0,2.995,2.437,5.432,5.432,5.432s5.432-2.437,5.432-5.432c0-2.695-3.9-7.235-4.682-8.117L17.448,44.952z M17.198,57.063
		c-1.89,0-3.428-1.538-3.428-3.428c0-1.053,1.306-3.294,3.428-5.897c2.122,2.603,3.428,4.844,3.428,5.897
		C20.626,55.525,19.088,57.063,17.198,57.063z"/>
	<path d="M43.049,44.952c-0.127-0.143-0.372-0.143-0.5,0l-0.499,0.565c-0.782,0.882-4.683,5.419-4.683,8.118
		c0,2.995,2.437,5.432,5.432,5.432s5.432-2.437,5.432-5.432c0-2.695-3.9-7.235-4.682-8.117L43.049,44.952z M42.799,57.063
		c-1.89,0-3.428-1.538-3.428-3.428c0-1.053,1.306-3.294,3.428-5.897c2.122,2.603,3.428,4.844,3.428,5.897
		C46.227,55.525,44.689,57.063,42.799,57.063z"/>
	<path d="M30.442,39.887c-0.127-0.143-0.372-0.143-0.5,0l-0.499,0.565c-0.782,0.882-4.683,5.419-4.683,8.118
		c0,2.995,2.437,5.432,5.432,5.432s5.432-2.437,5.432-5.432c0-2.695-3.9-7.235-4.682-8.118L30.442,39.887z M30.193,51.999
		c-1.89,0-3.428-1.538-3.428-3.428c0-1.055,1.307-3.296,3.43-5.899c1.745,2.146,3.426,4.722,3.426,5.899
		C33.621,50.46,32.083,51.999,30.193,51.999z"/>
	<path d="M52.175,19.8l-0.002-0.067c-0.023-0.811-0.047-1.645-0.047-2.498c0-8.666-7.05-15.717-15.717-15.717
		c-5.235,0-10.078,2.582-13.007,6.921c-1.335-0.456-2.727-0.649-4.143-0.576C13.451,8.171,8.85,13.11,8.785,19.109
		c-0.001,0.119-0.003,0.238-0.007,0.356c-4.201,1.038-7.339,4.999-7.339,9.323v0.402c0,5.298,4.31,9.608,9.608,9.608h37.759
		c5.298,0,9.608-4.31,9.608-9.608v-0.402C58.414,24.857,55.86,21.195,52.175,19.8z M10.429,21.2
		c0.156-0.024,0.273-0.153,0.282-0.311l0.031-0.538c0.024-0.401,0.042-0.808,0.046-1.221c0.053-4.945,3.82-9.014,8.576-9.264
		c0.162-0.008,0.323-0.013,0.483-0.013c1.223,0,2.423,0.248,3.565,0.737l0.535,0.228c0.151,0.065,0.331,0.008,0.417-0.135l0.3-0.498
		c2.509-4.172,6.9-6.662,11.743-6.662c7.562,0,13.713,6.152,13.713,13.713c0,0.848,0.023,1.679,0.047,2.554l0.034,1.252
		c0.004,0.145,0.101,0.271,0.241,0.311l0.468,0.136c3.237,0.942,5.499,3.943,5.499,7.299v0.402c0,4.193-3.411,7.604-7.604,7.604
		H11.047c-4.193,0-7.604-3.411-7.604-7.604v-0.402c0-3.712,2.774-6.939,6.453-7.505L10.429,21.2z"/>
</g>
</svg>
