<?xml version="1.0" encoding="utf-8"?>
<!-- Generator: Adobe Illustrator 25.2.1, SVG Export Plug-In . SVG Version: 6.00 Build 0)  -->
<svg version="1.1" id="Layer_1" xmlns="http://www.w3.org/2000/svg" xmlns:xlink="http://www.w3.org/1999/xlink" x="0px" y="0px"
	 viewBox="0 0 60 60" style="enable-background:new 0 0 60 60;" xml:space="preserve">
<g>
	<path d="M57.271,22.515c-0.097-0.11-0.285-0.109-0.382,0l-0.382,0.432c-0.412,0.467-1.758,2.072-1.758,3.142
		c0,1.286,1.046,2.332,2.332,2.332s2.332-1.046,2.332-2.332c0-1.069-1.346-2.676-1.759-3.143L57.271,22.515z M57.08,26.89
		c-0.442,0-0.801-0.359-0.801-0.801c0-0.154,0.25-0.682,0.801-1.42c0.551,0.738,0.802,1.266,0.802,1.42
		C57.882,26.531,57.522,26.89,57.08,26.89z"/>
	<path d="M30.213,22.515c-0.097-0.11-0.285-0.109-0.382,0l-0.382,0.432c-0.412,0.467-1.758,2.072-1.758,3.142
		c0,1.286,1.046,2.332,2.332,2.332s2.332-1.046,2.332-2.332c0-1.069-1.346-2.676-1.759-3.143L30.213,22.515z M30.022,26.89
		c-0.442,0-0.801-0.359-0.801-0.801c0-0.155,0.25-0.682,0.801-1.42c0.551,0.738,0.801,1.266,0.801,1.42
		C30.823,26.531,30.464,26.89,30.022,26.89z"/>
	<path d="M3.106,28.42c1.286,0,2.332-1.046,2.332-2.332c0-1.069-1.346-2.676-1.759-3.143l-0.382-0.431
		c-0.097-0.11-0.285-0.109-0.382,0l-0.382,0.432c-0.412,0.467-1.758,2.072-1.758,3.142C0.774,27.375,1.82,28.42,3.106,28.42z
		 M3.106,26.89c-0.442,0-0.801-0.359-0.801-0.801c0-0.155,0.25-0.682,0.801-1.42c0.551,0.738,0.801,1.266,0.801,1.42
		C3.907,26.531,3.547,26.89,3.106,26.89z"/>
	<path d="M58.198,47.679H44.912c-0.043-0.021-0.084-0.042-0.127-0.062c0.067,0.003,0.135,0.008,0.202,0.008
		c0.687,0,1.34-0.139,1.941-0.415c2.676-1.225,3.416-4.699,3.446-4.846l0.199-0.968c0.019-0.094-0.015-0.19-0.09-0.25
		c-0.074-0.06-0.176-0.074-0.263-0.035l-0.902,0.398c-0.009,0.004-0.921,0.381-2.115,0.15c-1.492-0.284-3.499,0.642-4.879,2.045
		c0.037-0.085,0.065-0.166,0.111-0.254c0.485-0.944,1.319-1.667,2.126-2.368c1.193-1.035,2.514-2.189,2.486-4.058
		c2.163-0.441,3.628-1.391,4.339-2.842c1.242-2.539-0.366-5.552-0.435-5.679l-0.456-0.837c-0.045-0.082-0.123-0.116-0.226-0.133
		c-0.094,0.001-0.18,0.053-0.224,0.136l-0.442,0.84c-0.005,0.009-0.489,0.874-1.563,1.434c-1.875,0.977-3.391,3.726-2.658,6.261
		c0.002,0.006,0.006,0.01,0.008,0.016c0.003,0.014,0.004,0.028,0.008,0.042c0.469,1.661-0.501,2.502-1.843,3.666
		c-0.061,0.053-0.123,0.107-0.185,0.161c-0.172-2.08-1.539-3.885-2.836-4.58c-1.075-0.576-1.527-1.416-1.544-1.448l-0.453-0.886
		c-0.044-0.085-0.131-0.139-0.227-0.139c0,0,0,0,0,0c-0.095,0-0.183,0.053-0.227,0.138l-0.455,0.883
		c-0.069,0.133-1.664,3.275-0.356,5.912c0.667,1.346,1.942,2.275,3.802,2.778c0,0.001-0.001,0.001-0.001,0.002
		c-0.581,1.13-0.705,2.141-0.38,3.092c0.225,0.658,0.674,1.266,1.345,1.838H19.224c0.671-0.571,1.12-1.18,1.345-1.838
		c0.325-0.95,0.201-1.962-0.38-3.091c0,0,0,0,0,0c1.854-0.501,3.133-1.431,3.801-2.778c1.308-2.638-0.287-5.78-0.355-5.911
		l-0.458-0.89c-0.044-0.085-0.131-0.138-0.227-0.138c0,0-0.001,0-0.001,0c-0.096,0-0.184,0.054-0.227,0.14l-0.449,0.889
		c-0.004,0.008-0.469,0.873-1.545,1.449c-1.297,0.694-2.664,2.5-2.836,4.579c-0.063-0.055-0.126-0.11-0.188-0.164
		c-1.34-1.162-2.308-2.002-1.839-3.662c0.004-0.014,0.004-0.028,0.008-0.042c0.002-0.006,0.007-0.01,0.009-0.017
		c0.732-2.535-0.784-5.284-2.659-6.261c-1.074-0.559-1.558-1.425-1.561-1.43l-0.444-0.845c-0.044-0.083-0.13-0.135-0.224-0.136
		c0,0-0.001,0-0.002,0c-0.093,0-0.179,0.051-0.224,0.133l-0.456,0.838c-0.069,0.127-1.677,3.139-0.434,5.678
		c0.709,1.448,2.169,2.397,4.339,2.841c-0.029,1.87,1.293,3.024,2.489,4.062c0.805,0.698,1.638,1.421,2.122,2.364
		c0.045,0.088,0.073,0.169,0.11,0.253c-1.38-1.403-3.385-2.328-4.88-2.044c-1.187,0.233-2.104-0.146-2.111-0.149l-0.906-0.399
		c-0.087-0.037-0.189-0.024-0.263,0.035c-0.074,0.06-0.109,0.156-0.089,0.25l0.2,0.968c0.03,0.147,0.771,3.621,3.447,4.846
		c0.601,0.276,1.254,0.415,1.941,0.415c0.066,0,0.134-0.006,0.201-0.008c-0.042,0.021-0.083,0.042-0.127,0.062H1.846
		c-0.422,0-0.765,0.343-0.765,0.765c0,0.422,0.343,0.765,0.765,0.765h56.351c0.422,0,0.765-0.343,0.765-0.765
		C58.963,48.022,58.619,47.679,58.198,47.679z M22.713,35.942c0.251,0.894,0.457,2.237-0.094,3.348
		c-0.496,1-1.545,1.692-3.121,2.059c-0.442-1.904,0.803-3.875,1.953-4.491C21.916,36.609,22.339,36.302,22.713,35.942z
		 M11.21,30.367c0.385,0.369,0.823,0.681,1.306,0.933c1.244,0.648,2.306,2.504,1.958,4.224c-1.651-0.344-2.734-1.02-3.221-2.013
		C10.742,32.471,10.956,31.21,11.21,30.367z M12.784,43.246c0.518,0.044,1.042,0.016,1.565-0.084c1.11-0.215,3.133,0.79,4.138,2.378
		c-1.368,0.626-2.549,0.721-3.513,0.279C13.84,45.3,13.152,44.109,12.784,43.246z M46.914,43.162c0.521,0.1,1.046,0.128,1.564,0.084
		c-0.368,0.864-1.056,2.055-2.19,2.573c-0.965,0.443-2.147,0.348-3.513-0.279C43.781,43.948,45.804,42.943,46.914,43.162z
		 M38.55,35.943c0.373,0.359,0.796,0.666,1.261,0.915c1.15,0.617,2.395,2.587,1.953,4.491c-1.575-0.367-2.624-1.058-3.12-2.057
		C38.093,38.183,38.299,36.838,38.55,35.943z M48.747,31.3c0.483-0.251,0.921-0.564,1.306-0.933
		c0.253,0.843,0.467,2.103-0.043,3.144c-0.487,0.993-1.57,1.669-3.221,2.013C46.441,33.805,47.503,31.948,48.747,31.3z"/>
	<path d="M1.478,22.222h3.255c0.141,0,0.255-0.114,0.255-0.255v-7.084H28.21v7.084c0,0.141,0.114,0.255,0.255,0.255h3.255
		c0.141,0,0.255-0.114,0.255-0.255v-7.084h23.223v7.084c0,0.141,0.114,0.255,0.255,0.255h3.255c0.141,0,0.255-0.114,0.255-0.255
		v-8.359c0-0.141-0.114-0.255-0.255-0.255h-0.255h-3H31.72h-3.255H4.733H1.591H1.478c-0.141,0-0.255,0.114-0.255,0.255v8.359
		C1.223,22.108,1.337,22.222,1.478,22.222z M56.728,14.883h0.704v5.809h-0.704V14.883z M29.741,14.883h0.704v5.809h-0.704V14.883z
		 M2.753,14.883h0.704v5.809H2.753V14.883z"/>
</g>
</svg>
