<?xml version="1.0" encoding="utf-8"?>
<!-- Generator: Adobe Illustrator 26.1.0, SVG Export Plug-In . SVG Version: 6.00 Build 0)  -->
<svg version="1.1" id="Layer_1" xmlns="http://www.w3.org/2000/svg" xmlns:xlink="http://www.w3.org/1999/xlink" x="0px" y="0px"
	 viewBox="0 0 589 593" style="enable-background:new 0 0 589 593;" xml:space="preserve">
<g>
	<path d="M553.4,354l-66.6-12.5c10.3-26.6,15.5-54.6,15.5-83.3c0-10.9-0.8-22-2.3-32.8l-0.4-2.8c16.8-4.9,30.3-17.9,35.4-35.1
		c21.9-6.6,37.3-26.8,37.3-50.2c0-15.8-7-30.4-19-40.3c1-4.1,1.5-8.1,1.5-12.2c0-29-23.5-52.5-52.5-52.5c-9.1,0-17.9,2.4-25.8,6.9
		c-9.5-15-26.1-24.4-44.2-24.4c-15.8,0-30.4,7-40.3,19c-4.1-1-8.1-1.5-12.2-1.5c-29,0-52.5,23.5-52.5,52.5c0,4.1,0.5,8.1,1.5,12.2
		c-12,9.9-19,24.6-19,40.3c0,30,25.4,54.4,55.6,52.4c7.2,20.8,26.9,35.1,49.4,35.1c0.8,0,1.5-0.2,2.3-0.2l-0.9,4.8
		c-3.9,21.5-11.2,41.9-21.3,61.1l-4.5-5.4c-31.9-38.3-78.8-60.3-128.7-60.3c-9.2,0-18.5,0.8-27.5,2.3l-32,5.3l-40.1-127
		c-7.2-22.8-28.1-38.1-52-38.1c-14.6,0-28.3,5.7-38.6,16l-31.8,31.8c-6.3,6.3-9.8,14.7-9.8,23.7c0,18.5,15,33.5,33.5,33.5H92
		c4.1,0,8.1-0.7,12-1.8c15.4,52.1,27.3,105.4,35.4,159.3H47.2c-9.7,0-17.5,7.8-17.5,17.5v192.5c0,9.7,7.8,17.5,17.5,17.5h472.5
		c9.7,0,17.5-7.8,17.5-17.5v-140h11.9c12.7,0,23.1-10.4,23.1-23.1C572.2,365.6,564.3,356,553.4,354L553.4,354z M380.4,178.4l-1.6-9
		l-8.9,2c-2.7,0.6-5.2,0.9-7.6,0.9c-19.3,0-35-15.7-35-35c0-12,6.1-23,16.4-29.5l6.1-3.8l-2.6-6.7c-1.6-4.2-2.4-8.4-2.4-12.4
		c0-23.4,23.6-41.7,47.4-32.6l6.7,2.6l3.8-6.1c6.5-10.3,17.5-16.4,29.5-16.4c14.5,0,27.7,9.3,32.7,23l4.4,12.1l9.6-8.6
		c6.5-5.8,14.8-9,23.2-9c19.3,0,35,15.7,35,35c0,4.1-0.8,8.3-2.4,12.4l-2.6,6.7l6.1,3.8c10.3,6.5,16.4,17.5,16.4,29.5
		c0,16.8-12,31.3-28.6,34.3l-5.9,1.1l-1.1,5.9c-3,16.6-17.5,28.6-34.3,28.6c-11.1,0-21.3-5.2-28-14.2l-7-9.4l-7,9.4
		c-6.7,9-16.9,14.2-28,14.2C397.8,207.3,383.3,195.1,380.4,178.4L380.4,178.4z M433.4,232.4l2.2-12.2c5.1-2.2,9.9-5.2,14.1-9
		c8.9,8.1,20.2,12.7,32.4,13.3l0.5,3.3c0.7,4.8,1.2,9.6,1.5,14.5h-34.4v17.5h35c0,5.9-0.3,11.7-0.9,17.5h-34.1v17.5h31.8
		c-2.6,14.8-6.7,29.3-12.3,43.3c-23.6-4.9-45.2-16.6-62.1-33.6C419.8,282,428.7,257.9,433.4,232.4L433.4,232.4z M47.2,539.8v-17.5
		h472.5v17.5H47.2z M519.7,504.8H47.2V347.3h94.5c0.8,5.8,1.6,11.7,2.3,17.5H91c-14.5,0-26.2,11.8-26.2,26.2s11.8,26.2,26.2,26.2
		h17.5c4.8,0,8.8,3.9,8.8,8.8s-3.9,8.8-8.8,8.8c-14.5,0-26.2,11.8-26.2,26.2s11.8,26.2,26.2,26.2h306.2c19.3,0,35-15.7,35-35
		s-15.7-35-35-35h-17.5v17.5h17.5c9.7,0,17.5,7.8,17.5,17.5s-7.8,17.5-17.5,17.5H108.5c-4.8,0-8.8-3.9-8.8-8.8s3.9-8.8,8.8-8.8
		c14.5,0,26.2-11.8,26.2-26.2s-11.8-26.2-26.2-26.2H91c-4.8,0-8.8-3.9-8.8-8.8s3.9-8.8,8.8-8.8h55c0.2,1.8,0.4,3.7,0.6,5.5l4.1,40.8
		c1.4,13.5,12.6,23.6,26.1,23.6H196c14.5,0,26.2-11.8,26.2-26.2v-26.2h87.5V426c0,14.5,11.8,26.2,26.2,26.2h17.5
		c14.5,0,26.2-11.8,26.2-26.2v-26.2h140V504.8z M549.1,382.3H379.7v-17.5h-17.5V426c0,4.8-3.9,8.8-8.8,8.8H336
		c-4.8,0-8.8-3.9-8.8-8.8v-41.7c0-15.4-8.6-29.2-22.3-36.1l-7.8,15.7c7.2,3.6,11.7,10.6,12.4,18.4h-87.2v-17.5h-17.5V426
		c0,4.8-3.9,8.8-8.8,8.8h-19.2c-4.5,0-8.3-3.4-8.7-7.9l-4.1-40.8c-7.6-75.7-22.5-151-44.2-223.9c6.2-5.1,11-11.8,13.7-19.8l0.8-2.3
		l-16.6-5.5l-0.8,2.3c-3.6,10.7-13.6,18-24.9,18H63.2c-8.8,0-16-7.2-16-16c0-4.3,1.7-8.3,4.7-11.3l31.8-31.8
		c7-7,16.3-10.8,26.2-10.8c16.2,0,30.4,10.4,35.3,25.9l41.1,130.3l-15.2,22.8l14.6,9.7l15.4-23.1l35.8-6c8.1-1.3,16.4-2,24.7-2
		c44.7,0,86.7,19.7,115.2,54l9.7,11.6c20.8,25,49.8,42,81.8,48l81.9,15.4c2.7,0.5,4.6,2.8,4.6,5.5
		C554.8,379.7,552.2,382.3,549.1,382.3L549.1,382.3z"/>
	<path d="M117.2,111c0,4.8-3.9,8.8-8.8,8.8s-8.8-3.9-8.8-8.8s3.9-8.8,8.8-8.8S117.2,106.2,117.2,111"/>
</g>
</svg>
