<?xml version="1.0" encoding="utf-8"?>
<!-- Generator: Adobe Illustrator 25.2.1, SVG Export Plug-In . SVG Version: 6.00 Build 0)  -->
<svg version="1.1" id="Layer_1" xmlns="http://www.w3.org/2000/svg" xmlns:xlink="http://www.w3.org/1999/xlink" x="0px" y="0px"
	 viewBox="0 0 60 60" style="enable-background:new 0 0 60 60;" xml:space="preserve">
<g>
	<path d="M59.091,32.996c-0.036-0.167-0.072-0.335-0.109-0.501c-0.229-1.024-0.767-1.972-1.644-2.894
		c-1.028-1.083-2.335-2.003-4.112-2.895c-2.44-1.224-5.2-2.151-8.437-2.834c-1.608-0.34-3.275-0.632-5.095-0.894
		c-2.391-0.344-4.914-0.543-7.713-0.608c-0.168-0.004-0.19-0.011-0.205-0.175c-0.178-2.007-0.033-4.137,0.443-6.512
		c0.191-0.949,0.433-1.906,0.665-2.832c0.076-0.299,0.151-0.598,0.225-0.897c0.122-0.495,0.084-0.707-0.387-0.989l-0.03-0.018
		l-0.409,0.001l-0.348,0.041c-0.254,0.03-0.507,0.06-0.762,0.087c-0.206,0.022-0.414,0.039-0.622,0.055
		c-0.494,0.038-0.65,0.161-0.797,0.631l-0.613,1.968c-0.877,2.818-1.755,5.636-2.625,8.456c-0.058,0.189-0.111,0.229-0.315,0.238
		c-5.192,0.229-9.75,0.905-13.932,2.064c-2.944,0.817-5.256,1.752-7.276,2.946c-1.495,0.883-2.57,1.777-3.386,2.814
		c-0.675,0.859-1.064,1.727-1.19,2.652c-0.003,0.026-0.013,0.053-0.021,0.08L0.375,33.05l0.003,4.405l0.033,0.161
		c0.027,0.13,0.054,0.26,0.084,0.389c0.263,1.13,0.887,2.151,1.908,3.123c0.29,0.276,0.613,0.523,0.924,0.763
		c0.142,0.108,0.283,0.217,0.444,0.343c0.155,0.114,0.253,0.181,0.345,0.199l-0.043,0.052l0.309,0.201
		c0.152,0.1,0.3,0.197,0.452,0.289c1.669,1.008,3.551,1.827,5.923,2.578c2.827,0.895,5.914,1.546,9.438,1.991
		c1.476,0.187,3.022,0.333,4.676,0.44v0.146l7.907-0.001v-0.062c0.095-0.005,0.189-0.01,0.284-0.015
		c0.854-0.046,1.707-0.092,2.56-0.15c2.957-0.203,5.852-0.601,8.603-1.183c3.222-0.679,5.818-1.496,8.171-2.571
		c1.856-0.848,3.252-1.723,4.393-2.755c1.096-0.991,1.761-1.963,2.094-3.057c0.062-0.2,0.105-0.407,0.147-0.606
		c0.02-0.092,0.039-0.183,0.063-0.302L59.091,32.996z M4.472,41.197c-0.161-0.146-0.325-0.29-0.489-0.435
		c-0.331-0.289-0.672-0.589-0.98-0.906c-0.735-0.759-1.151-1.549-1.271-2.416c-0.025-0.176-0.032-0.359-0.039-0.554
		c0.894,1.099,2.065,2.026,3.769,2.988c0.158,0.089,0.319,0.173,0.48,0.258l0.101,0.054c0.059,0.035,0.138,0.083,0.223,0.047
		c0.082-0.03,0.126-0.006,0.231,0.08c0.051,0.042,0.109,0.09,0.179,0.12c0.071,0.03,0.139,0.077,0.211,0.128
		c0.075,0.053,0.152,0.107,0.24,0.147c2.292,1.04,4.798,1.837,7.89,2.505c2.227,0.481,4.562,0.839,7.14,1.092
		c3.488,0.343,7.128,0.443,10.818,0.298c4.052-0.159,7.733-0.598,11.254-1.342c2.951-0.623,5.462-1.395,7.677-2.356
		c2.021-0.877,3.458-1.737,4.66-2.791c0.341-0.298,0.661-0.629,0.972-0.948c0.079-0.082,0.159-0.164,0.239-0.247
		c0.001,0.393-0.056,0.762-0.168,1.1c-0.299,0.893-0.876,1.686-1.814,2.496c-1.177,1.019-2.59,1.846-4.581,2.683
		c-2.43,1.021-5.184,1.815-8.418,2.428c-1.102,0.208-2.277,0.423-3.471,0.569c-1.457,0.177-2.984,0.324-4.669,0.45
		c-2.134,0.161-4.394,0.204-6.907,0.139c-4.539-0.121-8.664-0.602-12.611-1.471c-3.105-0.684-5.57-1.481-7.758-2.51
		c-0.479-0.225-0.952-0.488-1.41-0.743c-0.26-0.145-0.519-0.289-0.781-0.428c-0.085-0.045-0.176-0.079-0.268-0.112
		c-0.087-0.032-0.17-0.062-0.245-0.104c-0.032-0.018-0.065-0.06-0.101-0.104C4.542,41.271,4.509,41.231,4.472,41.197z
		 M24.698,32.472c0.011-0.039,0.022-0.077,0.033-0.114l5.366-17.265l0.206-0.66c0.196-0.631,0.394-1.262,0.585-1.894
		c0.036-0.117,0.064-0.133,0.156-0.134c0.169-0.001,0.335-0.019,0.511-0.038c0.024-0.002,0.049-0.005,0.073-0.008
		c-0.016,0.073-0.031,0.141-0.05,0.209c-0.735,2.776-1.11,5.113-1.181,7.355c-0.089,2.838,0.367,5.223,1.396,7.289
		c0.592,1.187,1.4,2.271,2.406,3.225c0.028,0.026,0.058,0.053,0.089,0.08L24.698,32.472z M33.283,26.015
		c0.531,0.024,1.051,0.048,1.57,0.081c2.557,0.163,4.838,0.422,6.972,0.793c3.187,0.555,5.564,1.206,7.709,2.111
		c1.027,0.433,2.209,0.998,3.187,1.903c0.42,0.389,0.863,0.88,0.964,1.583c0.063,0.435-0.052,0.851-0.359,1.311
		c-0.413,0.616-1.007,1.061-1.588,1.448c-0.011,0.002-0.045-0.003-0.085-0.016c-3.058-0.965-6.114-1.932-9.171-2.897l-2.09-0.661
		c-1.398-0.442-2.797-0.885-4.195-1.329c-0.059-0.019-0.132-0.045-0.183-0.084c-1.5-1.159-2.616-2.596-3.318-4.27L33.283,26.015z
		 M35.867,31.622c5.566,1.759,11.132,3.521,16.696,5.285c0.812,0.257,1.625,0.514,2.438,0.772l-0.097,0.064
		c-0.278,0.185-0.542,0.359-0.805,0.525c-0.021,0.004-0.092-0.006-0.13-0.013l-15.596-2.88l-10.447-1.929
		c-0.249-0.046-0.497-0.091-0.746-0.136l2.944-0.598c1.812-0.37,3.623-0.74,5.435-1.105C35.661,31.588,35.777,31.594,35.867,31.622z
		 M23.167,33.688c0.101,0.168,0.292,0.273,0.604,0.333c0.655,0.126,1.311,0.249,1.968,0.362c0.23,0.04,0.46,0.073,0.691,0.107
		c0.209,0.03,0.419,0.061,0.629,0.096c0.073,0.013,0.145,0.035,0.216,0.058c0.083,0.026,0.169,0.054,0.26,0.067
		c0.098,0.019,0.195,0.003,0.272-0.009c0.012-0.002,0.024-0.004,0.036-0.005c0.012,0.007,0.023,0.015,0.034,0.021
		c0.056,0.036,0.12,0.077,0.196,0.092c1.002,0.189,2.004,0.375,3.007,0.56l13.624,2.518c-2.006,0.472-4.148,0.83-6.538,1.094
		c-3.396,0.374-6.867,0.512-10.624,0.419c-2.674-0.065-5.133-0.25-7.515-0.563c-3.824-0.502-6.706-1.167-9.343-2.156
		c-1.527-0.572-2.618-1.145-3.534-1.854c-0.557-0.431-0.927-0.847-1.165-1.309c-0.337-0.653-0.28-1.29,0.174-1.946
		c0.522-0.756,1.265-1.259,1.923-1.651c1.172-0.701,2.501-1.261,4.309-1.815c2.317-0.71,4.779-1.224,7.315-1.525
		c1.282-0.152,2.591-0.267,3.857-0.378c0.562-0.049,1.125-0.099,1.687-0.151c0.017-0.002,0.035-0.002,0.052-0.002l-2.146,6.949
		C23.062,33.301,23.066,33.52,23.167,33.688z M57.11,35.558c-0.189,0.286-0.426,0.556-0.653,0.815
		c-0.072,0.083-0.145,0.166-0.217,0.25c-0.014,0.017-0.062,0.04-0.072,0.042c-0.788-0.244-1.574-0.495-2.354-0.743l-0.519-0.166
		c0.064-0.064,0.129-0.128,0.193-0.191c0.247-0.244,0.48-0.475,0.695-0.732c1.095-1.312,1.115-2.837,0.056-4.185
		c-0.574-0.729-1.326-1.335-2.438-1.964c-1.537-0.869-3.267-1.538-5.607-2.167c-2.898-0.78-5.982-1.296-9.427-1.579
		c-1.104-0.091-2.23-0.15-3.318-0.207c-0.375-0.02-0.75-0.039-1.125-0.06c-0.101-0.006-0.104-0.02-0.117-0.081
		c-0.053-0.241-0.111-0.479-0.172-0.729l-0.042-0.173c0.061,0,0.116,0,0.171,0.001c3.094,0.089,6.149,0.38,9.081,0.864
		c4.03,0.665,7.255,1.55,10.146,2.784c1.817,0.776,3.188,1.581,4.311,2.531c0.994,0.842,1.575,1.622,1.886,2.526
		C57.955,33.465,57.795,34.529,57.11,35.558z M26.001,23.809c-0.096,0.309-0.186,0.6-0.284,0.888
		c-0.015,0.007-0.04,0.015-0.059,0.016c-0.384,0.028-0.768,0.053-1.152,0.078c-0.674,0.044-1.372,0.089-2.056,0.151
		c-4.47,0.406-8.027,1.082-11.194,2.127c-1.971,0.65-3.395,1.332-4.617,2.21c-0.665,0.478-1.485,1.158-1.922,2.182
		c-0.487,1.138-0.311,2.256,0.524,3.325c0.735,0.939,1.715,1.549,2.486,1.975c1.466,0.808,3.122,1.438,5.369,2.044
		c1.965,0.528,4.097,0.944,6.516,1.271c3.563,0.482,7.333,0.71,11.183,0.662c0.728-0.008,1.283-0.021,1.802-0.04
		c3.502-0.131,6.624-0.44,9.543-0.948c1.972-0.343,3.743-0.757,5.415-1.264c0.094-0.028,0.19-0.036,0.27-0.023
		c1.352,0.245,2.703,0.495,4.054,0.746l0.362,0.067c-2.705,1.275-5.47,2.019-7.832,2.577l-0.15,0.036l0.022,0.048
		c-0.127-0.05-0.219-0.026-0.41,0.04l-0.107,0.038c-0.105-0.02-0.208,0.001-0.271,0.012l-0.352,0.067
		c-0.778,0.148-1.584,0.302-2.379,0.428c-3.48,0.546-7.158,0.825-10.93,0.829c-0.03,0-0.06,0-0.09,0
		c-2.513,0-5.008-0.123-7.416-0.365c-2.999-0.303-5.723-0.761-8.33-1.397c-1.871-0.457-3.714-1.042-5.481-1.739
		c-1.701-0.67-3.175-1.496-4.506-2.526C3,36.542,2.354,35.755,1.975,34.847c-0.512-1.229-0.342-2.418,0.518-3.637
		c0.622-0.881,1.459-1.626,2.717-2.416c1.745-1.097,3.721-1.948,6.407-2.761c2.738-0.829,5.673-1.432,8.726-1.792
		c1.165-0.138,2.355-0.238,3.507-0.335c0.471-0.04,0.941-0.079,1.412-0.122c0.202-0.018,0.404-0.029,0.619-0.042l0.145-0.008
		L26.001,23.809z"/>
	<path d="M21.692,28.039c-0.27-0.209-0.608-0.38-0.953-0.482c-0.99-0.291-2.043-0.306-3.128-0.044
		c-0.478,0.116-0.833,0.287-1.116,0.54c-0.265,0.236-0.411,0.541-0.412,0.857c0,0.306,0.137,0.598,0.387,0.823
		c0.184,0.166,0.427,0.313,0.702,0.426c0.658,0.271,1.341,0.328,2.241,0.328c0.01,0,0.019,0,0.028,0
		c0.063-0.009,0.139-0.018,0.222-0.028c0.226-0.027,0.508-0.061,0.789-0.115c0.524-0.103,0.917-0.275,1.238-0.544
		c0.293-0.245,0.458-0.58,0.451-0.917C22.136,28.557,21.976,28.257,21.692,28.039z M19.575,29.116
		c-0.148,0.017-0.297,0.033-0.445,0.052c-0.067,0.009-0.122,0.04-0.17,0.067c-0.007,0.003-0.013,0.007-0.02,0.011
		c-0.07-0.063-0.16-0.081-0.229-0.093l-0.047-0.009c-0.315-0.068-0.628-0.147-0.94-0.226l-0.08-0.022
		c0.74-0.328,2.211-0.318,2.968,0.021c-0.108,0.046-0.212,0.087-0.312,0.105C20.06,29.062,19.813,29.089,19.575,29.116z"/>
	<path d="M12.347,31.29c-1.125-0.396-2.3-0.424-3.497-0.078c-0.344,0.1-0.688,0.277-0.968,0.502
		c-0.261,0.209-0.41,0.495-0.418,0.805c-0.009,0.319,0.137,0.638,0.399,0.872c0.161,0.144,0.368,0.274,0.598,0.377
		c0.636,0.284,1.306,0.353,2.199,0.37c0.055-0.006,0.121-0.012,0.195-0.019c0.202-0.018,0.478-0.042,0.747-0.089
		c0.5-0.087,1.071-0.233,1.527-0.662c0.25-0.234,0.382-0.535,0.373-0.847c-0.009-0.304-0.152-0.587-0.404-0.797
		C12.87,31.534,12.611,31.384,12.347,31.29z M11.983,32.559c-0.662,0.341-2.308,0.341-2.996-0.001
		C9.694,32.206,11.263,32.205,11.983,32.559z"/>
	<path d="M38.975,30.212c0.549,0.188,1.123,0.281,1.733,0.281c0.402,0,0.82-0.041,1.257-0.121c0.417-0.078,0.951-0.215,1.389-0.587
		c0.282-0.24,0.435-0.558,0.43-0.893c-0.005-0.333-0.165-0.643-0.451-0.872c-0.154-0.125-0.338-0.234-0.547-0.325
		c-0.621-0.273-1.282-0.343-2.163-0.367c-0.058,0.006-0.127,0.011-0.205,0.017c-0.208,0.017-0.468,0.037-0.729,0.079
		c-0.548,0.091-1.118,0.233-1.577,0.661c-0.252,0.234-0.388,0.535-0.383,0.847c0.004,0.296,0.138,0.575,0.375,0.784
		C38.345,29.927,38.653,30.104,38.975,30.212z M39.252,28.911c0.687-0.346,2.297-0.346,3.017,0
		C41.602,29.255,39.96,29.257,39.252,28.911z"/>
	<path d="M47.488,33.808c0.572,0.221,1.182,0.33,1.843,0.33c0.405,0,0.829-0.041,1.275-0.123c0.539-0.1,0.949-0.265,1.291-0.521
		c0.317-0.237,0.501-0.576,0.503-0.929c0.003-0.35-0.165-0.673-0.474-0.911c-0.183-0.142-0.403-0.262-0.676-0.37
		c-0.592-0.236-1.228-0.288-1.839-0.31l-0.21,0.011c-0.179,0.009-0.358,0.018-0.535,0.039c-0.254,0.029-0.497,0.073-0.722,0.13
		c-0.41,0.104-0.879,0.259-1.245,0.634c-0.434,0.446-0.441,1.094-0.019,1.506C46.907,33.513,47.194,33.695,47.488,33.808z
		 M47.887,32.558c0.691-0.344,2.294-0.345,2.997,0.001C50.259,32.877,48.613,32.921,47.887,32.558z"/>
</g>
</svg>
