<?xml version="1.0" encoding="utf-8"?>
<!-- Generator: Adobe Illustrator 25.2.1, SVG Export Plug-In . SVG Version: 6.00 Build 0)  -->
<svg version="1.1" id="Layer_1" xmlns="http://www.w3.org/2000/svg" xmlns:xlink="http://www.w3.org/1999/xlink" x="0px" y="0px"
	 viewBox="0 0 60 60" style="enable-background:new 0 0 60 60;" xml:space="preserve">
<g>
	<path d="M59.153,2.685C59.09,2.618,59.002,2.58,58.91,2.579l-0.74-0.007c-0.009,0-0.017,0-0.026,0
		c-1.215,0-7.258,0.048-14.027,0.941c-10.216,1.348-17.35,3.884-21.204,7.538c-4.103,3.889-6.397,8.267-7.721,12.45
		c-1.483-0.445-4.111-0.566-6.845,2.517C3.319,31.692,1.861,36.402,1.802,36.6l-0.233,0.773c-0.029,0.097-0.014,0.201,0.042,0.285
		c0.056,0.084,0.146,0.139,0.246,0.151l11.866,1.3l6.581,6.941l0.665,11.919c0.005,0.101,0.056,0.194,0.137,0.253
		c0.059,0.044,0.13,0.067,0.202,0.067c0.027,0,0.054-0.003,0.081-0.01l0.782-0.191c0.2-0.049,4.97-1.243,10.918-5.972
		c3.353-2.667,3.242-5.405,2.832-6.876c4.447-1.127,9.071-3.14,12.944-6.812c3.855-3.655,6.768-10.644,8.659-20.772
		c1.39-7.443,1.69-13.972,1.692-14.027l0.031-0.694C59.25,2.842,59.216,2.752,59.153,2.685z M23.029,44.739
		c-0.408,0.014-0.79,0.027-1.143,0.042l-6.759-7.13c0.05-0.562,0.091-1.19,0.137-1.893c0.383-5.85,1.025-15.641,9.039-23.239
		c7.484-7.094,27.886-7.842,32.828-7.918c-0.338,4.93-2.171,25.262-9.657,32.358C39.892,44.149,28.937,44.532,23.029,44.739z
		 M14.643,25.43c-0.978,3.854-1.216,7.442-1.397,10.198c-0.03,0.465-0.062,0.936-0.096,1.383L4.183,36.03
		c0.69-1.6,2.374-4.943,5.677-8.671C11.929,25.026,13.729,25.14,14.643,25.43z M23.001,46.763l0.124-0.004
		c2.79-0.098,6.67-0.237,10.837-1.076c0.279,0.86,0.472,2.777-2.134,4.849c-3.896,3.099-7.325,4.603-8.96,5.206l-0.499-8.953
		C22.573,46.778,22.78,46.771,23.001,46.763z"/>
	<path d="M37.342,13.041c-2.757-0.067-5.373,0.926-7.379,2.828c-2.001,1.897-3.144,4.46-3.217,7.216
		c-0.073,2.757,0.931,5.376,2.827,7.377c1.897,2.001,4.459,3.144,7.214,3.217c0.095,0.003,0.19,0.004,0.284,0.004
		c2.649,0,5.169-1.005,7.095-2.831c2.001-1.897,3.144-4.46,3.217-7.216c0.073-2.757-0.931-5.376-2.827-7.377
		C42.659,14.257,40.097,13.115,37.342,13.041z M36.843,31.658c-2.217-0.059-4.277-0.978-5.802-2.587
		c-1.526-1.61-2.334-3.717-2.274-5.933c0.059-2.216,0.977-4.277,2.586-5.802c1.549-1.468,3.574-2.276,5.703-2.277l0.229,0.003
		c2.217,0.059,4.277,0.977,5.802,2.586c1.526,1.61,2.334,3.716,2.274,5.932c-0.059,2.216-0.977,4.277-2.586,5.802
		C41.162,30.913,39.027,31.724,36.843,31.658z"/>
	<path d="M18.198,45.589c-0.005-0.001-0.065-0.003-0.07-0.003c-0.547,0-1.001,0.444-1.011,0.99
		c-0.042,1.957-0.105,4.916-2.334,6.178c-0.81,0.459-2.344,0.587-4.119,0.737c-1.988,0.167-4.291,0.365-6.423,1.12
		c0.868-2.089,1.188-4.38,1.461-6.357c0.244-1.764,0.454-3.288,0.954-4.07c1.381-2.16,4.347-2.064,6.319-2.002
		c0.544-0.002,1.001-0.44,1.019-0.977c0.009-0.271-0.089-0.528-0.275-0.725c-0.185-0.198-0.436-0.31-0.708-0.318
		c-2.268-0.07-6.061-0.19-8.06,2.934c-0.739,1.158-0.977,2.886-1.254,4.89C3.3,50.869,2.847,54.14,0.835,56.315
		c-0.377,0.41-0.351,1.05,0.056,1.427c0.006,0.006,0.014,0.007,0.021,0.013c0.008,0.01,0.013,0.022,0.022,0.032
		c0.193,0.231,0.476,0.365,0.777,0.365c0.235,0,0.464-0.083,0.646-0.233c2.28-1.892,5.571-2.17,8.477-2.414
		c2.013-0.169,3.752-0.315,4.945-0.992c3.229-1.829,3.311-5.626,3.359-7.894C19.15,46.083,18.742,45.631,18.198,45.589z"/>
	<path d="M40.099,16.882c-2.558-0.924-5.179-0.59-7.193,0.918c-2.128,1.594-3.245,4.211-3.062,7.18
		c0.034,0.531,0.477,0.948,1.009,0.948c0.007,0,0.055-0.002,0.062-0.002c0.556-0.034,0.981-0.515,0.947-1.071
		c-0.14-2.277,0.682-4.258,2.256-5.436c1.457-1.093,3.388-1.323,5.297-0.634c0.523,0.185,1.103-0.088,1.291-0.609
		c0.092-0.254,0.079-0.529-0.036-0.773C40.555,17.159,40.353,16.974,40.099,16.882z"/>
</g>
</svg>
