<?xml version="1.0" encoding="utf-8"?>
<!-- Generator: Adobe Illustrator 25.2.1, SVG Export Plug-In . SVG Version: 6.00 Build 0)  -->
<svg version="1.1" id="Layer_1" xmlns="http://www.w3.org/2000/svg" xmlns:xlink="http://www.w3.org/1999/xlink" x="0px" y="0px"
	 viewBox="0 0 60 60" style="enable-background:new 0 0 60 60;" xml:space="preserve">
<g>
	<path d="M1.254,57.514c0.466-0.742,0.466-0.74,1.386-0.756c1.544-0.026,3.089-0.06,4.633-0.075
		c0.242-0.002,0.355-0.089,0.459-0.302c6.994-14.294,13.994-28.584,20.998-42.873c0.09-0.184,0.098-0.327,0.008-0.516
		c-0.532-1.12-1.054-2.244-1.567-3.372c-0.174-0.383-0.219-0.765,0.116-1.114c0.411-0.427,1.192-0.389,1.495,0.117
		c0.331,0.552,0.621,1.129,0.929,1.694c0.083,0.151,0.17,0.3,0.289,0.509c0.158-0.289,0.286-0.524,0.415-0.759
		c0.273-0.496,0.532-1,0.824-1.484c0.22-0.366,0.728-0.472,1.177-0.284c0.389,0.163,0.632,0.562,0.509,0.972
		c-0.143,0.474-0.343,0.933-0.548,1.385c-0.355,0.782-0.727,1.557-1.108,2.327c-0.097,0.196-0.094,0.346,0.002,0.543
		c5.241,10.684,10.475,21.372,15.711,32.059c1.765,3.603,3.533,7.205,5.292,10.812c0.1,0.206,0.212,0.282,0.44,0.285
		c1.672,0.019,3.343,0.074,5.014,0.069c0.479-0.001,0.707,0.232,0.904,0.587c0.042,0.076,0.075,0.157,0.113,0.235
		c0,0.137,0,0.274,0,0.411c-0.196,0.254-0.391,0.508-0.587,0.763c-18.773,0-37.546,0-56.319,0c-0.196-0.254-0.391-0.508-0.587-0.763
		C1.254,57.827,1.254,57.67,1.254,57.514z M21.531,32.873C17.6,40.794,13.759,48.705,9.876,56.682c3.612,0,7.138,0,10.739,0
		c-0.773-0.764-1.506-1.48-2.229-2.206c-0.345-0.346-0.685-0.698-1.001-1.07c-0.323-0.381-0.332-0.656-0.05-1.064
		c0.256-0.369,0.527-0.73,0.818-1.071c3.538-4.151,7.08-8.299,10.625-12.444c0.143-0.167,0.21-0.331,0.208-0.551
		c-0.007-0.86,0.003-1.721,0.006-2.581c0.001-0.387,0-0.774,0-1.224c-0.116,0.103-0.187,0.162-0.254,0.226
		c-0.627,0.603-1.243,1.218-1.884,1.806c-0.539,0.494-1.038,0.478-1.589-0.002c-0.096-0.083-0.192-0.167-0.282-0.256
		c-0.885-0.871-1.768-1.744-2.654-2.613C22.088,33.393,21.837,33.163,21.531,32.873z M31.017,34.455
		c0,1.383-0.003,2.691,0.007,3.999c0.001,0.102,0.075,0.219,0.147,0.302c1.678,1.961,3.365,3.914,5.04,5.876
		c2.114,2.475,4.221,4.956,6.326,7.439c0.449,0.53,0.447,0.807,0.031,1.348c-0.065,0.085-0.131,0.171-0.206,0.248
		c-0.899,0.925-1.801,1.848-2.701,2.772c-0.071,0.073-0.139,0.151-0.203,0.221c3.544,0,7.071,0,10.689,0
		c-3.91-7.963-7.78-15.844-11.668-23.762c-0.153,0.136-0.243,0.209-0.326,0.29c-0.875,0.853-1.746,1.71-2.623,2.561
		c-0.316,0.306-0.632,0.613-0.974,0.889c-0.384,0.31-0.88,0.296-1.27-0.009c-0.192-0.15-0.368-0.321-0.543-0.491
		C32.18,35.595,31.624,35.048,31.017,34.455z M33.945,34.5c-0.008,0.003,0.014,0.001,0.026-0.011
		c1.15-1.144,2.302-2.286,3.443-3.439c0.055-0.055,0.061-0.218,0.022-0.297c-2.419-4.943-4.846-9.883-7.272-14.823
		c-0.044-0.089-0.1-0.172-0.172-0.293c-0.082,0.155-0.139,0.257-0.19,0.361c-2.413,4.914-4.825,9.828-7.244,14.739
		c-0.092,0.186-0.028,0.275,0.094,0.396c1.083,1.073,2.161,2.151,3.241,3.227c0.06,0.06,0.126,0.113,0.213,0.19
		c0.091-0.104,0.164-0.196,0.247-0.279c0.922-0.929,1.832-1.872,2.775-2.78c0.674-0.649,1.043-0.631,1.74-0.013
		c0.139,0.123,0.274,0.25,0.405,0.382c0.441,0.444,0.874,0.895,1.319,1.335C33.035,33.631,33.488,34.06,33.945,34.5z M24.512,56.664
		c3.688,0,7.307,0,10.97,0c-1.821-4.935-3.623-9.82-5.426-14.706c-0.04,0.003-0.08,0.006-0.12,0.01
		C28.134,46.85,26.332,51.732,24.512,56.664z M33.005,43.953c-0.027,0.021-0.053,0.042-0.08,0.063
		c1.45,3.924,2.9,7.848,4.372,11.832c1.196-0.962,2.172-2.077,3.252-3.11C38.02,49.791,35.512,46.872,33.005,43.953z M22.668,55.936
		c1.474-4.008,2.919-7.933,4.363-11.859c-0.03-0.016-0.06-0.031-0.09-0.047c-2.492,2.895-4.984,5.79-7.437,8.64
		C20.556,53.755,21.587,54.82,22.668,55.936z"/>
	<path d="M58.746,11.579c-0.525,1.731-1.604,3.06-3.027,4.129c-1.359,1.021-2.911,1.457-4.593,1.357
		c-3.871-0.231-6.419-3.232-6.999-6.029c-0.581-2.8,0.068-5.319,2.127-7.381c0.457-0.458,0.993-0.846,1.533-1.207
		c0.339-0.227,0.75-0.28,1.131-0.011c0.255,0.18,0.36,0.424,0.35,0.73c-0.018,0.576-0.031,1.153-0.05,1.729
		c-0.096,2.914,1.901,5.44,4.761,6.006c0.998,0.198,1.983,0.096,2.954-0.183c0.103-0.03,0.205-0.064,0.308-0.094
		c0.82-0.246,1.182-0.072,1.506,0.721C58.746,11.423,58.746,11.501,58.746,11.579z M47.156,5.566
		c-0.123,0.144-0.239,0.259-0.332,0.39c-0.578,0.823-0.821,1.75-0.905,2.745c-0.135,1.606,0.2,3.075,1.195,4.356
		c1.898,2.443,6.142,2.991,8.572,0.168c0.052-0.06,0.089-0.133,0.111-0.166C50.922,12.873,48.192,10.259,47.156,5.566z"/>
	<path d="M6.358,1.254C6.537,1.368,6.739,1.458,6.89,1.601c0.334,0.315,0.402,0.755,0.207,1.09C6.883,3.058,6.395,3.282,5.998,3.196
		C5.594,3.108,5.268,2.722,5.239,2.299C5.201,1.734,5.551,1.456,6.006,1.254C6.123,1.254,6.241,1.254,6.358,1.254z"/>
	<path d="M9.175,26.031c-0.519,0.004-0.914-0.358-0.936-0.884c-0.019-0.449,0.003-0.9-0.024-1.348
		c-0.009-0.147-0.078-0.323-0.179-0.428c-0.68-0.702-1.373-1.391-2.073-2.073c-0.092-0.089-0.247-0.149-0.377-0.158
		c-0.487-0.032-0.977-0.015-1.463-0.058c-0.391-0.035-0.795-0.453-0.88-0.845c-0.089-0.406,0.08-0.712,0.403-0.931
		c0.131-0.089,0.302-0.154,0.458-0.163c0.497-0.03,0.996-0.019,1.493-0.048c0.13-0.007,0.285-0.07,0.376-0.16
		c0.702-0.694,1.396-1.396,2.079-2.109c0.095-0.099,0.156-0.265,0.164-0.404c0.023-0.439,0.006-0.879,0.018-1.319
		c0.014-0.532,0.404-0.924,0.92-0.944c0.539-0.02,0.964,0.34,1.012,0.887c0.04,0.467,0.064,0.937,0.068,1.405
		c0.002,0.263,0.081,0.456,0.275,0.64c0.638,0.606,1.253,1.235,1.89,1.841c0.099,0.094,0.266,0.154,0.406,0.162
		c0.497,0.026,0.997,0.009,1.494,0.036c0.39,0.021,0.814,0.455,0.861,0.834c0.049,0.395-0.217,0.89-0.615,0.995
		c-0.401,0.105-0.831,0.188-1.238,0.156c-0.574-0.045-0.968,0.152-1.339,0.571c-0.478,0.541-1.009,1.036-1.53,1.538
		c-0.156,0.15-0.206,0.304-0.208,0.514c-0.005,0.478-0.006,0.959-0.07,1.431C10.084,25.72,9.696,26.027,9.175,26.031z M7.596,20.131
		c0.483,0.46,0.938,0.901,1.407,1.327c0.062,0.056,0.243,0.077,0.295,0.031c0.492-0.439,0.968-0.896,1.4-1.303
		c-0.549-0.55-1.062-1.064-1.551-1.555C8.662,19.1,8.15,19.595,7.596,20.131z"/>
	<path d="M52.775,31.042c-0.001,0.521-0.406,0.914-0.939,0.909c-0.585-0.005-1.015-0.427-1.008-0.989
		c0.006-0.514,0.452-0.962,0.952-0.958C52.286,30.007,52.776,30.518,52.775,31.042z"/>
	<path d="M22.023,13.131c0.002,0.502-0.477,1.031-0.932,1.031c-0.452-0.001-0.963-0.512-0.966-0.966
		c-0.004-0.589,0.391-1.048,0.924-1.027C21.501,12.185,22.079,12.445,22.023,13.131z"/>
	<path d="M40.907,4.176c-0.565-0.001-0.989-0.402-0.989-0.936c0-0.501,0.47-0.974,0.975-0.981c0.455-0.007,1.024,0.503,0.986,0.944
		C41.834,3.742,41.58,4.194,40.907,4.176z"/>
</g>
</svg>
