<?xml version="1.0" encoding="utf-8"?>
<!-- Generator: Adobe Illustrator 25.2.1, SVG Export Plug-In . SVG Version: 6.00 Build 0)  -->
<svg version="1.1" id="Layer_1" xmlns="http://www.w3.org/2000/svg" xmlns:xlink="http://www.w3.org/1999/xlink" x="0px" y="0px"
	 viewBox="0 0 60 60" style="enable-background:new 0 0 60 60;" xml:space="preserve">
<g>
	<path d="M57.234,8.312H2.855c-1.018,0-1.846,0.828-1.846,1.846v33.487c0,1.018,0.828,1.846,1.846,1.846h20.164
		c-0.035,2.501-0.293,4.011-2.021,5.85h-1.867c-0.513,0-0.93,0.417-0.93,0.93s0.417,0.93,0.93,0.93h22.107
		c0.513,0,0.93-0.417,0.93-0.93s-0.417-0.93-0.93-0.93h-1.672c-1.727-1.839-1.986-3.349-2.021-5.85h19.689
		c1.018,0,1.846-0.828,1.846-1.846V10.157C59.079,9.139,58.251,8.312,57.234,8.312z M23.387,51.34
		c1.242-1.818,1.459-3.578,1.492-5.85h10.807c0.033,2.272,0.25,4.032,1.492,5.85H23.387z M57.234,43.629l-20.57,0.005
		c-0.018-0.001-0.036-0.005-0.054-0.005c-0.019,0-0.036,0.004-0.055,0.006l-12.512,0.003c-0.029-0.003-0.058-0.009-0.088-0.009
		c-0.03,0-0.059,0.006-0.088,0.009L2.87,43.644V18.051h54.353L57.234,43.629z M2.87,16.191v-6.019l54.35-0.015l0.003,6.034H2.87z"/>
	<path d="M13.576,31.897l11.073,5.074C24.69,36.99,24.734,37,24.778,37c0.058,0,0.117-0.016,0.167-0.049
		c0.089-0.057,0.143-0.156,0.143-0.261v-2.28c0-0.124-0.074-0.236-0.187-0.285l-7.667-3.305l7.668-3.327
		c0.113-0.049,0.186-0.161,0.186-0.285V24.93c0-0.105-0.054-0.204-0.143-0.261c-0.089-0.058-0.2-0.065-0.296-0.021l-11.073,5.061
		c-0.11,0.051-0.181,0.161-0.181,0.282v1.625C13.395,31.737,13.466,31.847,13.576,31.897z"/>
	<path d="M24.646,41.167c0.058,0.084,0.153,0.134,0.256,0.134h2.042c0.128,0,0.243-0.079,0.289-0.199l7.91-20.603
		c0.037-0.096,0.024-0.203-0.034-0.287c-0.058-0.084-0.153-0.134-0.256-0.134h-2.029c-0.128,0-0.243,0.079-0.289,0.199L24.612,40.88
		C24.576,40.975,24.588,41.082,24.646,41.167z"/>
	<path d="M34.896,24.909v2.237c0,0.124,0.074,0.237,0.189,0.285l7.839,3.341l-7.839,3.351c-0.114,0.049-0.188,0.161-0.188,0.285
		v2.251c0,0.105,0.053,0.203,0.141,0.26c0.051,0.033,0.11,0.05,0.169,0.05c0.043,0,0.086-0.009,0.127-0.027l11.3-5.068
		c0.111-0.05,0.183-0.16,0.183-0.283v-1.628c0-0.122-0.072-0.233-0.183-0.283l-11.3-5.055c-0.096-0.043-0.208-0.035-0.295,0.022
		C34.949,24.706,34.896,24.804,34.896,24.909z"/>
	<path d="M6.553,10.342c-1.533,0-2.781,1.247-2.781,2.781s1.248,2.781,2.781,2.781s2.781-1.247,2.781-2.781
		S8.086,10.342,6.553,10.342z M6.553,12.202c0.508,0,0.921,0.413,0.921,0.921c0,0.508-0.413,0.921-0.921,0.921
		s-0.921-0.413-0.921-0.921C5.632,12.615,6.045,12.202,6.553,12.202z"/>
	<path d="M13.098,10.342c-1.533,0-2.781,1.247-2.781,2.781s1.248,2.781,2.781,2.781s2.781-1.247,2.781-2.781
		S14.632,10.342,13.098,10.342z M13.098,12.202c0.508,0,0.921,0.413,0.921,0.921c0,0.508-0.413,0.921-0.921,0.921
		c-0.508,0-0.921-0.413-0.921-0.921C12.177,12.615,12.591,12.202,13.098,12.202z"/>
	<path d="M19.644,10.342c-1.533,0-2.781,1.247-2.781,2.781s1.248,2.781,2.781,2.781c1.533,0,2.781-1.247,2.781-2.781
		S21.178,10.342,19.644,10.342z M19.644,12.202c0.508,0,0.921,0.413,0.921,0.921c0,0.508-0.413,0.921-0.921,0.921
		c-0.508,0-0.921-0.413-0.921-0.921C18.723,12.615,19.137,12.202,19.644,12.202z"/>
</g>
</svg>
