<?xml version="1.0" encoding="utf-8"?>
<!-- Generator: Adobe Illustrator 25.2.1, SVG Export Plug-In . SVG Version: 6.00 Build 0)  -->
<svg version="1.1" id="Layer_1" xmlns="http://www.w3.org/2000/svg" xmlns:xlink="http://www.w3.org/1999/xlink" x="0px" y="0px"
	 viewBox="0 0 60 60" style="enable-background:new 0 0 60 60;" xml:space="preserve">
<path d="M47.381,54.066c-0.386-0.134-1.018-0.236-2.287-0.423c-0.827-0.123-1.764-0.262-2.106-0.367l-0.047-0.023
	c-4.219-2.404-6.322-4.098-8.178-5.595l-1.029-0.822c-0.603-0.472-1.226-0.96-1.429-2.422c-0.058-0.415-0.416-0.717-0.849-0.717
	h-0.032l-0.004-0.031c-0.15-1.228-0.772-2.327-1.753-3.095l-0.013-10.36h0.765c0.458,0,0.831-0.373,0.831-0.831V17.623l0.015-0.01
	c1.256-0.886,2.234-2.111,2.828-3.541c0.837-2.02,0.838-4.244,0.003-6.265l-2.49-6.02c-0.13-0.311-0.432-0.511-0.767-0.511H14.923
	c-0.279,0-0.538,0.138-0.691,0.369c-0.154,0.23-0.183,0.522-0.077,0.779l4.813,11.639c0.678,1.638,1.845,2.984,3.375,3.893
	l0.018,11.426c0,0.458,0.373,0.831,0.831,0.831h0.765v10.349l-0.014,0.01c-0.98,0.768-1.603,1.868-1.753,3.095l-0.004,0.031h-0.265
	c-0.225,0-0.435,0.088-0.592,0.248c-0.154,0.156-0.241,0.372-0.239,0.594c0.032,2.517-0.528,4.179-1.022,5.646
	c-0.4,1.185-0.779,2.305-0.768,3.631c0,0.903,0.136,2.211,0.781,3.317c0.725,1.238,1.903,1.892,3.406,1.892l0.941,0.003
	c0.196,0,0.378-0.001,0.493-0.004c2.147-0.056,3.45-0.641,4.501-1.112c0.732-0.33,1.363-0.614,2.147-0.632
	c2.371,0.066,3.988,0.68,5.416,1.223c1.092,0.414,2.123,0.805,3.239,0.805c2.293,0,4.879-0.524,5.192-0.59
	c0.103-0.031,2.521-0.798,2.521-3.868C47.939,54.499,47.715,54.184,47.381,54.066z M20.505,13.428l-4.339-10.49h14.117l2.277,5.504
	c0.666,1.611,0.665,3.384-0.002,4.992c-0.667,1.609-1.922,2.862-3.532,3.529c-0.796,0.329-1.632,0.496-2.485,0.496
	C23.887,17.458,21.518,15.876,20.505,13.428z M24.024,28.551v-9.832l0.047,0.015c1.815,0.574,3.706,0.51,5.467-0.189l0.049-0.019
	v10.026H24.024z M27.991,30.213v9.527l-0.045-0.011c-0.392-0.1-0.765-0.148-1.14-0.148c-0.375,0-0.748,0.048-1.14,0.148
	l-0.045,0.012v-9.527H27.991z M23.873,43.655c0.275-1.398,1.509-2.412,2.933-2.412s2.658,1.014,2.933,2.412l0.009,0.043h-5.884
	L23.873,43.655z M46.211,55.538c-0.241,1.152-1.075,1.519-1.244,1.582c-0.448,0.088-2.784,0.529-4.74,0.529
	c-0.811,0-1.625-0.309-2.661-0.702c-1.472-0.558-3.304-1.254-5.985-1.327h-0.016c-0.002,0-0.011,0-0.013,0
	c-1.124,0.022-1.944,0.39-2.813,0.78c-1.004,0.452-2.042,0.92-3.857,0.966c-0.103,0.002-0.266,0.003-0.446,0.003l-0.946-0.003
	c-0.93,0-1.539-0.33-1.973-1.07c-0.357-0.612-0.554-1.494-0.554-2.485c-0.009-1.049,0.31-1.995,0.68-3.094
	c0.449-1.333,1.009-2.992,1.098-5.321l0.001-0.035h8.054l0.007,0.028c0.409,1.585,1.311,2.292,1.908,2.759l0.002-0.002
	c0.038,0.033,0.088,0.073,0.152,0.125c0.226,0.18,0.641,0.512,0.858,0.687c1.911,1.54,4.077,3.285,8.578,5.834
	c0.48,0.181,1.344,0.318,2.643,0.51c0.407,0.061,0.864,0.129,1.235,0.193l0.038,0.007L46.211,55.538z"/>
</svg>
