<?xml version="1.0" encoding="utf-8"?>
<!-- Generator: Adobe Illustrator 25.2.1, SVG Export Plug-In . SVG Version: 6.00 Build 0)  -->
<svg version="1.1" id="Layer_1" xmlns="http://www.w3.org/2000/svg" xmlns:xlink="http://www.w3.org/1999/xlink" x="0px" y="0px"
	 viewBox="0 0 60 60" style="enable-background:new 0 0 60 60;" xml:space="preserve">
<g>
	<path d="M58.082,57.345l-3.106-2.155c-0.045-0.137-0.17-0.237-0.322-0.237h-0.02l-10.711-7.431
		c3.109-2.195,5.148-5.808,5.148-9.895V12.89c0-6.68-5.435-12.115-12.115-12.115h-13.9c-6.68,0-12.115,5.435-12.115,12.115v24.737
		c0,4.084,2.037,7.695,5.142,9.89L5.366,54.953h-0.02c-0.152,0-0.277,0.101-0.322,0.238l-3.107,2.156
		c-0.466,0.325-0.582,0.969-0.257,1.437c0.193,0.277,0.51,0.442,0.847,0.442c0.21,0,0.412-0.063,0.588-0.183l2.919-2.026h47.974
		l2.921,2.026c0.173,0.12,0.375,0.183,0.586,0.183c0.337,0,0.654-0.165,0.848-0.443C58.665,58.316,58.549,57.672,58.082,57.345z
		 M13.005,12.89c0-5.543,4.509-10.052,10.052-10.052h13.9c5.543,0,10.052,4.509,10.052,10.052v21.655
		c-1.981-0.743-4.536-0.599-6.564-0.279c-3.486,0.551-6.76,1.802-8.505,2.705c-1.117,0.579-2.448,0.586-3.561,0.019
		c-3.526-1.799-11.109-4.009-15.374-2.434V12.89z M13.005,37.627v-0.776c2.634-1.756,10.37-0.097,14.436,1.977
		c0.828,0.422,1.761,0.646,2.697,0.646c0.954,0,1.905-0.232,2.753-0.67c4.059-2.104,11.517-3.731,14.117-1.942v0.765
		c0,3.84-2.166,7.181-5.339,8.873c-0.068,0.025-0.134,0.056-0.196,0.095c-1.36,0.688-2.891,1.084-4.517,1.084h-13.9
		C17.514,47.679,13.005,43.169,13.005,37.627z M43.686,49.87H16.313l1.753-1.216c1.524,0.693,3.21,1.088,4.99,1.088h13.9
		c1.777,0,3.46-0.394,4.982-1.084L43.686,49.87z M8.987,54.953l4.352-3.02h33.321l4.353,3.02H8.987z"/>
	<path d="M19.505,38.689c-1.911,0-3.467,1.555-3.467,3.467c0,1.912,1.555,3.467,3.467,3.467c1.912,0,3.467-1.555,3.467-3.467
		C22.972,40.244,21.417,38.689,19.505,38.689z M19.505,43.56c-0.774,0-1.404-0.63-1.404-1.404c0-0.774,0.63-1.404,1.404-1.404
		c0.774,0,1.404,0.63,1.404,1.404C20.909,42.93,20.279,43.56,19.505,43.56z"/>
	<path d="M40.478,45.623c1.911,0,3.467-1.555,3.467-3.467c0-1.911-1.555-3.467-3.467-3.467c-1.912,0-3.467,1.555-3.467,3.467
		C37.01,44.067,38.566,45.623,40.478,45.623z M40.478,40.752c0.774,0,1.404,0.63,1.404,1.404c0,0.774-0.63,1.404-1.404,1.404
		c-0.774,0-1.404-0.63-1.404-1.404C39.073,41.382,39.703,40.752,40.478,40.752z"/>
	<path d="M30.096,31.275l14.588,1.209l0.052,0.002c0.005,0,0.009,0,0.013,0c0.259,0,0.506-0.097,0.698-0.273
		c0.212-0.194,0.333-0.471,0.333-0.759V14.81c0-0.533-0.416-0.985-0.947-1.028l-14.752-1.222c-0.104-0.008-0.206,0.006-0.305,0.03
		L15.18,13.8c-0.531,0.043-0.947,0.494-0.947,1.028v16.644c0,0.287,0.122,0.564,0.334,0.762c0.191,0.174,0.439,0.27,0.697,0.27
		c0.009,0,0.019-0.001,0.028-0.001l14.79-1.224C30.087,31.278,30.091,31.275,30.096,31.275z M31.048,14.71l12.671,1.049v14.575
		l-12.671-1.05V14.71z M28.966,29.302l-12.671,1.05V15.777l12.671-1.049V29.302z"/>
	<path d="M17.817,11.73H42.52c0.19,0,0.344-0.154,0.344-0.344V6.492c0-0.19-0.154-0.344-0.344-0.344H17.817
		c-0.19,0-0.344,0.154-0.344,0.344v4.893C17.473,11.576,17.627,11.73,17.817,11.73z M19.536,8.212h21.264v1.455H19.536V8.212z"/>
</g>
</svg>
