<?xml version="1.0" encoding="utf-8"?>
<!-- Generator: Adobe Illustrator 25.2.1, SVG Export Plug-In . SVG Version: 6.00 Build 0)  -->
<svg version="1.1" id="Layer_1" xmlns="http://www.w3.org/2000/svg" xmlns:xlink="http://www.w3.org/1999/xlink" x="0px" y="0px"
	 viewBox="0 0 60 60" style="enable-background:new 0 0 60 60;" xml:space="preserve">
<g>
	<path d="M11.859,28.256c0.768,0,1.356,1.487,1.875,2.798c0.738,1.867,1.501,3.797,3.342,3.797s2.604-1.93,3.342-3.798
		c0.519-1.311,1.107-2.797,1.875-2.797c0.769,0,1.357,1.488,1.877,2.802c0.738,1.865,1.502,3.792,3.342,3.792
		c1.842,0,2.605-1.93,3.345-3.798c0.519-1.311,1.107-2.796,1.875-2.796c0.769,0,1.357,1.488,1.877,2.802
		c0.738,1.865,1.502,3.792,3.342,3.792c1.842,0,2.606-1.93,3.345-3.798c0.52-1.311,1.108-2.797,1.877-2.797
		c0.769,0,1.358,1.488,1.879,2.801c0.738,1.865,1.502,3.793,3.344,3.793c0.435,0,0.789-0.354,0.789-0.789
		c0-0.435-0.354-0.789-0.789-0.789c-0.77,0-1.358-1.487-1.879-2.801c-0.738-1.865-1.503-3.793-3.344-3.793
		c-1.842,0-2.606,1.93-3.345,3.798c-0.52,1.311-1.108,2.797-1.877,2.797c-0.769,0-1.357-1.487-1.876-2.799
		c-0.738-1.866-1.502-3.795-3.343-3.795s-2.605,1.929-3.343,3.796c-0.519,1.312-1.107,2.798-1.877,2.798
		c-0.769,0-1.357-1.487-1.876-2.799c-0.738-1.866-1.502-3.795-3.343-3.795c-1.841,0-2.604,1.93-3.343,3.797
		c-0.519,1.311-1.106,2.797-1.874,2.797c-0.768,0-1.356-1.487-1.876-2.799c-0.737-1.866-1.501-3.795-3.341-3.795
		c-1.841,0-2.605,1.93-3.343,3.797c-0.519,1.312-1.107,2.798-1.875,2.798s-1.357-1.487-1.876-2.799
		c-0.738-1.866-1.502-3.795-3.342-3.795c-0.435,0-0.789,0.354-0.789,0.789c0,0.435,0.354,0.789,0.789,0.789
		c0.768,0,1.357,1.487,1.876,2.799C4.037,32.921,4.8,34.85,6.641,34.85c1.841,0,2.604-1.929,3.343-3.797
		C10.503,29.742,11.091,28.256,11.859,28.256z"/>
	<path d="M11.458,18.979c0.768,0,1.357,1.488,1.876,2.8c0.738,1.866,1.501,3.795,3.342,3.795c1.842,0,2.605-1.93,3.343-3.797
		c0.519-1.312,1.107-2.798,1.876-2.798c0.768,0,1.356,1.487,1.875,2.799c0.738,1.866,1.501,3.796,3.342,3.796
		c1.841,0,2.604-1.93,3.343-3.797c0.519-1.312,1.107-2.798,1.874-2.798c0.769,0,1.357,1.488,1.876,2.8
		c0.738,1.866,1.501,3.795,3.342,3.795c1.842,0,2.606-1.932,3.345-3.8c0.519-1.31,1.107-2.795,1.875-2.795
		c0.769,0,1.357,1.488,1.876,2.8c0.738,1.866,1.501,3.795,3.342,3.795c1.841,0,2.605-1.929,3.345-3.797
		c0.519-1.312,1.107-2.798,1.877-2.798s1.359,1.488,1.879,2.801c0.738,1.865,1.503,3.793,3.344,3.793
		c0.435,0,0.789-0.354,0.789-0.789c0-0.435-0.354-0.789-0.789-0.789c-0.769,0-1.358-1.488-1.878-2.8
		c-0.738-1.866-1.502-3.795-3.344-3.795c-1.843,0-2.606,1.931-3.345,3.798c-0.52,1.311-1.108,2.797-1.877,2.797
		c-0.769,0-1.357-1.488-1.876-2.8c-0.738-1.866-1.501-3.795-3.342-3.795c-1.842,0-2.606,1.932-3.345,3.8
		c-0.519,1.31-1.107,2.795-1.875,2.795c-0.769,0-1.357-1.488-1.876-2.8c-0.738-1.866-1.501-3.795-3.342-3.795
		c-1.841,0-2.604,1.93-3.342,3.797c-0.519,1.312-1.106,2.798-1.875,2.798c-0.768,0-1.356-1.486-1.875-2.798
		c-0.738-1.867-1.501-3.797-3.342-3.797c-1.842,0-2.605,1.93-3.343,3.797c-0.519,1.312-1.107,2.798-1.876,2.798
		c-0.768,0-1.357-1.488-1.876-2.8c-0.738-1.866-1.501-3.795-3.342-3.795c-0.435,0-0.789,0.354-0.789,0.789
		C10.67,18.625,11.023,18.979,11.458,18.979z"/>
	<path d="M58.431,42.55c-0.769,0-1.358-1.488-1.879-2.801c-0.738-1.865-1.502-3.793-3.344-3.793c-1.842,0-2.606,1.929-3.345,3.797
		c-0.519,1.312-1.108,2.798-1.877,2.798c-0.769,0-1.357-1.487-1.876-2.799c-0.738-1.866-1.502-3.795-3.343-3.795
		c-1.842,0-2.606,1.931-3.345,3.8c-0.519,1.31-1.107,2.795-1.875,2.795c-0.769,0-1.357-1.487-1.876-2.799
		c-0.738-1.866-1.502-3.795-3.343-3.795s-2.604,1.93-3.342,3.798c-0.519,1.311-1.107,2.797-1.875,2.797
		c-0.768,0-1.356-1.487-1.875-2.798c-0.738-1.867-1.501-3.797-3.342-3.797c-1.841,0-2.605,1.93-3.343,3.797
		c-0.519,1.312-1.107,2.798-1.875,2.798c-0.768,0-1.357-1.488-1.876-2.802c-0.738-1.865-1.502-3.792-3.341-3.792
		c-0.435,0-0.789,0.354-0.789,0.789c0,0.435,0.354,0.789,0.789,0.789c0.768,0,1.357,1.488,1.876,2.802
		c0.738,1.865,1.502,3.792,3.341,3.792c1.841,0,2.604-1.929,3.343-3.797c0.519-1.312,1.107-2.798,1.875-2.798
		c0.768,0,1.356,1.487,1.876,2.799c0.737,1.866,1.501,3.795,3.341,3.795s2.604-1.93,3.343-3.797
		c0.519-1.311,1.106-2.797,1.874-2.797c0.769,0,1.357,1.488,1.877,2.802c0.738,1.865,1.502,3.792,3.342,3.792
		c1.842,0,2.606-1.931,3.345-3.8c0.519-1.31,1.107-2.795,1.875-2.795c0.769,0,1.357,1.488,1.877,2.802
		c0.738,1.865,1.502,3.792,3.342,3.792c1.842,0,2.606-1.93,3.345-3.798c0.52-1.311,1.108-2.797,1.877-2.797
		c0.77,0,1.358,1.487,1.879,2.801c0.738,1.865,1.503,3.793,3.344,3.793c0.435,0,0.789-0.354,0.789-0.789
		C59.219,42.904,58.866,42.55,58.431,42.55z"/>
</g>
</svg>
