<?xml version="1.0" encoding="utf-8"?>
<!-- Generator: Adobe Illustrator 25.2.1, SVG Export Plug-In . SVG Version: 6.00 Build 0)  -->
<svg version="1.1" id="Layer_1" xmlns="http://www.w3.org/2000/svg" xmlns:xlink="http://www.w3.org/1999/xlink" x="0px" y="0px"
	 viewBox="0 0 60 60" style="enable-background:new 0 0 60 60;" xml:space="preserve">
<g>
	<path d="M2.79,17.943c0,1.685,1.371,3.056,3.056,3.056s3.056-1.371,3.056-3.056c0-1.685-1.371-3.056-3.056-3.056
		S2.79,16.258,2.79,17.943z M5.846,16.695c0.688,0,1.247,0.56,1.247,1.248c0,0.688-0.559,1.247-1.247,1.247
		s-1.247-0.559-1.247-1.247C4.599,17.255,5.158,16.695,5.846,16.695z"/>
	<path d="M18.564,51.806c1.685,0,3.056-1.371,3.056-3.056c0-1.685-1.371-3.056-3.056-3.056c-1.685,0-3.056,1.371-3.056,3.056
		C15.508,50.436,16.879,51.806,18.564,51.806z M18.564,47.504c0.688,0,1.247,0.559,1.247,1.247c0,0.688-0.56,1.247-1.247,1.247
		c-0.688,0-1.247-0.559-1.247-1.247C17.317,48.063,17.877,47.504,18.564,47.504z"/>
	<path d="M58.981,12.544l-10.396-2.388c-0.045-0.011-0.092-0.01-0.138,0.001l-7.563,1.814l-15.56-6.371
		c-1.08-0.441-2.27-0.436-3.351,0.018c-0.831,0.349-1.517,0.93-1.992,1.67L6.742,12.708c-0.94-0.174-1.912-0.081-2.819,0.288
		c-2.578,1.056-3.816,4.012-2.761,6.59l10.522,25.695H9.191c-2.503,0-4.539,2.036-4.539,4.539v2.086
		c0,2.503,2.036,4.539,4.539,4.539h41.484c2.503,0,4.539-2.036,4.539-4.539V49.82c0-2.503-2.036-4.539-4.539-4.539H22.603
		L12.274,20.059l10.849-4.443l14.2,5.814l4.753,6.212c0.028,0.037,0.065,0.067,0.107,0.088l9.575,4.701
		c0.043,0.021,0.088,0.031,0.132,0.031c0.111,0,0.218-0.062,0.271-0.168l2.14-4.359c0.035-0.072,0.041-0.155,0.015-0.23
		c-0.026-0.076-0.081-0.138-0.152-0.174l-8.692-4.268l-0.929-1.281c0.582-0.458,1.057-1.057,1.352-1.776l0.623-1.521
		c0.012-0.031,0.019-0.064,0.02-0.097c0.242-0.788,0.241-1.626,0.026-2.422l1.759-0.471l9.438,2.168
		c0.022,0.005,0.045,0.008,0.067,0.008c0.056,0,0.112-0.016,0.16-0.046c0.068-0.042,0.116-0.11,0.134-0.188l1.087-4.732
		C59.244,12.743,59.143,12.581,58.981,12.544z M48.215,13.853l-2.489,0.665c-0.454-0.554-1.039-0.989-1.718-1.267l-0.26-0.107
		l4.776-1.146l8.583,1.97l-0.412,1.795L48.36,13.85C48.313,13.839,48.263,13.841,48.215,13.853z M50.675,54.636H9.191
		c-1.505,0-2.73-1.225-2.73-2.73V49.82c0-1.505,1.225-2.731,2.73-2.731h3.234l1.779,4.344c0.781,1.906,2.618,3.137,4.681,3.137
		c0.656,0,1.298-0.127,1.909-0.376c1.244-0.51,2.217-1.477,2.74-2.725c0.523-1.248,0.53-2.621,0.021-3.865l-0.211-0.515h27.332
		c1.505,0,2.73,1.225,2.73,2.731v2.086C53.405,53.412,52.18,54.636,50.675,54.636z M40.501,13.769
		c0.003,0.001,0.005,0.002,0.008,0.003l2.815,1.153c0.632,0.258,1.127,0.751,1.394,1.388c0.267,0.636,0.271,1.335,0.011,1.966
		l-0.509,1.242c-0.255,0.622-0.735,1.109-1.353,1.379c-0.002,0.001-0.004,0.002-0.005,0.003c-0.01,0.004-0.018,0.011-0.028,0.015
		c-0.635,0.266-1.334,0.268-1.968,0.009l-17.394-7.122c0,0-0.001,0-0.001,0l-1.29-0.528c-0.634-0.26-1.13-0.752-1.396-1.387
		c-0.18-0.43-0.229-0.889-0.168-1.338c0.093,1.602,1.413,2.88,3.038,2.88c1.685,0,3.056-1.371,3.056-3.056s-1.371-3.056-3.056-3.056
		c-0.786,0-1.496,0.306-2.038,0.796c0.271-0.36,0.627-0.65,1.055-0.83c0.323-0.135,0.659-0.203,1-0.203
		c0.332,0,0.657,0.065,0.967,0.192L40.501,13.769z M23.655,11.622c-0.688,0-1.247-0.559-1.247-1.247s0.559-1.247,1.247-1.247
		c0.688,0,1.247,0.559,1.247,1.247S24.343,11.622,23.655,11.622z M10.512,15.757c-0.329-0.803-0.85-1.49-1.512-2.019l9.952-4.075
		c-0.554,1.885,0.231,3.905,1.875,4.938l-9.239,3.783L10.512,15.757z M43.297,26.262l-2.688-3.512
		c0.399,0.117,0.809,0.177,1.226,0.177c0.363,0,0.715-0.055,1.056-0.139l1.335,1.842c0.029,0.039,0.067,0.072,0.111,0.094
		l7.675,3.768l-0.812,1.653L43.297,26.262z M7.089,14.684c0.802,0.336,1.423,0.96,1.749,1.758L21.88,48.29
		c0.327,0.797,0.322,1.678-0.014,2.48c-0.336,0.802-0.961,1.424-1.758,1.75c-0.8,0.328-1.68,0.323-2.481-0.011
		c-0.801-0.336-1.422-0.961-1.749-1.76L2.836,18.9c-0.328-0.8-0.324-1.681,0.011-2.482c0.335-0.8,0.961-1.421,1.761-1.749
		C5,14.51,5.41,14.428,5.828,14.428C6.258,14.428,6.682,14.514,7.089,14.684z"/>
</g>
</svg>
