<?xml version="1.0" encoding="utf-8"?>
<!-- Generator: Adobe Illustrator 25.2.1, SVG Export Plug-In . SVG Version: 6.00 Build 0)  -->
<svg version="1.1" id="Layer_1" xmlns="http://www.w3.org/2000/svg" xmlns:xlink="http://www.w3.org/1999/xlink" x="0px" y="0px"
	 viewBox="0 0 60 60" style="enable-background:new 0 0 60 60;" xml:space="preserve">
<g>
	<path d="M474.18,634.976c-4.457,0.511-7.481,0.666-10.706,0.021c-1.913-0.383-5.456-8.774-7.191-12.883
		c-0.713-1.686-1.386-3.277-1.979-4.533c-4.825-10.164-20.771-11.43-27.4-11.502c-7.697-0.099-12.131,1.873-19.866,8.792
		c-3.21,2.87-4.895,6.259-4.623,9.296c0.182,2.022,1.233,3.721,2.961,4.783c5.088,3.131,9.462-1.432,12.667-4.775
		c1.146-1.194,2.228-2.322,3.191-3.004c2.705-1.908,9.664-2.031,11.753-0.955c-0.559,1.273-4.135,5.139-10.65,11.51l-0.164,0.161
		c-0.963,0.941-1.86,1.818-2.631,2.59c-1.812,1.812-2.65,3.704-2.491,5.621c0.089,1.08,0.481,2.051,1.059,2.947
		c-0.367,0.355-0.747,0.725-1.159,1.127c-4.125,4.015-9.258,9.012-13.997,11.773c-1.855,1.08-7.53,1.946-12.104,2.645
		c-1.888,0.287-3.672,0.56-4.95,0.818c-3.825,0.775-5.514,4.16-5.205,7.104c0.288,2.756,2.404,5.537,6.485,5.537h0.071
		c0.002,0,0.006,0,0.008,0c11.229-0.101,21.484-3.258,26.261-6.148c4.943-2.992,13.644-11.675,15.944-14.469
		c2.968,1.773,6.5,4.023,6.974,5.162c0.401,0.962-2.873,4.255-4.842,6.235c-1.588,1.597-3.23,3.248-4.704,5.031
		c-2.889,3.496-2.29,6.976-0.767,9.066c1.259,1.723,3.273,2.752,5.391,2.752c0.84,0,1.662-0.158,2.442-0.472
		c5.026-2.009,19.683-17.912,20.247-22.982c0.238-2.142-2.649-5.452-9.687-12.582c-1.036-1.051-2.704-2.741-3.154-3.259
		c0.122-0.401,0.64-1.498,1.808-2.71c1.311-1.361,2.224-1.55,2.407-1.468c1.544,0.701,4.481,4.6,6.242,6.937
		c0.726,0.964,1.477,1.961,2.065,2.665c2.641,3.16,9.013,3.316,17.715,3.203c4.783-0.065,8.399-1.79,9.92-4.733
		c1.077-2.088,0.93-4.568-0.386-6.474C479.667,635.675,477.135,634.641,474.18,634.976z M441.008,635.591
		c-1.324,1.376-3.327,4.182-2.435,5.968c0.309,0.616,1.249,1.596,3.869,4.249c7.585,7.69,8.755,9.626,8.778,10.081
		c-0.387,3.479-14.127,18.83-18.377,20.53c-1.54,0.614-3.307,0.094-4.295-1.264c-1.115-1.527-0.871-3.542,0.655-5.388
		c1.384-1.676,2.98-3.281,4.531-4.84c3.711-3.731,6.642-6.68,5.471-9.491c-0.997-2.392-5.635-5.097-10.598-7.991
		c-1.664-0.97-3.384-1.974-4.343-2.659c-2.008-1.433-4.079-3.14-4.229-4.936c-0.082-0.999,0.465-2.094,1.624-3.254
		c0.785-0.785,1.704-1.684,2.691-2.648l0.08-0.079c8.042-7.863,11.63-11.74,11.63-13.924c0-0.565-0.22-1.628-1.692-2.392
		c-1.25-0.646-3.45-1.033-5.886-1.033c-3.673,0-7.03,0.822-8.98,2.199c-1.202,0.848-2.386,2.083-3.652,3.403
		c-3.154,3.29-5.876,6.134-8.907,4.271c-0.914-0.562-1.447-1.426-1.543-2.497c-0.187-2.083,1.138-4.559,3.633-6.789
		c7.151-6.396,11.017-8.104,17.832-8.03c6.069,0.066,20.626,1.153,24.726,9.791c0.563,1.186,1.226,2.752,1.958,4.487
		c3.545,8.389,6.109,13.936,9.337,14.581c3.604,0.724,6.87,0.564,11.635,0.021c1.813-0.209,3.319,0.353,4.143,1.547
		c0.694,1.008,0.766,2.275,0.189,3.393c-0.995,1.928-3.654,3.062-7.295,3.11c-7.084,0.101-13.591,0.006-15.371-2.125
		c-0.528-0.633-1.23-1.564-1.98-2.559c-2.294-3.045-5.15-6.835-7.388-7.852C445.158,632.713,443.037,633.486,441.008,635.591z
		 M420.092,645.299c0.752,0.68,1.578,1.322,2.431,1.931c1.01,0.721,2.546,1.623,4.32,2.658
		c-2.405,2.817-10.418,10.744-14.878,13.444c-4.438,2.687-14.09,5.62-24.788,5.715c-2.973,0-3.432-2.181-3.502-2.849
		c-0.167-1.597,0.748-3.432,2.82-3.851c1.22-0.247,2.989-0.518,4.877-0.806c5.034-0.768,10.74-1.638,13.092-3.009
		c5.056-2.945,10.338-8.087,14.589-12.225C419.408,645.963,419.754,645.627,420.092,645.299z"/>
	<path d="M455.764,595.306c-1.291,0.277-2.397,1.041-3.116,2.15c-0.717,1.107-0.959,2.429-0.684,3.721
		c0.277,1.291,1.041,2.397,2.15,3.116c0.803,0.518,1.729,0.791,2.679,0.791c1.689,0,3.244-0.844,4.158-2.258
		c0.718-1.108,0.96-2.43,0.684-3.721c-0.277-1.293-1.041-2.399-2.149-3.116C458.381,595.275,457.055,595.032,455.764,595.306z
		 M454.898,600.55c-0.109-0.51-0.014-1.029,0.269-1.465c0.281-0.437,0.717-0.736,1.224-0.845c0.139-0.03,0.278-0.045,0.415-0.045
		c0.371,0,0.734,0.108,1.051,0.313c0.436,0.281,0.735,0.716,0.845,1.225c0.109,0.508,0.014,1.027-0.27,1.464
		c-0.281,0.437-0.716,0.736-1.222,0.845c-0.514,0.11-1.032,0.014-1.467-0.269C455.307,601.492,455.007,601.057,454.898,600.55z"/>
	<path d="M465.14,611.426c0.801,0.519,1.728,0.792,2.68,0.792c1.689,0,3.243-0.845,4.158-2.259c1.48-2.289,0.823-5.356-1.467-6.838
		c-1.105-0.715-2.426-0.958-3.722-0.682c-1.292,0.277-2.399,1.04-3.116,2.148C462.192,606.877,462.85,609.944,465.14,611.426z
		 M469.727,606.865c0.109,0.509,0.014,1.028-0.269,1.465c-0.281,0.437-0.716,0.736-1.221,0.845
		c-0.513,0.107-1.035,0.012-1.469-0.269c-0.437-0.281-0.736-0.717-0.845-1.225c-0.109-0.509-0.014-1.028,0.269-1.465
		c0.281-0.437,0.717-0.736,1.224-0.845c0.139-0.03,0.278-0.045,0.415-0.045c0.371,0,0.734,0.108,1.051,0.313
		C469.318,605.922,469.618,606.357,469.727,606.865z"/>
	<path d="M482.845,600.531c-0.337-0.219-0.742-0.291-1.129-0.207c-0.393,0.084-0.728,0.315-0.945,0.652l-2.239,3.461
		c-0.022-0.169-0.047-0.339-0.083-0.507c-0.355-1.656-1.332-3.074-2.751-3.992l-15.277-9.883c-1.413-0.913-3.108-1.221-4.767-0.87
		c-0.125,0.027-0.245,0.064-0.367,0.098l2.186-3.379c0.448-0.692,0.249-1.622-0.444-2.074c-0.337-0.218-0.737-0.29-1.13-0.207
		c-0.393,0.084-0.729,0.315-0.945,0.652l-3.887,6.009c-0.051,0.009-0.102,0.006-0.153,0.017c-1.098,0.235-2.038,0.883-2.646,1.824
		l-2.913,4.503c-0.607,0.938-0.812,2.06-0.577,3.16c0.134,0.622,0.412,1.184,0.787,1.673c-0.612,1.262-0.791,2.683-0.491,4.079
		c0.354,1.656,1.331,3.073,2.75,3.991l15.278,9.883c1.026,0.663,2.213,1.014,3.432,1.014c1.885,0,3.637-0.821,4.832-2.229
		c0.345,0.091,0.701,0.144,1.062,0.144c1.435,0,2.755-0.717,3.532-1.918l2.913-4.503c0.607-0.938,0.812-2.06,0.577-3.16
		c-0.011-0.051-0.034-0.096-0.047-0.146l3.888-6.011C483.738,601.913,483.539,600.982,482.845,600.531z M474.068,602.458
		c0.743,0.481,1.256,1.228,1.443,2.103c0.188,0.872,0.026,1.763-0.455,2.508l-5.718,8.839c-0.481,0.743-1.228,1.256-2.104,1.443
		c-0.866,0.189-1.759,0.029-2.506-0.455l-15.278-9.883c-0.743-0.481-1.256-1.228-1.442-2.102c-0.188-0.874-0.026-1.765,0.455-2.509
		l5.718-8.84c0.48-0.744,1.227-1.256,2.101-1.442c0.238-0.052,0.479-0.077,0.715-0.077c0.636,0,1.257,0.184,1.795,0.532
		L474.068,602.458z"/>
</g>
<g>
	<path d="M53.79,31.822c-2.521,0.289-4.232,0.377-6.056,0.012c-1.082-0.217-3.086-4.964-4.068-7.288
		c-0.403-0.954-0.784-1.854-1.12-2.564c-2.73-5.75-11.75-6.466-15.5-6.507c-4.354-0.056-6.862,1.06-11.238,4.974
		c-1.816,1.624-2.769,3.541-2.615,5.259c0.103,1.144,0.698,2.105,1.675,2.706c2.878,1.771,5.353-0.81,7.166-2.701
		c0.648-0.676,1.26-1.314,1.805-1.699c1.53-1.079,5.467-1.149,6.649-0.54c-0.316,0.72-2.339,2.907-6.025,6.511l-0.093,0.091
		c-0.545,0.533-1.052,1.029-1.488,1.465c-1.025,1.025-1.499,2.095-1.409,3.18c0.051,0.611,0.272,1.16,0.599,1.667
		c-0.208,0.201-0.422,0.41-0.656,0.637c-2.333,2.271-5.237,5.098-7.918,6.66c-1.05,0.611-4.26,1.101-6.847,1.496
		c-1.068,0.162-2.077,0.317-2.8,0.463c-2.164,0.439-3.119,2.353-2.944,4.018c0.163,1.559,1.36,3.132,3.669,3.132h0.04
		c0.001,0,0.003,0,0.004,0c6.352-0.057,12.154-1.843,14.856-3.478c2.796-1.693,7.719-6.605,9.02-8.185
		c1.679,1.003,3.677,2.276,3.945,2.92c0.227,0.544-1.625,2.407-2.739,3.527c-0.898,0.903-1.827,1.837-2.661,2.846
		c-1.634,1.978-1.295,3.946-0.434,5.129c0.712,0.974,1.852,1.557,3.049,1.557c0.475,0,0.94-0.089,1.382-0.267
		c2.843-1.136,11.134-10.133,11.454-13.001c0.135-1.211-1.499-3.084-5.48-7.118c-0.586-0.594-1.53-1.551-1.784-1.843
		c0.069-0.227,0.362-0.847,1.023-1.533c0.741-0.77,1.258-0.877,1.362-0.83c0.873,0.397,2.535,2.602,3.531,3.924
		c0.41,0.545,0.835,1.109,1.168,1.508c1.494,1.788,5.098,1.876,10.021,1.812c2.706-0.037,4.752-1.013,5.612-2.678
		c0.609-1.181,0.526-2.584-0.218-3.662C56.894,32.218,55.462,31.632,53.79,31.822z M35.025,32.17
		c-0.749,0.778-1.882,2.366-1.377,3.376c0.175,0.349,0.707,0.903,2.189,2.404c4.291,4.35,4.953,5.445,4.966,5.703
		c-0.219,1.968-7.992,10.652-10.396,11.614c-0.871,0.347-1.871,0.053-2.43-0.715c-0.631-0.864-0.493-2.004,0.371-3.048
		c0.783-0.948,1.686-1.856,2.563-2.738c2.099-2.111,3.757-3.779,3.095-5.369c-0.564-1.353-3.188-2.883-5.995-4.521
		c-0.941-0.549-1.914-1.116-2.457-1.504c-1.136-0.81-2.308-1.776-2.392-2.792c-0.046-0.565,0.263-1.184,0.919-1.841
		c0.444-0.444,0.964-0.952,1.523-1.498l0.045-0.045c4.549-4.448,6.579-6.641,6.579-7.877c0-0.32-0.124-0.921-0.957-1.353
		c-0.707-0.366-1.952-0.584-3.33-0.584c-2.078,0-3.977,0.465-5.08,1.244c-0.68,0.48-1.35,1.178-2.066,1.925
		c-1.784,1.861-3.324,3.47-5.039,2.416c-0.517-0.318-0.819-0.807-0.873-1.413c-0.106-1.178,0.644-2.579,2.055-3.841
		c4.045-3.618,6.232-4.585,10.087-4.543c3.433,0.038,11.668,0.652,13.987,5.539c0.319,0.671,0.693,1.557,1.108,2.538
		c2.005,4.745,3.456,7.883,5.282,8.248c2.039,0.409,3.886,0.319,6.582,0.012c1.026-0.118,1.878,0.199,2.343,0.875
		c0.393,0.57,0.433,1.287,0.107,1.919c-0.563,1.091-2.067,1.732-4.127,1.76c-4.007,0.057-7.688,0.003-8.695-1.202
		c-0.299-0.358-0.696-0.885-1.12-1.447c-1.298-1.722-2.914-3.867-4.179-4.442C37.373,30.542,36.173,30.98,35.025,32.17z
		 M23.193,37.662c0.425,0.385,0.893,0.748,1.375,1.092c0.571,0.408,1.44,0.918,2.444,1.504c-1.36,1.593-5.893,6.078-8.416,7.605
		c-2.511,1.52-7.971,3.179-14.023,3.233c-1.682,0-1.941-1.234-1.981-1.611c-0.094-0.903,0.423-1.941,1.595-2.178
		c0.69-0.14,1.691-0.293,2.759-0.456c2.848-0.434,6.076-0.926,7.406-1.702c2.86-1.666,5.848-4.575,8.253-6.915
		C22.806,38.037,23.002,37.847,23.193,37.662z"/>
	<path d="M43.372,9.381c-0.73,0.157-1.356,0.589-1.763,1.216c-0.405,0.626-0.542,1.374-0.387,2.105
		c0.157,0.73,0.589,1.356,1.216,1.763c0.454,0.293,0.978,0.447,1.515,0.447c0.956,0,1.835-0.477,2.352-1.277
		c0.406-0.627,0.543-1.374,0.387-2.105c-0.157-0.731-0.589-1.357-1.216-1.763C44.853,9.364,44.103,9.226,43.372,9.381z
		 M42.883,12.347c-0.062-0.288-0.008-0.582,0.152-0.829c0.159-0.247,0.405-0.417,0.692-0.478c0.078-0.017,0.157-0.025,0.235-0.025
		c0.21,0,0.415,0.061,0.594,0.177c0.246,0.159,0.416,0.405,0.478,0.693c0.062,0.287,0.008,0.581-0.152,0.828
		c-0.159,0.247-0.405,0.417-0.691,0.478c-0.291,0.062-0.584,0.008-0.83-0.152C43.114,12.881,42.944,12.634,42.883,12.347z"/>
	<path d="M48.676,18.5c0.453,0.293,0.977,0.448,1.516,0.448c0.956,0,1.835-0.478,2.352-1.278c0.837-1.295,0.466-3.03-0.83-3.868
		c-0.625-0.404-1.372-0.542-2.105-0.386c-0.731,0.157-1.357,0.588-1.763,1.215C47.009,15.927,47.381,17.662,48.676,18.5z
		 M51.271,15.92c0.062,0.288,0.008,0.582-0.152,0.829c-0.159,0.247-0.405,0.417-0.691,0.478c-0.29,0.061-0.586,0.007-0.831-0.152
		c-0.247-0.159-0.417-0.405-0.478-0.693c-0.062-0.288-0.008-0.582,0.152-0.829c0.159-0.247,0.405-0.417,0.692-0.478
		c0.078-0.017,0.157-0.025,0.235-0.025c0.21,0,0.415,0.061,0.594,0.177C51.04,15.386,51.21,15.633,51.271,15.92z"/>
	<path d="M58.692,12.337c-0.191-0.124-0.42-0.165-0.639-0.117c-0.222,0.048-0.412,0.178-0.535,0.369l-1.266,1.958
		c-0.013-0.096-0.027-0.191-0.047-0.287c-0.201-0.937-0.754-1.739-1.556-2.258l-8.642-5.591c-0.799-0.517-1.758-0.691-2.696-0.492
		c-0.071,0.015-0.139,0.036-0.208,0.055l1.236-1.911c0.254-0.392,0.141-0.918-0.251-1.173c-0.191-0.123-0.417-0.164-0.639-0.117
		c-0.222,0.048-0.412,0.178-0.535,0.369L40.715,6.54c-0.029,0.005-0.058,0.004-0.087,0.01c-0.621,0.133-1.153,0.499-1.497,1.032
		l-1.648,2.547c-0.344,0.53-0.46,1.165-0.326,1.788c0.076,0.352,0.233,0.67,0.445,0.946c-0.346,0.714-0.447,1.518-0.278,2.308
		c0.201,0.937,0.753,1.739,1.556,2.258l8.643,5.591c0.581,0.375,1.252,0.573,1.941,0.573c1.066,0,2.057-0.464,2.734-1.261
		c0.195,0.051,0.396,0.082,0.601,0.082c0.812,0,1.558-0.405,1.998-1.085l1.648-2.547c0.344-0.53,0.46-1.165,0.326-1.788
		c-0.006-0.029-0.019-0.054-0.026-0.083l2.2-3.401C59.198,13.119,59.085,12.592,58.692,12.337z M53.727,13.427
		c0.42,0.272,0.71,0.694,0.817,1.189c0.106,0.493,0.015,0.997-0.257,1.419l-3.235,5c-0.272,0.42-0.694,0.71-1.191,0.817
		c-0.49,0.107-0.995,0.017-1.418-0.257l-8.643-5.591c-0.42-0.272-0.71-0.694-0.816-1.189c-0.107-0.494-0.015-0.998,0.257-1.419
		l3.235-5.001c0.272-0.421,0.694-0.71,1.188-0.816C43.8,7.55,43.936,7.535,44.07,7.535c0.36,0,0.711,0.104,1.015,0.301
		L53.727,13.427z"/>
</g>
</svg>
