<?xml version="1.0" encoding="utf-8"?>
<!-- Generator: Adobe Illustrator 25.2.1, SVG Export Plug-In . SVG Version: 6.00 Build 0)  -->
<svg version="1.1" id="Layer_1" xmlns="http://www.w3.org/2000/svg" xmlns:xlink="http://www.w3.org/1999/xlink" x="0px" y="0px"
	 viewBox="0 0 60 60" style="enable-background:new 0 0 60 60;" xml:space="preserve">
<g>
	<path d="M54.297,26.322l-1.873-2.395c0.101-0.233,0.157-0.489,0.157-0.759c0-0.393-0.119-0.758-0.323-1.063v-4.242
		c0-0.153-0.124-0.277-0.277-0.277h-0.284v-7.113c0-4.321-3.515-7.837-7.835-7.837c-4.317,0-7.83,3.516-7.83,7.837v12.213
		c-0.013,0.032-0.021,0.068-0.021,0.105v25.264c0,5.158-4.194,9.355-9.35,9.356c-5.156-0.001-9.351-4.198-9.351-9.356v-7.949
		c0.063-0.001,0.125,0,0.188-0.002c0.467-0.013,0.82-0.357,0.82-0.803c0-0.448-0.354-0.792-0.824-0.799
		c-0.67-0.01-1.36-0.01-2.055-0.004c-0.244,0.003-0.463,0.093-0.618,0.253c-0.145,0.149-0.222,0.351-0.218,0.566
		c0.009,0.431,0.343,0.747,0.796,0.774v7.963c0,6.087,4.854,11.049,10.891,11.248c0.029,0.01,0.059,0.018,0.091,0.018h0.27
		c0.004,0,0.007,0.001,0.011,0.001h0.277c0.035,0,0.067-0.008,0.098-0.02c6.034-0.202,10.884-5.163,10.884-11.247V32.02
		c0.013-0.032,0.021-0.068,0.021-0.105V10.474c0-3.268,2.655-5.926,5.919-5.926c3.267,0,5.925,2.659,5.925,5.926v7.113h-0.453
		c-0.153,0-0.277,0.124-0.277,0.277v4.262c0,0.1,0.055,0.183,0.134,0.232c-0.273,0.168-0.457,0.468-0.457,0.811
		c0,0.27,0.057,0.526,0.158,0.759l-1.857,2.375c-1.756,0.142-3.142,1.613-3.142,3.405v6.533c0,1.885,1.534,3.419,3.419,3.419h6.533
		c1.885,0,3.419-1.534,3.419-3.419v-6.533C57.263,27.976,55.968,26.545,54.297,26.322z M50.424,25.068
		c0.078,0.01,0.154,0.024,0.234,0.024c0.08,0,0.156-0.014,0.234-0.024l0.954,1.22H49.47L50.424,25.068z M55.352,36.24
		c0,0.832-0.676,1.509-1.508,1.509h-6.533c-0.832,0-1.508-0.677-1.508-1.509v-6.533c0-0.133,0.023-0.26,0.055-0.383l0.549,0.429
		c0.119,0.095,0.293,0.074,0.389-0.048l1.179-1.507h5.365l1.179,1.507c0.055,0.07,0.136,0.107,0.218,0.107
		c0.06,0,0.12-0.019,0.17-0.059l0.417-0.326c0.017,0.091,0.028,0.184,0.028,0.279V36.24z"/>
	<path d="M31.297,39.76l-1.46,1.235c-0.315-0.168-0.642-0.312-0.978-0.429l-0.167-1.999c-0.012-0.143-0.132-0.254-0.276-0.254
		h-3.461c-0.144,0-0.264,0.11-0.276,0.254l-0.159,1.906c-0.342,0.103-0.676,0.233-0.996,0.387l-1.53-1.295
		c-0.11-0.094-0.273-0.087-0.375,0.016l-2.448,2.447c-0.102,0.102-0.109,0.265-0.016,0.375l1.235,1.459
		c-0.168,0.314-0.312,0.642-0.43,0.978l-1.998,0.167c-0.143,0.012-0.254,0.132-0.254,0.276l-0.001,3.46
		c0,0.144,0.11,0.264,0.254,0.276l1.906,0.159c0.103,0.342,0.233,0.675,0.387,0.996l-1.295,1.53
		c-0.093,0.11-0.086,0.273,0.016,0.375l2.447,2.448c0.102,0.103,0.265,0.109,0.375,0.016l1.459-1.235
		c0.315,0.168,0.643,0.312,0.979,0.429l0.166,1.998c0.012,0.144,0.132,0.254,0.276,0.254l3.461,0.001
		c0.144,0,0.264-0.11,0.276-0.254l0.159-1.906c0.341-0.103,0.675-0.233,0.996-0.387l1.53,1.295c0.11,0.093,0.273,0.086,0.375-0.016
		l2.447-2.447c0.102-0.102,0.109-0.265,0.016-0.375l-1.235-1.459c0.168-0.314,0.312-0.642,0.43-0.978l1.999-0.167
		c0.143-0.012,0.254-0.132,0.254-0.276v-3.46c0-0.144-0.11-0.264-0.254-0.276l-1.906-0.16c-0.103-0.342-0.233-0.675-0.387-0.995
		l1.295-1.531c0.093-0.11,0.086-0.273-0.016-0.375l-2.447-2.448C31.571,39.674,31.407,39.668,31.297,39.76z M30.617,44.091
		l0.256,0.418c0.319,0.521,0.538,1.09,0.652,1.69l0.097,0.506c0.023,0.122,0.126,0.214,0.249,0.224l1.604,0.134v0.456l-1.64,0.136
		c-0.119,0.01-0.219,0.095-0.247,0.211l-0.115,0.477c-0.143,0.595-0.389,1.152-0.732,1.656l-0.289,0.426
		c-0.07,0.103-0.063,0.24,0.017,0.335l1.039,1.228l-0.322,0.322l-1.255-1.063c-0.092-0.077-0.221-0.087-0.324-0.025l-0.418,0.255
		c-0.521,0.319-1.089,0.538-1.69,0.653l-0.506,0.096c-0.122,0.023-0.214,0.125-0.224,0.249l-0.134,1.604h-0.455l-0.137-1.641
		c-0.01-0.119-0.095-0.218-0.212-0.246l-0.476-0.114c-0.594-0.142-1.15-0.389-1.656-0.732l-0.426-0.29
		c-0.102-0.07-0.24-0.063-0.335,0.017l-1.228,1.04l-0.322-0.323l1.063-1.255c0.077-0.091,0.087-0.222,0.025-0.324l-0.256-0.418
		c-0.319-0.52-0.538-1.088-0.653-1.689l-0.096-0.506c-0.023-0.122-0.125-0.214-0.249-0.224l-1.604-0.134l0.001-0.455l1.641-0.137
		c0.119-0.01,0.218-0.095,0.246-0.212l0.114-0.476c0.142-0.594,0.389-1.151,0.732-1.656l0.29-0.426
		c0.07-0.103,0.063-0.24-0.017-0.335l-1.04-1.228l0.323-0.322l1.255,1.063c0.091,0.077,0.222,0.087,0.324,0.025l0.418-0.256
		c0.519-0.319,1.088-0.538,1.688-0.653l0.507-0.096c0.122-0.023,0.214-0.125,0.225-0.249l0.134-1.604h0.455l0.137,1.64
		c0.01,0.119,0.095,0.218,0.211,0.246l0.476,0.115c0.594,0.143,1.151,0.389,1.656,0.732l0.426,0.29
		c0.103,0.071,0.24,0.063,0.335-0.017l1.228-1.04l0.322,0.323l-1.063,1.255C30.565,43.859,30.555,43.989,30.617,44.091z"/>
	<path d="M26.548,43.742c-1.88,0-3.41,1.53-3.41,3.41s1.53,3.41,3.41,3.41s3.41-1.53,3.41-3.41S28.428,43.742,26.548,43.742z
		 M26.548,48.651c-0.826,0-1.499-0.673-1.499-1.499c0-0.827,0.673-1.499,1.499-1.499s1.499,0.673,1.499,1.499
		C28.047,47.978,27.374,48.651,26.548,48.651z"/>
	<path d="M45.321,16.461l0.085-1.019l0.831,0.703c0.11,0.093,0.273,0.087,0.375-0.016l1.95-1.95
		c0.102-0.102,0.109-0.265,0.016-0.375l-0.66-0.78l1.085-0.091c0.143-0.012,0.254-0.132,0.254-0.276L49.258,9.9
		c0-0.144-0.11-0.264-0.254-0.276l-1.019-0.085l0.703-0.831c0.093-0.11,0.086-0.273-0.016-0.375l-1.95-1.95
		c-0.102-0.102-0.265-0.108-0.375-0.016l-0.78,0.66l-0.091-1.085c-0.012-0.143-0.132-0.254-0.276-0.254h-2.758
		c-0.144,0-0.264,0.11-0.276,0.254l-0.085,1.019l-0.832-0.704c-0.11-0.093-0.274-0.087-0.375,0.016l-1.95,1.95
		c-0.102,0.102-0.109,0.265-0.016,0.375l0.66,0.78l-1.085,0.091C38.34,9.481,38.23,9.601,38.23,9.745v2.758
		c0,0.144,0.11,0.264,0.254,0.276l1.018,0.085l-0.703,0.831c-0.093,0.11-0.086,0.273,0.016,0.375l1.95,1.951
		c0.101,0.103,0.265,0.109,0.375,0.016l0.78-0.661l0.091,1.086c0.012,0.143,0.132,0.254,0.276,0.254h2.758
		C45.189,16.716,45.309,16.605,45.321,16.461z"/>
	<path d="M14.503,34.256c0.204,0.017,0.41,0.021,0.614,0.021c0.127,0,0.253-0.002,0.378-0.004l0.271-0.003
		c0.255-0.002,0.511-0.009,0.766-0.017c0.503-0.014,1.023-0.03,1.528,0.003c1.156,0.078,2.312-0.806,2.531-1.919
		c0.254-1.287,0.9-2.388,1.974-3.367c2.328-2.122,3.364-4.771,3.079-7.876c-0.436-4.742-4.393-8.315-9.208-8.315
		c-0.01,0.003-0.025,0-0.039,0c-0.913,0-1.855,0.154-2.801,0.458c-3.814,1.224-7.172,5.226-6.211,10.509
		c0.373,2.048,1.353,3.787,2.915,5.168c1.087,0.961,1.757,2.09,2.049,3.449C12.57,33.402,13.436,34.163,14.503,34.256z
		 M11.418,27.775c-0.974-0.847-1.686-1.867-2.115-3.033c-1.469-3.988,0.466-8.313,4.404-9.847c0.902-0.352,1.837-0.525,2.765-0.525
		c1.452,0,2.888,0.424,4.163,1.257c2.088,1.365,3.346,3.568,3.45,6.044c0.101,2.388-0.761,4.432-2.56,6.075
		c-1.333,1.217-2.148,2.598-2.494,4.222c-0.095,0.442-0.397,0.688-0.854,0.693c-0.402,0.006-0.804,0.004-1.208,0.003l-0.504-0.001
		c-0.009,0-0.019,0.001-0.027,0.003l-0.525,0.001c-0.368,0-0.735,0.001-1.104-0.001c-0.515-0.003-0.806-0.233-0.916-0.727
		C13.524,30.282,12.691,28.881,11.418,27.775z"/>
	<path d="M17.963,38.16c0.112,0,0.224,0.002,0.336,0.003c0.125,0.002,0.252,0.003,0.38,0.003c0.144,0,0.289-0.002,0.433-0.008
		c0.444-0.021,0.76-0.343,0.768-0.784c0.007-0.439-0.283-0.753-0.739-0.8c-0.099-0.011-0.198-0.019-0.297-0.019
		c-1.638-0.003-3.274-0.006-4.912-0.004c-0.525,0.001-0.882,0.319-0.889,0.791c-0.003,0.224,0.071,0.419,0.213,0.563
		c0.162,0.164,0.397,0.252,0.682,0.253c0.586,0.004,1.173,0.002,1.76,0.002L17.963,38.16z"/>
	<path d="M16.468,34.609c-0.022,0-0.043,0.008-0.062,0.021h-0.678c-0.617,0-1.232,0-1.848-0.001c-0.001,0-0.003,0-0.004,0
		c-0.439,0-0.796,0.317-0.832,0.74c-0.034,0.41,0.246,0.749,0.679,0.824c0.135,0.023,0.271,0.027,0.4,0.027c0.015,0,0.03,0,0.045,0
		c1.628-0.001,3.256-0.004,4.884-0.008c0.234-0.001,0.451-0.089,0.608-0.249c0.146-0.148,0.225-0.342,0.222-0.547
		c-0.005-0.422-0.398-0.808-0.826-0.809H16.468z"/>
	<path d="M27.461,22.018c-0.003,0.197,0.077,0.389,0.226,0.54c0.178,0.182,0.436,0.272,0.698,0.273c0.18,0,0.36-0.006,0.54-0.012
		c0.177-0.006,0.354-0.012,0.531-0.012c0.325-0.006,0.656,0.006,0.984,0.011c0.376,0.006,0.755,0.012,1.129,0.012
		c0.501-0.001,0.855-0.327,0.862-0.792c0.004-0.213-0.069-0.404-0.213-0.55c-0.16-0.165-0.396-0.256-0.663-0.258
		c-0.393-0.002-0.787-0.002-1.18-0.001l-0.421,0l-0.492,0c-0.369,0-0.739-0.001-1.107,0.001
		C27.826,21.233,27.467,21.55,27.461,22.018z"/>
	<path d="M8.458,29.524c-0.313-0.158-0.66-0.091-0.928,0.175c-0.785,0.776-1.566,1.558-2.342,2.343
		c-0.161,0.163-0.25,0.37-0.252,0.583c-0.002,0.212,0.083,0.413,0.237,0.565c0.16,0.157,0.356,0.235,0.554,0.235
		c0.208,0,0.419-0.086,0.592-0.258c0.743-0.736,1.541-1.531,2.338-2.348c0.102-0.104,0.161-0.235,0.204-0.332
		c0.013-0.029,0.024-0.056,0.035-0.074c0.011-0.02,0.016-0.041,0.016-0.062C8.907,29.938,8.763,29.675,8.458,29.524z"/>
	<path d="M5.453,22.032c0.003-0.466-0.348-0.794-0.854-0.798c-0.376-0.003-0.755-0.001-1.133-0.001l-0.495,0l-0.438-0.001
		c-0.396-0.001-0.793-0.002-1.19,0.002c-0.484,0.005-0.832,0.323-0.846,0.772c-0.007,0.215,0.069,0.417,0.215,0.568
		c0.155,0.161,0.376,0.251,0.621,0.253c0.489,0.003,0.978,0.005,1.466,0.005c0.604,0,1.208-0.002,1.811-0.006
		C5.063,22.824,5.45,22.46,5.453,22.032z"/>
	<path d="M7.548,14.239c0.163,0.16,0.365,0.24,0.567,0.24c0.2,0,0.399-0.079,0.558-0.235c0.323-0.32,0.318-0.813-0.012-1.146
		c-0.688-0.697-1.505-1.521-2.345-2.342c-0.107-0.105-0.246-0.168-0.347-0.213c-0.033-0.015-0.062-0.028-0.084-0.041
		c-0.022-0.012-0.048-0.019-0.071-0.016c-0.422,0.033-0.679,0.19-0.808,0.494c-0.137,0.322-0.079,0.633,0.161,0.875
		C5.958,12.653,6.749,13.451,7.548,14.239z"/>
	<path d="M24.878,14.477c0.001,0,0.003,0,0.005,0c0.018,0,0.036-0.004,0.053-0.012c0.017-0.008,0.041-0.016,0.068-0.025
		c0.094-0.033,0.236-0.082,0.338-0.182c0.835-0.815,1.651-1.63,2.426-2.421c0.302-0.308,0.293-0.793-0.021-1.104
		c-0.314-0.311-0.798-0.319-1.104-0.021c-0.783,0.768-1.582,1.568-2.441,2.447c-0.222,0.227-0.264,0.54-0.115,0.86
		C24.225,14.316,24.476,14.461,24.878,14.477z"/>
	<path d="M27.194,33.424c0.003,0,0.007,0,0.01,0c0.208-0.003,0.406-0.092,0.558-0.249c0.311-0.325,0.292-0.807-0.043-1.146
		c-0.739-0.748-1.533-1.547-2.325-2.321c-0.101-0.098-0.227-0.159-0.348-0.218c-0.052-0.025-0.103-0.05-0.151-0.077
		c-0.025-0.016-0.055-0.02-0.084-0.015c-0.375,0.068-0.606,0.233-0.729,0.518c-0.142,0.327-0.082,0.647,0.169,0.9
		c0.778,0.784,1.556,1.567,2.341,2.344C26.763,33.33,26.977,33.424,27.194,33.424z"/>
	<path d="M16.485,11.021c0.004,0,0.009,0,0.013,0c0.166,0,0.335-0.076,0.479-0.216c0.173-0.167,0.277-0.399,0.278-0.621
		c0.005-1.092,0.007-2.185,0.003-3.278c-0.001-0.497-0.328-0.85-0.792-0.856c-0.208-0.011-0.401,0.069-0.544,0.209
		c-0.159,0.155-0.249,0.383-0.252,0.643c-0.005,0.383-0.004,0.766-0.003,1.148l0.001,0.447c-0.002,0.01-0.004,0.02-0.004,0.031
		l-0.001,0.496c-0.001,0.386-0.001,0.772,0.002,1.159C15.67,10.648,16.022,11.009,16.485,11.021z"/>
	<path d="M18.903,17.292c0.036,0.022,0.073,0.042,0.11,0.062c0.03,0.017,0.06,0.033,0.09,0.05c1.618,0.957,2.527,2.424,2.704,4.363
		c-0.005,0.385,0.09,0.684,0.276,0.865c0.131,0.128,0.306,0.195,0.506,0.195c0.014,0,0.027,0,0.041-0.001
		c0.212-0.009,0.396-0.099,0.532-0.26c0.17-0.202,0.246-0.5,0.206-0.817c-0.01-0.083-0.01-0.167-0.011-0.251
		c0-0.097-0.001-0.194-0.014-0.29c-0.202-1.544-0.834-2.881-1.879-3.974c-0.541-0.566-1.15-1.021-1.81-1.35
		c-0.208-0.104-0.433-0.125-0.633-0.062c-0.2,0.063-0.364,0.207-0.461,0.403C18.364,16.615,18.506,17.054,18.903,17.292z"/>
	<path d="M16.472,16.695c0.004,0,0.008,0,0.013,0c0.209-0.003,0.404-0.086,0.547-0.234c0.148-0.153,0.228-0.359,0.224-0.582
		c0,0,0,0,0,0c-0.004-0.216-0.087-0.412-0.234-0.552c-0.15-0.144-0.366-0.221-0.581-0.212c-0.46,0.013-0.785,0.353-0.772,0.809
		C15.682,16.366,16.026,16.695,16.472,16.695z"/>
</g>
</svg>
