<?xml version="1.0" encoding="utf-8"?>
<!-- Generator: Adobe Illustrator 25.2.1, SVG Export Plug-In . SVG Version: 6.00 Build 0)  -->
<svg version="1.1" id="Layer_1" xmlns="http://www.w3.org/2000/svg" xmlns:xlink="http://www.w3.org/1999/xlink" x="0px" y="0px"
	 viewBox="0 0 60 15" style="enable-background:new 0 0 60 15;" xml:space="preserve">
<style type="text/css">
	.st0{fill:#2EC0DD;}
</style>
<g>
	<path class="st0" d="M31.921,10.593v1.999c0,0.121,0.098,0.219,0.219,0.219h1.999c0.121,0,0.219-0.098,0.219-0.219v-1.999
		c0-0.121-0.098-0.219-0.219-0.219h-1.999C32.02,10.374,31.921,10.472,31.921,10.593z"/>
	<path class="st0" d="M25.469,12.482H23.69v-1.779h1.779V12.482z"/>
	<path class="st0" d="M29.008,0.71h2.198V2.29l-2.198-0.048V0.71z M27.745,14.283v-3.495h2.229v3.495H27.745z"/>
</g>
<g>
	<path d="M32.141,12.901h1.999c0.17,0,0.309-0.139,0.309-0.31v-1.999c0-0.17-0.139-0.309-0.309-0.309h-1.999
		c-0.171,0-0.31,0.139-0.31,0.309v1.999C31.831,12.763,31.97,12.901,32.141,12.901z M32.34,12.393v-1.6h1.6v1.6H32.34z"/>
	<path d="M25.579,10.284H23.58c-0.171,0-0.31,0.139-0.31,0.309v1.999c0,0.171,0.139,0.31,0.31,0.31h1.999
		c0.171,0,0.31-0.139,0.31-0.31v-1.999C25.888,10.423,25.75,10.284,25.579,10.284z M23.779,12.393v-1.6h1.6v1.6H23.779z"/>
	<path d="M35.819,9.124c-1.283-0.009-2.921-0.025-3.496-0.042V7.391l0.516,0.506l0.356-0.363l-0.873-0.857l-0.003-0.055h-0.053
		L29.098,3.51v-0.88l2.494,0.055V0.325h-2.97V3.51l-3.17,3.113l-0.056,0.002v0.052l-0.872,0.856l0.357,0.363l0.515-0.506v1.691
		c-0.575,0.017-2.212,0.033-3.493,0.042c-0.161,0-0.292,0.131-0.292,0.292v4.96c0,0.162,0.131,0.293,0.292,0.293h13.915
		c0.161,0,0.292-0.131,0.292-0.293v-4.96C36.109,9.255,35.979,9.124,35.819,9.124z M29.885,10.878v3.314h-2.05v-3.314H29.885z
		 M29.098,2.154V0.8h2.019v1.397L29.098,2.154z M30.067,10.401h-2.416c-0.161,0-0.292,0.131-0.292,0.293v3.498h-5.274V9.598h0.055
		c0.336-0.002,0.983-0.007,1.63-0.015c2.101-0.022,2.101-0.022,2.101-0.276V6.923l2.988-2.934l2.988,2.934v2.383
		c0,0.254,0,0.254,2.102,0.276c0.648,0.008,1.298,0.013,1.633,0.015h0.052v4.595H30.36v-3.498
		C30.36,10.532,30.229,10.401,30.067,10.401z"/>
	<path d="M28.819,5.974c-0.814,0-1.476,0.662-1.476,1.477s0.662,1.477,1.476,1.477s1.476-0.662,1.476-1.477
		S29.633,5.974,28.819,5.974z M29.786,7.45c0,0.534-0.434,0.968-0.967,0.968s-0.967-0.434-0.967-0.968s0.434-0.968,0.967-0.968
		S29.786,6.917,29.786,7.45z"/>
</g>
</svg>
