<?xml version="1.0" encoding="utf-8"?>
<!-- Generator: Adobe Illustrator 25.2.1, SVG Export Plug-In . SVG Version: 6.00 Build 0)  -->
<svg version="1.1" id="Layer_1" xmlns="http://www.w3.org/2000/svg" xmlns:xlink="http://www.w3.org/1999/xlink" x="0px" y="0px"
	 viewBox="0 0 60 60" style="enable-background:new 0 0 60 60;" xml:space="preserve">
<g>
	<path d="M52.504,47.003c-0.155-1.567-0.312-3.135-0.47-4.702c-0.193-1.917-0.388-3.834-0.584-5.751l-0.037-0.361
		c-0.048-0.484-0.097-0.97-0.16-1.452c-0.038-0.281-0.168-0.498-0.366-0.61c-0.158-0.089-0.35-0.104-0.539-0.047
		c-0.078-0.03-0.174-0.068-0.283-0.069l-0.081-0.001c-0.307-0.007-0.625-0.011-0.942,0.021c-0.048,0.006-0.075,0.004-0.084,0.007
		c-0.006-0.018-0.015-0.058-0.021-0.142c-0.093-1.376-0.204-2.752-0.316-4.127c-0.046-0.547-0.362-0.836-0.914-0.836
		c-0.003,0-0.005,0-0.008,0c-0.435,0.001-0.87,0.012-1.305,0.04c-0.014,0.001-0.025,0.001-0.035,0.001
		c-0.001-0.007-0.001-0.015-0.001-0.024c-0.003-0.216-0.02-0.433-0.036-0.649c-0.009-0.117-0.018-0.234-0.023-0.352
		c-0.047-0.806-0.345-1.061-1.136-1.047c-2.192,0.037-4.187,0.335-6.098,0.913c-3.451,1.043-6.423,2.879-8.834,5.458
		c-0.188,0.201-0.371,0.408-0.558,0.618l-0.053,0.06c-1.604-1.908-3.583-3.488-5.883-4.694c-2.163-1.134-4.504-1.86-6.959-2.157
		c-0.855-0.104-1.728-0.145-2.572-0.184l-0.249-0.011c-0.606-0.034-0.97,0.298-1.002,0.924c-0.007,0.126-0.016,0.252-0.026,0.378
		c-0.018,0.242-0.036,0.483-0.036,0.725c0,0.018,0,0.033,0,0.043c-0.017,0.001-0.042,0-0.076-0.002
		c-0.405-0.027-0.843-0.042-1.341-0.037c-0.459,0.003-0.805,0.323-0.841,0.777c-0.04,0.488-0.076,0.976-0.112,1.464l-0.088,1.175
		c-0.034,0.438-0.072,0.875-0.11,1.318l-0.029,0.34h-0.086c-0.248-0.003-0.491-0.003-0.734,0.004
		c-0.133,0.005-0.266,0.023-0.398,0.044l-0.104,0.015c-0.295-0.083-0.501-0.008-0.627,0.071c-0.14,0.09-0.316,0.277-0.358,0.66
		c-0.056,0.5-0.105,1.002-0.155,1.504L6.667,47.802c-0.137,1.365-0.274,2.73-0.4,4.096c-0.048,0.525,0.136,0.794,0.3,0.926
		c0.159,0.129,0.448,0.247,0.93,0.119c0.055,0.018,0.121,0.039,0.199,0.045l0.794,0.045c0.46,0.024,0.92,0.049,1.38,0.085
		c2.65,0.208,5.353,0.737,8.262,1.617c2.561,0.773,5.094,1.81,7.53,3.079c0.138,0.072,0.28,0.14,0.422,0.208
		c0.367,0.176,0.713,0.342,1,0.574c0.691,0.563,1.449,0.842,2.301,0.842c0.24,0,0.487-0.022,0.743-0.066
		c0.732-0.126,1.37-0.458,1.986-0.78c0.197-0.103,0.394-0.205,0.594-0.301c0.388-0.187,0.768-0.388,1.147-0.588
		c0.37-0.195,0.74-0.392,1.116-0.572c2.605-1.256,5.343-2.246,8.137-2.946c3.065-0.769,5.866-1.16,8.563-1.197
		c0.091-0.001,0.172-0.021,0.244-0.038l0.026-0.006c0.299,0.07,0.573,0.022,0.772-0.146c0.215-0.177,0.314-0.46,0.282-0.796
		C52.834,50.335,52.67,48.669,52.504,47.003z M48.229,46.712c0.042,0.554,0.081,1.107,0.119,1.651l0.026,0.367l-0.116,0.062
		c-0.058-0.005-0.115-0.011-0.173-0.017c-0.196-0.021-0.396-0.042-0.604-0.023c-4.702,0.439-9.137,1.959-13.555,4.646
		c-0.572,0.349-1.134,0.73-1.678,1.1c-0.14,0.095-0.279,0.189-0.42,0.284c0.094-0.159,0.205-0.305,0.348-0.422
		c3.021-2.49,6.076-4.18,9.34-5.168c1.844-0.559,3.499-0.83,5.059-0.83c0.033,0,0.067,0,0.102,0
		c0.297-0.011,0.549-0.084,0.711-0.255c0.164-0.173,0.238-0.421,0.22-0.735c-0.042-0.693-0.091-1.386-0.139-2.078L46.65,33.177
		c-0.038-0.579-0.074-1.159-0.109-1.734l-0.048-0.775c0.212-0.015,0.415-0.024,0.457,0.006c0.048,0.047,0.073,0.361,0.094,0.614
		c0.091,1.125,0.177,2.25,0.263,3.375l0.156,2.032c0.006,0.089,0.034,0.167,0.057,0.229l0.006,0.017l-0.004,0.042
		c-0.011,0.091-0.021,0.181-0.014,0.27L48.229,46.712z M44.865,46.77c-0.896,0.143-1.744,0.276-2.598,0.471
		c-2.391,0.544-4.779,1.534-7.098,2.943c-0.709,0.432-1.394,0.919-2.057,1.39c-0.236,0.169-0.473,0.337-0.71,0.503
		c-0.396,0.274-0.782,0.561-1.149,0.85c-0.26,0.204-0.56,0.471-0.786,0.834v-2.527c0-5.142,0-10.283,0.007-15.424
		c0-0.105,0.047-0.242,0.11-0.325c1.343-1.744,3.051-3.217,5.079-4.377c2.478-1.418,5.23-2.238,8.182-2.435l0.803-0.051
		l1.203,17.989C45.521,46.665,45.191,46.718,44.865,46.77z M32.446,56.421c2.148-1.544,4.403-2.82,6.702-3.793
		c2.458-1.04,4.936-1.729,7.364-2.047c0.55-0.072,1.12-0.1,1.671-0.125c0.284-0.014,0.569-0.027,0.853-0.047
		c0.092-0.006,0.182-0.024,0.271-0.045l0.071-0.015c0.006,0,0.012,0,0.017,0c0.395,0,0.704-0.288,0.745-0.703
		c0.015-0.158,0.004-0.319-0.011-0.506l-0.159-1.998c-0.095-1.19-0.189-2.38-0.281-3.57c-0.095-1.235-0.187-2.472-0.279-3.707
		c-0.093-1.236-0.186-2.473-0.28-3.71c-0.01-0.113-0.058-0.205-0.098-0.28l0.046-0.162l0.223-0.061l0.341,0.063l1.57,15.576
		l-0.339,0.086c-0.024-0.005-0.05-0.01-0.075-0.016c-0.111-0.023-0.246-0.043-0.371-0.043c-1.917,0.098-3.9,0.365-6.062,0.817
		c-2.787,0.582-5.463,1.415-7.954,2.478c-1.061,0.453-2.109,0.973-3.124,1.477c-0.403,0.199-0.807,0.399-1.242,0.61
		c-0.058,0.028-0.12,0.059-0.169,0.08C32.07,56.667,32.265,56.552,32.446,56.421z M19.745,53.452
		c-2.277-0.759-4.426-1.298-6.57-1.648c-1.017-0.165-2.057-0.268-3.062-0.366c-0.373-0.036-0.746-0.073-1.119-0.113
		c-0.023-0.002-0.046-0.003-0.069-0.003c-0.107,0-0.207,0.023-0.296,0.046c-0.024,0.006-0.049,0.012-0.073,0.017L8.04,51.285
		l1.568-15.567l0.396-0.058l0.149,0.041l-0.013,0.209c-0.019,0.296-0.037,0.598-0.06,0.898c-0.125,1.638-0.253,3.274-0.382,4.912
		L9.24,47.532c-0.046,0.591-0.093,1.184-0.13,1.775c-0.017,0.266-0.008,0.601,0.211,0.835s0.563,0.264,0.803,0.265
		c3.114,0.018,6.327,0.724,9.82,2.157c2.337,0.959,4.596,2.23,6.904,3.888c0.151,0.108,0.31,0.206,0.47,0.3
		c-0.059-0.021-0.127-0.052-0.208-0.096v-0.001C24.788,55.386,22.31,54.308,19.745,53.452z M12.166,31.81
		c0.03-0.372,0.06-0.744,0.092-1.16c0.16,0.01,0.32,0.008,0.5,0.006l-0.045,0.726c-0.04,0.635-0.078,1.252-0.118,1.868l-0.006,0.094
		c-0.142,2.158-0.284,4.317-0.431,6.476c-0.104,1.533-0.211,3.066-0.317,4.601l-0.152,2.162c-0.021,0.277-0.042,0.556-0.054,0.834
		c-0.012,0.284,0.069,0.525,0.235,0.697c0.157,0.164,0.377,0.25,0.636,0.25c0.017,0.004,0.04,0,0.06,0
		c2.272,0,4.649,0.516,7.265,1.576c2.518,1.021,4.952,2.512,7.235,4.43c0.078,0.065,0.148,0.143,0.213,0.229
		c-5.386-3.622-10.763-5.558-16.399-5.909L12.166,31.81z M28.781,53.814c-0.248-0.306-0.507-0.616-0.809-0.883
		c-1.112-0.981-2.385-1.88-4.006-2.829c-2.704-1.583-5.351-2.601-8.095-3.11c-0.556-0.103-1.125-0.166-1.675-0.227
		c-0.244-0.026-0.488-0.054-0.731-0.084c-0.023-0.003-0.046-0.006-0.07-0.008l1.206-18.053l0.25,0.012
		c0.344,0.016,0.681,0.03,1.016,0.063c2.604,0.256,5.001,0.957,7.126,2.083c2.36,1.25,4.215,2.792,5.67,4.712
		c0.063,0.084,0.108,0.231,0.108,0.358c0.008,5.709,0.009,11.419,0.009,17.129V53.814z"/>
	<path d="M24.521,18.64c-0.338-1.317-0.676-2.634-1.01-3.952c-0.054-0.213-0.167-0.656-0.632-0.717
		c-0.257-0.032-0.553,0.028-0.75,0.157c-0.289,0.189-0.377,0.513-0.263,0.962l2.718,10.618c0.039,0.15,0.075,0.301,0.111,0.452
		c0.067,0.281,0.134,0.562,0.216,0.838c0.115,0.387,0.441,0.632,0.821,0.632c0.047,0,0.094-0.004,0.142-0.011
		c0.407-0.064,0.693-0.438,0.695-0.908l-0.018-0.111c-0.013-0.066-0.03-0.15-0.052-0.232L24.521,18.64z"/>
	<path d="M15.583,17.208c-0.209-0.036-0.421,0.021-0.617,0.163c-0.422,0.307-0.477,0.795-0.141,1.275
		c0.099,0.142,0.201,0.281,0.303,0.42c0.131,0.18,0.263,0.359,0.388,0.543c0.675,0.992,1.348,1.986,2.021,2.979l1.393,2.055
		c0.36,0.53,0.721,1.06,1.089,1.584c0.18,0.257,0.417,0.39,0.682,0.39c0.094,0,0.192-0.017,0.292-0.051
		c0.448-0.15,0.557-0.537,0.601-0.815l0.012-0.078l-0.076-0.16c-0.041-0.092-0.088-0.195-0.149-0.288
		c-0.177-0.27-0.36-0.535-0.543-0.801l-1.289-1.885c-1.11-1.625-2.22-3.25-3.333-4.873C15.99,17.339,15.747,17.237,15.583,17.208z"
		/>
	<path d="M43.096,17.656c-0.352,0.507-0.699,1.016-1.047,1.525l-3.746,5.481l-0.126,0.179c-0.116,0.164-0.231,0.327-0.327,0.501
		c-0.147,0.268-0.144,0.582,0.011,0.84c0.165,0.274,0.473,0.437,0.826,0.437c0.005,0,0.01,0,0.015,0l0.086-0.001l0.067-0.054
		c0.02-0.016,0.047-0.033,0.076-0.053c0.113-0.075,0.269-0.178,0.38-0.335c0.528-0.749,1.045-1.507,1.562-2.264l3.617-5.282
		c0.316-0.461,0.263-0.951-0.137-1.25c-0.192-0.145-0.408-0.202-0.622-0.167C43.489,17.251,43.27,17.404,43.096,17.656z"/>
	<path d="M28.811,28.244c0.003,0.248,0.107,0.602,0.325,0.792c0.136,0.118,0.345,0.167,0.542,0.167c0.104,0,0.205-0.014,0.291-0.038
		c0.535-0.153,0.534-0.709,0.533-0.919l-0.007-7.581l0-0.076c0.001-0.155,0-0.311-0.025-0.461c-0.041-0.238-0.187-0.446-0.399-0.571
		c-0.21-0.123-0.458-0.148-0.682-0.07c-0.269,0.096-0.589,0.331-0.587,0.91c0.003,0.955,0.003,1.909,0.002,2.864l-0.006,2.039
		C28.797,26.28,28.795,27.262,28.811,28.244z"/>
	<path d="M28.806,16.833c0,0.166,0.005,0.341,0.064,0.506v0c0.127,0.354,0.404,0.552,0.768,0.552c0.024,0,0.049-0.001,0.074-0.002
		c0.396-0.029,0.671-0.269,0.755-0.658c0.03-0.136,0.029-0.271,0.028-0.448L30.5,12.52c0-0.817,0.001-1.635-0.001-2.453
		c-0.002-0.525-0.354-0.909-0.836-0.913c-0.492-0.001-0.831,0.353-0.855,0.887c-0.004,0.084-0.003,0.169-0.003,0.253l0,0.805
		C28.804,13.01,28.803,14.922,28.806,16.833z"/>
	<path d="M33.445,27.616c0.046,0.007,0.092,0.011,0.137,0.011c0.395,0,0.727-0.263,0.832-0.676c0.056-0.217,0.105-0.435,0.155-0.653
		c0.053-0.232,0.106-0.463,0.166-0.694c0.218-0.845,0.438-1.688,0.659-2.533c0.244-0.934,0.488-1.868,0.729-2.804
		c0.059-0.228,0.022-0.46-0.1-0.655c-0.126-0.2-0.336-0.342-0.578-0.391c-0.373-0.078-0.838,0.09-1.016,0.783l-1.328,5.182
		c-0.094,0.368-0.185,0.736-0.27,1.078l-0.09,0.384C32.721,27.151,33.009,27.55,33.445,27.616z"/>
	<path d="M35.98,18.626h0.008l0.007,0c0.265-0.013,0.579-0.206,0.686-0.606c0.37-1.395,0.737-2.789,1.093-4.187
		c0.113-0.442-0.148-0.877-0.594-0.992c-0.477-0.122-0.916,0.125-1.033,0.573c-0.372,1.395-0.736,2.791-1.089,4.19
		c-0.061,0.239-0.012,0.477,0.137,0.669C35.366,18.496,35.653,18.625,35.98,18.626z"/>
	<path d="M21.276,12.705c0.088,0.319,0.4,0.525,0.749,0.525c0.078,0,0.158-0.01,0.237-0.032c0.424-0.114,0.69-0.514,0.62-0.931
		c-0.03-0.173-0.075-0.344-0.121-0.514l-0.197-0.771c-0.153-0.604-0.305-1.207-0.462-1.809c-0.124-0.477-0.506-0.745-0.96-0.672
		c-0.432,0.072-0.712,0.403-0.713,0.865l0.222,0.935C20.853,11.103,21.057,11.906,21.276,12.705z"/>
	<path d="M37.299,12.242c0.071,0.018,0.143,0.026,0.213,0.026c0.378,0,0.704-0.251,0.814-0.656c0.096-0.354,0.186-0.709,0.275-1.064
		l0.256-0.996l0.029-0.146c-0.003-0.486-0.289-0.841-0.729-0.905c-0.438-0.059-0.826,0.202-0.944,0.644
		c-0.183,0.682-0.356,1.365-0.522,2.051C36.573,11.679,36.835,12.129,37.299,12.242z"/>
	<path d="M29.227,8.242c0.142,0.078,0.288,0.116,0.432,0.116c0.195,0,0.386-0.071,0.554-0.212c0.28-0.233,0.361-0.657,0.209-1.04
		c0.03-0.075,0.065-0.166,0.069-0.27c0.011-0.25,0.009-0.501,0.006-0.752l-0.002-0.562c0-0.379,0-0.759-0.018-1.137
		c-0.021-0.43-0.328-0.736-0.766-0.761c-0.25-0.007-0.481,0.062-0.645,0.21c-0.141,0.128-0.223,0.305-0.231,0.499
		c-0.017,0.418-0.004,0.839,0.008,1.247l0.013,0.501l-0.004,0.547l0.001,0.494C28.735,7.639,28.872,8.047,29.227,8.242z"/>
	<path d="M12.776,8.844h0.959v0.959c0,0.466,0.379,0.846,0.846,0.846s0.846-0.379,0.846-0.846V8.844h0.959
		c0.466,0,0.846-0.379,0.846-0.846s-0.379-0.846-0.846-0.846h-0.959V6.193c0-0.466-0.379-0.846-0.846-0.846
		s-0.846,0.379-0.846,0.846v0.959h-0.959c-0.466,0-0.846,0.379-0.846,0.846S12.31,8.844,12.776,8.844z"/>
	<path d="M23.761,10.306h0.959v0.959c0,0.466,0.379,0.846,0.846,0.846s0.846-0.379,0.846-0.846v-0.959h0.959
		c0.466,0,0.846-0.379,0.846-0.846s-0.379-0.846-0.846-0.846h-0.959V7.655c0-0.466-0.379-0.846-0.846-0.846
		s-0.846,0.379-0.846,0.846v0.959h-0.959c-0.466,0-0.846,0.379-0.846,0.846S23.295,10.306,23.761,10.306z"/>
	<path d="M38.1,4.489h0.959v0.959c0,0.467,0.379,0.846,0.846,0.846s0.846-0.379,0.846-0.846V4.489h0.959
		c0.467,0,0.846-0.379,0.846-0.846s-0.379-0.846-0.846-0.846H40.75V1.838c0-0.466-0.379-0.846-0.846-0.846s-0.846,0.379-0.846,0.846
		v0.959H38.1c-0.467,0-0.846,0.379-0.846,0.846S37.633,4.489,38.1,4.489z"/>
	<path d="M42.119,11.634v0.959H41.16c-0.467,0-0.846,0.379-0.846,0.846s0.379,0.846,0.846,0.846h0.959v0.959
		c0,0.466,0.379,0.846,0.846,0.846s0.846-0.379,0.846-0.846v-0.959h0.96c0.467,0,0.846-0.379,0.846-0.846s-0.379-0.846-0.846-0.846
		h-0.96v-0.959c0-0.466-0.379-0.846-0.846-0.846S42.119,11.168,42.119,11.634z"/>
</g>
</svg>
