<?xml version="1.0" encoding="utf-8"?>
<!-- Generator: Adobe Illustrator 25.2.1, SVG Export Plug-In . SVG Version: 6.00 Build 0)  -->
<svg version="1.1" id="Layer_1" xmlns="http://www.w3.org/2000/svg" xmlns:xlink="http://www.w3.org/1999/xlink" x="0px" y="0px"
	 viewBox="0 0 60 60" style="enable-background:new 0 0 60 60;" xml:space="preserve">
<g id="Maw6rL.tif">
	<g>
		<path d="M1.475,27.147c0.756,0,1.513,0,2.302,0c0.013,0.256,0.031,0.437,0.031,0.618c0.001,9.032,0,18.064-0.001,27.096
			c0,0.786,0.003,0.831,0.768,0.746c2.71-0.299,5.419-0.611,8.124-0.957c3.238-0.414,6.471-0.864,9.705-1.31
			c0.638-0.088,1.142,0.046,1.573,0.567c0.413,0.499,0.882,0.962,1.382,1.373c0.265,0.218,0.647,0.408,0.978,0.412
			c2.453,0.033,4.906,0.033,7.359-0.004c0.348-0.005,0.752-0.2,1.026-0.431c0.567-0.477,1.081-1.021,1.582-1.569
			c0.284-0.311,0.603-0.405,0.993-0.36c1.879,0.221,3.759,0.43,5.636,0.668c4.213,0.534,8.426,1.073,12.636,1.634
			c0.624,0.083,0.69-0.174,0.69-0.698c-0.013-8.995-0.009-17.989-0.009-26.984c0-0.238,0-0.475,0-0.752c0.785,0,1.516,0,2.276,0
			c0,10.26,0,20.494,0,30.782c-0.817,0-1.645,0.04-2.469-0.007c-5.012-0.284-9.945-1.185-14.899-1.922
			c-1.027-0.153-2.061-0.269-3.096-0.353c-0.238-0.019-0.586,0.09-0.724,0.266c-1.332,1.697-3.069,2.223-5.174,2.083
			c-1.869-0.125-3.752-0.035-5.629-0.023c-1.159,0.007-2.133-0.393-2.95-1.212c-1.245-1.249-1.249-1.244-2.996-0.991
			c-4.241,0.614-8.475,1.283-12.726,1.817c-2.113,0.265-4.258,0.28-6.388,0.409C1.475,47.743,1.475,37.445,1.475,27.147z"/>
		<path d="M30.251,0.936c0.528,0.221,0.823,0.635,1.062,1.145c0.559,1.192,1.15,2.371,1.766,3.534
			c0.136,0.256,0.399,0.491,0.66,0.628c1.215,0.638,2.446,1.246,3.678,1.849c0.498,0.243,0.885,0.545,0.888,1.158
			c0.004,0.638-0.397,0.945-0.915,1.197c-1.218,0.592-2.433,1.192-3.628,1.829c-0.287,0.153-0.567,0.424-0.72,0.71
			c-0.653,1.227-1.264,2.478-1.877,3.727c-0.238,0.486-0.553,0.826-1.137,0.83c-0.587,0.004-0.9-0.343-1.138-0.827
			c-0.614-1.248-1.224-2.498-1.878-3.726c-0.152-0.286-0.43-0.559-0.717-0.712c-1.228-0.654-2.478-1.267-3.727-1.88
			c-0.488-0.24-0.825-0.562-0.819-1.144c0.005-0.58,0.349-0.9,0.834-1.138c1.216-0.596,2.437-1.183,3.627-1.826
			c0.332-0.179,0.65-0.495,0.831-0.826c0.622-1.139,1.196-2.306,1.755-3.478c0.226-0.475,0.519-0.847,1.007-1.052
			C29.953,0.936,30.102,0.936,30.251,0.936z M30.028,13.813c0.414-0.827,0.785-1.489,1.08-2.183
			c0.264-0.621,0.683-1.024,1.293-1.293c0.705-0.311,1.385-0.679,2.175-1.072c-0.811-0.406-1.494-0.78-2.203-1.094
			c-0.594-0.263-0.995-0.659-1.256-1.257c-0.307-0.703-0.682-1.377-1.09-2.188c-0.451,0.897-0.804,1.687-1.24,2.428
			c-0.204,0.346-0.526,0.671-0.872,0.874c-0.747,0.438-1.545,0.79-2.432,1.233c0.836,0.42,1.568,0.809,2.319,1.156
			c0.498,0.23,0.842,0.567,1.071,1.067C29.211,12.221,29.591,12.937,30.028,13.813z"/>
		<path d="M8.619,49.77c1.421-0.196,2.769-0.335,4.098-0.577c2.901-0.528,5.792-1.108,8.687-1.668
			c2.456-0.475,4.587,0.157,6.425,1.849c0.229,0.211,0.558,0.311,0.966,0.53c0.02-0.404,0.039-0.601,0.039-0.798
			c0.001-7.491,0.007-14.981-0.003-22.472c-0.004-2.922-1.534-4.765-4.378-5.308c-0.341-0.065-0.485-0.192-0.431-0.547
			c0.09-0.584,0.156-1.171,0.239-1.812c2.523,0.3,4.408,1.519,5.768,3.663c0.09-0.094,0.157-0.147,0.202-0.215
			c1.917-2.836,4.675-3.796,7.964-3.568c0.444,0.031,0.887,0.102,1.331,0.11c0.15,0.003,0.358-0.094,0.445-0.213
			c0.587-0.804,1.364-1.143,2.355-1.12c1.375,0.032,2.751,0.001,4.126,0.011c1.534,0.012,2.554,1.001,2.559,2.543
			c0.002,0.536,0.2,0.71,0.689,0.747c0.665,0.051,1.325,0.179,1.991,0.218c0.664,0.039,1.331,0.009,2.048,0.009
			c0.015,0.308,0.033,0.506,0.033,0.704c0.002,9.851-0.002,19.702,0.014,29.553c0.001,0.515-0.152,0.658-0.655,0.659
			c-2.877,0.01-5.693-0.462-8.502-1.005c-2.239-0.432-4.471-0.903-6.715-1.307c-1.849-0.333-3.374,0.291-4.512,1.779
			c-0.306,0.401-0.633,0.538-1.125,0.529c-1.56-0.029-3.121,0.006-4.68-0.027c-0.271-0.006-0.633-0.153-0.79-0.359
			c-1.347-1.775-3.107-2.274-5.235-1.856c-3.311,0.651-6.621,1.318-9.95,1.865c-1.568,0.258-3.179,0.244-4.77,0.371
			c-0.48,0.039-0.582-0.158-0.581-0.607c0.012-6.58,0.007-13.16,0.007-19.74c0-3.309,0.011-6.617-0.007-9.925
			c-0.003-0.469,0.143-0.594,0.599-0.599c0.886-0.01,1.772-0.093,2.728-0.15c0.108,0.713,0.215,1.419,0.331,2.184
			c-0.451,0.083-0.877,0.162-1.311,0.242C8.619,32.214,8.619,40.923,8.619,49.77z M39.582,35.209c0-0.521,0-0.89,0-1.259
			c0.001-4.015-0.005-8.03,0.012-12.045c0.002-0.469-0.127-0.68-0.612-0.687c-0.724-0.011-1.448-0.107-2.17-0.088
			c-3.491,0.092-5.587,2.247-5.589,5.731c-0.005,7.417-0.002,14.834-0.002,22.251c0,0.196,0,0.392,0,0.588
			c0.054,0.047,0.108,0.095,0.161,0.142c0.283-0.153,0.612-0.255,0.841-0.466c1.838-1.691,3.967-2.325,6.425-1.851
			c3.114,0.6,6.226,1.211,9.346,1.779c1.123,0.204,2.265,0.296,3.425,0.443c0-8.829,0-17.55,0-26.279
			c-0.809-0.099-1.571-0.193-2.426-0.297c0,4.034,0,7.973,0,12.022c-1.174-0.781-2.236-1.492-3.302-2.196
			c-1.391-0.919-1.392-0.917-2.784,0.008C41.844,33.71,40.78,34.415,39.582,35.209z M46.65,30.847
			c0.037-0.163,0.067-0.232,0.067-0.301c0.002-3.4-0.003-6.799,0.006-10.199c0.001-0.373-0.192-0.419-0.489-0.417
			c-1.245,0.008-2.49,0.029-3.734-0.006c-0.504-0.014-0.622,0.155-0.619,0.634c0.018,3.232,0.007,6.465,0.008,9.697
			c0,0.174,0.024,0.347,0.044,0.615c0.722-0.482,1.364-0.887,1.979-1.33c0.282-0.203,0.486-0.221,0.778-0.008
			C45.302,29.978,45.947,30.38,46.65,30.847z"/>
		<path d="M15.795,24.686c-0.579-0.007-0.912-0.29-1.136-0.741c-0.636-1.279-1.26-2.564-1.925-3.828
			c-0.144-0.273-0.403-0.536-0.675-0.68c-1.246-0.66-2.511-1.284-3.777-1.905c-0.492-0.241-0.816-0.572-0.807-1.152
			c0.009-0.553,0.327-0.875,0.796-1.105c1.249-0.614,2.502-1.219,3.729-1.874c0.303-0.161,0.589-0.456,0.751-0.76
			c0.647-1.211,1.251-2.445,1.853-3.679c0.238-0.487,0.564-0.843,1.13-0.855c0.596-0.012,0.943,0.369,1.188,0.863
			c0.609,1.23,1.196,2.472,1.838,3.685c0.16,0.303,0.453,0.592,0.756,0.754c1.211,0.645,2.448,1.242,3.681,1.847
			c0.484,0.237,0.834,0.559,0.834,1.139c0,0.575-0.333,0.904-0.824,1.144c-1.267,0.619-2.532,1.244-3.78,1.901
			c-0.258,0.136-0.508,0.383-0.643,0.641c-0.664,1.264-1.293,2.547-1.923,3.829C16.628,24.385,16.291,24.678,15.795,24.686z
			 M15.754,11.865c-0.415,0.818-0.798,1.49-1.101,2.197c-0.259,0.605-0.665,0.989-1.258,1.25c-0.707,0.311-1.385,0.687-2.175,1.084
			c0.434,0.222,0.76,0.442,1.119,0.563c1.433,0.484,2.37,1.434,2.854,2.865c0.118,0.35,0.346,0.662,0.574,1.087
			c0.423-0.843,0.808-1.56,1.146-2.297c0.23-0.501,0.574-0.833,1.074-1.062c0.748-0.343,1.473-0.738,2.299-1.157
			c-0.887-0.444-1.685-0.798-2.432-1.238c-0.345-0.203-0.664-0.531-0.868-0.877C16.555,13.55,16.208,12.77,15.754,11.865z"/>
		<path d="M27.594,37.739c0.009,0.58-0.252,0.927-0.706,1.159c-1.025,0.523-2.056,1.037-3.064,1.592
			c-0.256,0.141-0.5,0.385-0.641,0.641c-0.546,0.992-1.054,2.004-1.564,3.015c-0.238,0.471-0.579,0.764-1.13,0.758
			c-0.528-0.006-0.85-0.295-1.078-0.746c-0.485-0.961-0.957-1.931-1.494-2.862c-0.199-0.346-0.52-0.676-0.865-0.875
			c-0.931-0.537-1.905-1.002-2.863-1.492c-0.461-0.236-0.777-0.562-0.771-1.121c0.006-0.558,0.326-0.876,0.789-1.11
			c0.993-0.504,1.992-0.999,2.965-1.539c0.273-0.151,0.531-0.411,0.682-0.683c0.54-0.974,1.035-1.972,1.538-2.965
			c0.235-0.463,0.554-0.783,1.112-0.784c0.581-0.001,0.909,0.336,1.15,0.816c0.476,0.945,0.932,1.902,1.459,2.817
			c0.199,0.345,0.528,0.666,0.874,0.865c0.949,0.545,1.937,1.021,2.911,1.521C27.332,36.966,27.595,37.292,27.594,37.739z
			 M20.506,34.462c-0.572,1.702-1.668,2.772-3.366,3.346c1.681,0.589,2.802,1.655,3.366,3.376c0.579-1.703,1.677-2.795,3.373-3.372
			C22.175,37.241,21.089,36.16,20.506,34.462z"/>
	</g>
</g>
</svg>
