<?xml version="1.0" encoding="utf-8"?>
<!-- Generator: Adobe Illustrator 25.2.1, SVG Export Plug-In . SVG Version: 6.00 Build 0)  -->
<svg version="1.1" id="Layer_1" xmlns="http://www.w3.org/2000/svg" xmlns:xlink="http://www.w3.org/1999/xlink" x="0px" y="0px"
	 viewBox="0 0 60 15" style="enable-background:new 0 0 60 15;" xml:space="preserve">
<style type="text/css">
	.st0{fill:#2EC0DD;}
</style>
<g>
	<g>
		<path class="st0" d="M26.32,2.202c0-0.092-0.075-0.167-0.167-0.167c-0.708,0-1.285-0.576-1.285-1.284
			c0-0.092-0.075-0.167-0.167-0.167c-0.092,0-0.167,0.075-0.167,0.167c0,0.708-0.576,1.284-1.285,1.284
			c-0.092,0-0.167,0.075-0.167,0.167s0.075,0.167,0.167,0.167c0.708,0,1.285,0.576,1.285,1.284c0,0.092,0.075,0.167,0.167,0.167
			c0.092,0,0.167-0.075,0.167-0.167c0-0.708,0.576-1.284,1.285-1.284C26.245,2.369,26.32,2.294,26.32,2.202z"/>
		<path class="st0" d="M33.966,12.632c-0.708,0-1.285-0.576-1.285-1.285c0-0.092-0.075-0.167-0.167-0.167
			c-0.092,0-0.167,0.075-0.167,0.167c0,0.708-0.576,1.285-1.285,1.285c-0.092,0-0.167,0.075-0.167,0.167s0.075,0.167,0.167,0.167
			c0.708,0,1.285,0.576,1.285,1.285c0,0.092,0.075,0.167,0.167,0.167c0.092,0,0.167-0.075,0.167-0.167
			c0-0.708,0.576-1.285,1.285-1.285c0.092,0,0.167-0.075,0.167-0.167S34.058,12.632,33.966,12.632z"/>
		<path class="st0" d="M27.221,7.159c-0.831,0-1.507,0.676-1.507,1.507c0,0.831,0.676,1.507,1.507,1.507s1.507-0.676,1.507-1.507
			C28.728,7.835,28.052,7.159,27.221,7.159z"/>
		<path class="st0" d="M26.28,10.215v2.491l0.833-0.822c0.06-0.059,0.156-0.059,0.216,0l0.833,0.822v-2.491
			c-0.275,0.168-0.596,0.266-0.941,0.266S26.555,10.383,26.28,10.215z"/>
		<path class="st0" d="M36.75,2.884c-0.708,0-1.285-0.576-1.285-1.284c0-0.092-0.075-0.167-0.167-0.167S35.131,1.507,35.131,1.6
			c0,0.708-0.576,1.284-1.285,1.284c-0.092,0-0.167,0.075-0.167,0.167s0.075,0.167,0.167,0.167c0.708,0,1.285,0.576,1.285,1.284
			c0,0.092,0.075,0.167,0.167,0.167s0.167-0.075,0.167-0.167c0-0.708,0.576-1.284,1.285-1.284c0.092,0,0.167-0.075,0.167-0.167
			S36.842,2.884,36.75,2.884z"/>
	</g>
	<g>
		<path d="M34.481,4.972c0.097-0.037,0.157-0.122,0.157-0.22c0-0.098-0.06-0.182-0.157-0.22l-4.309-1.676
			c-0.075-0.029-0.171-0.029-0.246,0l-4.309,1.676c-0.097,0.037-0.157,0.122-0.157,0.22c0,0.098,0.06,0.182,0.157,0.22l1.388,0.54
			v1.35c0,0.001,0.001,0.002,0.001,0.003c-0.899,0.107-1.599,0.873-1.599,1.801c0,0.517,0.218,0.983,0.566,1.313v2.988
			c0,0.115,0.093,0.208,0.208,0.208c0.04,0,0.079-0.016,0.108-0.044l0.933-0.921l0.933,0.921c0.029,0.029,0.068,0.044,0.108,0.044
			c0.115,0,0.208-0.093,0.208-0.208V9.98c0.25-0.238,0.431-0.545,0.514-0.891l0.956,0.299c0.021,0.007,0.043,0.01,0.065,0.01
			c0.023,0,0.045-0.004,0.067-0.011l2.757-0.894c0.089-0.029,0.15-0.112,0.15-0.206v-2.73l0.7-0.272v3.59
			c-0.294,0.107-0.509,0.42-0.509,0.794v0.808c0,0.125,0.098,0.227,0.219,0.227h1.013c0.121,0,0.219-0.102,0.219-0.227V9.668
			c0-0.373-0.215-0.687-0.509-0.794V5.116L34.481,4.972z M34.296,9.668v0.71h-0.8v-0.71c0-0.281,0.179-0.511,0.4-0.511
			S34.296,9.386,34.296,9.668z M30.049,3.274l3.8,1.478l-3.8,1.478l-3.8-1.478L30.049,3.274z M28.163,12.706l-0.833-0.822
			c-0.06-0.059-0.156-0.059-0.216,0l-0.833,0.822v-2.491c0.275,0.168,0.596,0.266,0.941,0.266s0.667-0.098,0.941-0.266V12.706z
			 M27.221,10.173c-0.831,0-1.507-0.676-1.507-1.507c0-0.831,0.676-1.507,1.507-1.507c0.831,0,1.507,0.676,1.507,1.507
			C28.728,9.497,28.052,10.173,27.221,10.173z M32.546,8.129l-2.541,0.824l-0.951-0.298c-0.006-0.002-0.012-0.001-0.018-0.002
			c-0.007-0.922-0.703-1.681-1.598-1.788c0-0.001,0.001-0.002,0.001-0.003V5.681l2.488,0.968c0.037,0.015,0.08,0.022,0.123,0.022
			c0.043,0,0.086-0.007,0.123-0.022l2.373-0.923V8.129z"/>
		<path d="M26.32,2.202c0-0.092-0.075-0.167-0.167-0.167c-0.708,0-1.285-0.576-1.285-1.284c0-0.092-0.075-0.167-0.167-0.167
			s-0.167,0.075-0.167,0.167c0,0.708-0.576,1.284-1.285,1.284c-0.092,0-0.167,0.075-0.167,0.167s0.075,0.167,0.167,0.167
			c0.708,0,1.285,0.576,1.285,1.284c0,0.092,0.075,0.167,0.167,0.167s0.167-0.075,0.167-0.167c0-0.708,0.576-1.284,1.285-1.284
			C26.245,2.369,26.32,2.294,26.32,2.202z M24.702,2.937c-0.158-0.319-0.417-0.578-0.736-0.736c0.319-0.158,0.578-0.417,0.736-0.736
			c0.158,0.319,0.417,0.578,0.736,0.736C25.119,2.359,24.86,2.619,24.702,2.937z"/>
		<path d="M36.75,2.884c-0.708,0-1.285-0.576-1.285-1.284c0-0.092-0.075-0.167-0.167-0.167c-0.092,0-0.167,0.075-0.167,0.167
			c0,0.708-0.576,1.284-1.285,1.284c-0.092,0-0.167,0.075-0.167,0.167s0.075,0.167,0.167,0.167c0.708,0,1.285,0.576,1.285,1.284
			c0,0.092,0.075,0.167,0.167,0.167c0.092,0,0.167-0.075,0.167-0.167c0-0.708,0.576-1.284,1.285-1.284
			c0.092,0,0.167-0.075,0.167-0.167S36.842,2.884,36.75,2.884z M35.298,3.787c-0.158-0.319-0.417-0.578-0.736-0.736
			c0.319-0.158,0.578-0.417,0.736-0.736c0.158,0.319,0.417,0.578,0.736,0.736C35.715,3.209,35.456,3.468,35.298,3.787z"/>
		<path d="M33.966,12.632c-0.708,0-1.285-0.576-1.285-1.285c0-0.092-0.075-0.167-0.167-0.167c-0.092,0-0.167,0.075-0.167,0.167
			c0,0.708-0.576,1.285-1.285,1.285c-0.092,0-0.167,0.075-0.167,0.167s0.075,0.167,0.167,0.167c0.708,0,1.285,0.576,1.285,1.285
			c0,0.092,0.075,0.167,0.167,0.167c0.092,0,0.167-0.075,0.167-0.167c0-0.708,0.576-1.285,1.285-1.285
			c0.092,0,0.167-0.075,0.167-0.167S34.058,12.632,33.966,12.632z M32.515,13.534c-0.158-0.319-0.417-0.578-0.736-0.736
			c0.319-0.158,0.578-0.417,0.736-0.736c0.158,0.319,0.417,0.578,0.736,0.736C32.932,12.956,32.672,13.216,32.515,13.534z"/>
	</g>
</g>
</svg>
