<?xml version="1.0" encoding="utf-8"?>
<!-- Generator: Adobe Illustrator 25.2.1, SVG Export Plug-In . SVG Version: 6.00 Build 0)  -->
<svg version="1.1" id="Layer_1" xmlns="http://www.w3.org/2000/svg" xmlns:xlink="http://www.w3.org/1999/xlink" x="0px" y="0px"
	 viewBox="0 0 60 15" style="enable-background:new 0 0 60 15;" xml:space="preserve">
<style type="text/css">
	.st0{fill:#2EC0DD;}
</style>
<polyline class="st0" points="28.514,2.307 22.302,2.307 22.302,11.175 26.35,11.175 28.514,2.307 "/>
<path class="st0" d="M32.737,13.732c0.112,0,0.203-0.091,0.203-0.203v-1.168c0-0.112-0.091-0.203-0.198-0.203c0,0,0,0,0,0
	c-0.093-0.004-2.274-0.062-4.245,0.916c-1.971-0.978-4.151-0.919-4.24-0.916c-0.112,0-0.203,0.091-0.203,0.203v1.168
	c0,0.112,0.091,0.203,0.203,0.203h2.878v0.549c0,0.112,0.091,0.203,0.203,0.203h2.318c0.112,0,0.203-0.091,0.203-0.203v-0.549
	H32.737z"/>
<g>
	<path d="M27.067,10.889h-4.582V2.576h6.118V2.1h-6.301c-0.162,0-0.293,0.131-0.293,0.293v8.679c0,0.162,0.131,0.293,0.293,0.293
		h4.765V10.889z"/>
	<path d="M36.005,2.1h-1.253v0.476h1.07v7.708h0.476V2.393C36.298,2.231,36.167,2.1,36.005,2.1z"/>
	<rect x="23" y="3.354" width="3.048" height="0.476"/>
	<rect x="26.308" y="3.354" width="0.758" height="0.476"/>
	<rect x="24.018" y="4.556" width="3.049" height="0.476"/>
	<rect x="23" y="4.556" width="0.758" height="0.476"/>
	<rect x="24.558" y="5.777" width="1.49" height="0.476"/>
	<rect x="23" y="5.777" width="1.309" height="0.476"/>
	<rect x="26.308" y="5.777" width="0.758" height="0.476"/>
	<path d="M34.165,10.224h-0.417c-0.399,0-0.797-0.614-0.886-1.152c0.805-0.331,1.395-1.021,1.594-1.864
		c0.522-0.103,0.895-0.511,0.895-0.99c0-0.449-0.341-0.849-0.82-0.975V4.29c0-0.736-0.293-1.422-0.827-1.936
		c-0.065-1.084-0.894-1.928-1.901-1.928c-1.031,0-1.879,0.897-1.906,2.008C29.415,2.938,29.15,3.596,29.15,4.29v0.938
		c-0.517,0.102-0.896,0.516-0.896,0.99c0,0.507,0.414,0.927,0.973,1.001c0.189,0.783,0.729,1.447,1.459,1.795
		c-0.063,0.499-0.452,1.21-0.894,1.21h-0.417c-1.231,0-1.653,0.826-1.926,1.72l-0.026,0.086l0.455,0.14l0.026-0.086
		c0.312-1.021,0.697-1.384,1.471-1.384h0.417c0.713,0,1.222-0.849,1.348-1.515c0.405,0.107,0.83,0.125,1.267,0.029
		c0.134,0.652,0.646,1.485,1.342,1.485h0.417c0.845,0,1.531,0.688,1.531,1.532v1.866h-5.142v0.476h5.324
		c0.162,0,0.293-0.131,0.293-0.292v-2.05C36.172,11.124,35.271,10.224,34.165,10.224z M34.054,4.941c-0.003,0-0.005,0-0.008,0
		c-0.247,0-0.543-0.048-0.676-0.188c-0.199-0.211-0.377-0.902-0.431-1.205c-0.021-0.105-0.11-0.185-0.22-0.194
		c-0.005,0-0.01,0-0.014,0c-0.104,0-0.194,0.064-0.227,0.161c-0.004,0.011-0.391,1.089-1.438,1.438
		c-0.726,0.241-1.188,0.268-1.416,0.269V4.29c0-1.221,0.993-2.214,2.213-2.214s2.214,0.993,2.214,2.214V4.941z M31.192,5.404
		c0.709-0.236,1.16-0.718,1.433-1.137c0.118,0.384,0.252,0.656,0.399,0.812c0.275,0.292,0.758,0.337,1.027,0.337
		c0.001,0,0.001,0,0.002,0v1.17c0,1.221-0.993,2.214-2.214,2.214s-2.213-0.994-2.213-2.214V5.697
		C29.918,5.706,30.426,5.66,31.192,5.404z M30.442,1.995c0.19-0.645,0.733-1.093,1.359-1.093c0.599,0,1.135,0.424,1.341,1.035
		C32.745,1.716,32.299,1.6,31.84,1.6C31.343,1.6,30.864,1.736,30.442,1.995z M34.527,6.689c0.002-0.034,0.003-0.068,0.003-0.103
		V5.747c0.21,0.094,0.345,0.272,0.345,0.47C34.875,6.417,34.739,6.595,34.527,6.689z M29.154,6.72
		c-0.251-0.08-0.424-0.278-0.424-0.503c0-0.222,0.171-0.421,0.42-0.502v0.871C29.15,6.631,29.151,6.676,29.154,6.72z"/>
	<path d="M33.03,13.529v-1.168c0-0.162-0.129-0.293-0.284-0.293c-0.021-0.001-2.23-0.081-4.249,0.905
		c-2.026-0.99-4.223-0.905-4.24-0.905c-0.162,0-0.293,0.131-0.293,0.293v1.168c0,0.161,0.131,0.292,0.293,0.292h2.788v0.46
		c0,0.161,0.131,0.292,0.292,0.292h2.318c0.162,0,0.293-0.131,0.293-0.292v-0.46h2.788C32.899,13.821,33.03,13.69,33.03,13.529z
		 M29.473,13.821v0.276h-1.952v-0.276H29.473z M28.173,13.346H24.44v-0.802C24.946,12.552,26.636,12.633,28.173,13.346z
		 M32.554,12.544v0.802h-3.732C30.355,12.634,32.046,12.552,32.554,12.544z"/>
</g>
</svg>
