<?xml version="1.0" encoding="utf-8"?>
<!-- Generator: Adobe Illustrator 25.2.1, SVG Export Plug-In . SVG Version: 6.00 Build 0)  -->
<svg version="1.1" id="Layer_1" xmlns="http://www.w3.org/2000/svg" xmlns:xlink="http://www.w3.org/1999/xlink" x="0px" y="0px"
	 viewBox="0 0 60 60" style="enable-background:new 0 0 60 60;" xml:space="preserve">
<path d="M58.65,21.885L51.239,5.028c-0.211-0.479-0.596-0.848-1.084-1.038c-0.488-0.19-1.02-0.178-1.498,0.033l-7.345,3.229
	c-0.479,0.21-0.847,0.595-1.037,1.083c-0.19,0.488-0.179,1.021,0.032,1.499l0.197,0.449l-8.477,3.727
	c-0.136,0.059-0.197,0.218-0.137,0.353l0.516,1.174l-18.525,8.145c-1.444,0.634-2.359,1.572-2.72,2.786
	c-0.252,0.848-0.213,1.779,0.105,2.776l-6.001,2.639L5.11,31.53c-0.199-0.453-0.564-0.802-1.028-0.983
	c-0.464-0.179-0.969-0.17-1.421,0.03l-0.514,0.226c-0.454,0.199-0.803,0.564-0.983,1.027c-0.18,0.463-0.17,0.968,0.03,1.421
	l2.976,6.77c0.296,0.674,0.964,1.11,1.702,1.11c0.258,0,0.509-0.053,0.746-0.157l0.514-0.226c0.453-0.199,0.802-0.564,0.983-1.028
	c0.18-0.463,0.17-0.968-0.03-1.421L7.93,37.945l5.999-2.638c0.869,1.51,2.158,2.332,3.689,2.332c0.693,0,1.426-0.168,2.179-0.499
	l0.556-0.245L5.236,53.707H2.672c-0.443,0-0.804,0.361-0.804,0.804c0,0.443,0.361,0.804,0.804,0.804h5.781
	c0.443,0,0.804-0.361,0.804-0.804c0-0.443-0.361-0.804-0.804-0.804H7.398l15.728-17.489c0.768,0.464,1.635,0.775,2.565,0.89v18.054
	h-2.082c-0.443,0-0.804,0.361-0.804,0.804c0,0.443,0.361,0.804,0.804,0.804h5.781c0.443,0,0.804-0.361,0.804-0.804
	c0-0.443-0.361-0.804-0.804-0.804h-2.091V37.108c0.93-0.115,1.798-0.426,2.565-0.89l15.728,17.489h-1.055
	c-0.443,0-0.804,0.361-0.804,0.804c0,0.443,0.361,0.804,0.804,0.804h5.781c0.443,0,0.804-0.361,0.804-0.804
	c0-0.443-0.361-0.804-0.804-0.804h-2.564l-16.619-18.48c1.017-1.024,1.697-2.381,1.863-3.891l5.324-2.341l0.516,1.174
	c0.029,0.065,0.082,0.116,0.148,0.142c0.031,0.012,0.064,0.018,0.097,0.018c0.037,0,0.074-0.008,0.108-0.023l8.476-3.727
	l0.049,0.112c0.313,0.711,1.017,1.171,1.796,1.171c0.272,0,0.537-0.056,0.787-0.166l7.345-3.229c0.479-0.21,0.847-0.595,1.037-1.083
	C58.872,22.895,58.861,22.363,58.65,21.885z M21.558,30.617c0-2.723,2.215-4.938,4.937-4.938s4.938,2.215,4.938,4.938
	s-2.215,4.938-4.938,4.938S21.558,33.339,21.558,30.617z M26.495,24.071c-3.609,0-6.545,2.936-6.545,6.546
	c0,1.539,0.537,2.953,1.43,4.072l-2.229,0.98c-1.885,0.828-3.22,0.282-4.084-1.668l-1.925-4.378l-0.139-0.317
	c-0.393-0.895-0.497-1.718-0.301-2.378c0.22-0.741,0.834-1.337,1.826-1.774l18.525-8.145l4.623,10.514l-4.722,2.076
	C32.463,26.473,29.758,24.071,26.495,24.071z M13.245,33.852l-5.849,2.571l-1.37-3.118l5.849-2.571L13.245,33.852z M3.406,32.028
	c0.031,0,0.062,0.006,0.093,0.018c0.064,0.025,0.112,0.07,0.139,0.131l2.976,6.77c0.027,0.061,0.028,0.127,0.003,0.191
	c-0.025,0.064-0.07,0.111-0.131,0.138l-0.512,0.225c-0.062,0.027-0.129,0.027-0.192,0.004c-0.063-0.025-0.113-0.071-0.139-0.131
	l-2.976-6.77c-0.055-0.126,0.002-0.274,0.128-0.33l0.513-0.225C3.339,32.035,3.372,32.028,3.406,32.028z M39.471,27.612
	C39.471,27.612,39.471,27.612,39.471,27.612C39.471,27.612,39.471,27.612,39.471,27.612l-5.57-12.669l7.112-3.127l5.87,13.351
	l-7.112,3.127L39.471,27.612z M49.385,26.229c-0.088-0.035-0.158-0.1-0.195-0.185L41.778,9.188c-0.078-0.177,0.003-0.386,0.18-0.464
	l7.344-3.229c0.046-0.02,0.093-0.03,0.141-0.03c0.14,0,0.267,0.082,0.323,0.21l7.411,16.856c0.037,0.085,0.039,0.18,0.004,0.269
	c-0.035,0.088-0.1,0.158-0.185,0.195l-7.344,3.229C49.568,26.261,49.473,26.264,49.385,26.229z"/>
</svg>
