<?xml version="1.0" encoding="utf-8"?>
<!-- Generator: Adobe Illustrator 25.2.1, SVG Export Plug-In . SVG Version: 6.00 Build 0)  -->
<svg version="1.1" id="Layer_1" xmlns="http://www.w3.org/2000/svg" xmlns:xlink="http://www.w3.org/1999/xlink" x="0px" y="0px"
	 viewBox="0 0 60 60" style="enable-background:new 0 0 60 60;" xml:space="preserve">
<g>
	<path d="M14.983,20.819l-5.877,0.23c-0.465,0.018-0.832,0.4-0.832,0.866v8.931c0,0.479,0.388,0.866,0.866,0.866h5.877
		c0.479,0,0.866-0.388,0.866-0.866v-9.161c0-0.236-0.096-0.461-0.266-0.625C15.447,20.897,15.218,20.806,14.983,20.819z
		 M14.15,29.98h-4.144v-7.231l4.144-0.162V29.98z"/>
	<path d="M37.374,24.359c0-0.439-0.329-0.809-0.765-0.86l-4.581-0.54c-0.247-0.029-0.492,0.048-0.677,0.213
		c-0.185,0.164-0.291,0.4-0.291,0.647v7.679c0,0.479,0.388,0.866,0.866,0.866h4.581c0.479,0,0.866-0.388,0.866-0.866V24.359z
		 M35.642,30.632h-2.848v-5.838l2.848,0.336V30.632z"/>
	<path d="M49.762,31.498v-5.926c0-0.464-0.365-0.845-0.828-0.865l-3.63-0.16c-0.236-0.01-0.466,0.076-0.637,0.24
		c-0.171,0.163-0.267,0.39-0.267,0.626v6.085c0,0.479,0.388,0.866,0.866,0.866h3.63C49.374,32.364,49.762,31.977,49.762,31.498z
		 M48.029,30.632h-1.897v-4.314l1.897,0.083V30.632z"/>
	<path d="M58.981,44.934c-0.195-0.164-0.452-0.234-0.703-0.193l-0.45,0.076v-22.3c0-0.051-0.005-0.102-0.014-0.152
		c-0.003-0.019-0.01-0.037-0.014-0.055c-0.007-0.03-0.014-0.06-0.025-0.089c-0.008-0.021-0.018-0.04-0.027-0.06
		c-0.012-0.026-0.023-0.052-0.037-0.076c-0.011-0.019-0.024-0.036-0.036-0.054c-0.016-0.024-0.032-0.047-0.05-0.069
		c-0.014-0.017-0.03-0.032-0.045-0.048c-0.019-0.02-0.039-0.04-0.06-0.058c-0.018-0.015-0.038-0.029-0.058-0.043
		c-0.016-0.011-0.029-0.024-0.046-0.034l-12.1-7.458c-0.071-0.043-0.147-0.076-0.227-0.098L12.998,5.465
		c-0.016-0.004-0.032-0.006-0.048-0.009c-0.017-0.004-0.035-0.007-0.052-0.01c-0.044-0.007-0.087-0.009-0.13-0.009
		c-0.009,0-0.019-0.002-0.028-0.002c-0.003,0-0.006,0.001-0.009,0.001c-0.056,0.003-0.111,0.01-0.165,0.023
		c-0.011,0.003-0.021,0.007-0.032,0.01c-0.043,0.012-0.084,0.027-0.124,0.046c-0.015,0.007-0.03,0.015-0.045,0.022
		c-0.037,0.019-0.071,0.042-0.105,0.066c-0.012,0.008-0.024,0.016-0.035,0.025c-0.043,0.035-0.083,0.073-0.119,0.116
		c-0.001,0.001-0.002,0.002-0.003,0.003L0.983,19.154c-0.129,0.155-0.199,0.351-0.199,0.553v16.321
		c-0.101,0.125-0.169,0.278-0.187,0.45c-0.025,0.237,0.048,0.463,0.187,0.635v9.405c0,0.404,0.28,0.755,0.674,0.845l4.205,0.959
		v1.654c0,0.479,0.388,0.866,0.866,0.866s0.866-0.388,0.866-0.866v-1.259l16.303,3.717c0.006,0.001,0.012,0.001,0.017,0.002
		c0.058,0.012,0.116,0.02,0.175,0.02c0.047,0,0.094-0.004,0.141-0.012l2.833-0.469v2.726c0,0.479,0.388,0.866,0.866,0.866
		c0.479,0,0.866-0.388,0.866-0.866v-3.012l12.23-2.025c0.568,1.435,1.686,2.39,3,2.39c1.335,0,2.465-0.987,3.024-2.46
		c0.586,0.898,1.448,1.46,2.428,1.46c0.799,0,1.52-0.372,2.077-0.996c0.005-0.001,0.01,0,0.015-0.001l7.221-1.46
		c0.404-0.082,0.695-0.437,0.695-0.849v-2.151C59.288,45.341,59.176,45.099,58.981,44.934z M52.41,45.729
		c-0.051-0.295-0.124-0.578-0.217-0.845l2.703-0.269c0.145-0.014,0.277-0.067,0.392-0.143l0.807-0.093v0.729L52.41,45.729z
		 M53.945,42.884l-1.446,0.167V26.733l1.446,0.113V42.884z M53.003,21.094l-28.696-3.972l-8.756-9.165l28.963,7.904L53.003,21.094z
		 M2.516,37.553l12.986,1.376c0.031,0.003,0.062,0.005,0.092,0.005c0.438,0,0.813-0.33,0.86-0.775
		c0.05-0.476-0.294-0.903-0.77-0.953L2.516,35.81v-1.883L6.7,34.396c0.033,0.004,0.065,0.005,0.097,0.005
		c0.435,0,0.81-0.327,0.86-0.77c0.053-0.475-0.289-0.904-0.764-0.957l-4.377-0.49V20.02l10.3-12.417l6.623,6.932l3.585,3.752v32.215
		L2.516,45.827V37.553z M43.828,50.32c-0.789,0-1.669-1.171-1.669-2.85c0-1.68,0.88-2.85,1.669-2.85c0.789,0,1.669,1.171,1.669,2.85
		C45.496,49.15,44.617,50.32,43.828,50.32z M43.828,42.887c-1.907,0-3.401,2.013-3.401,4.583c0,0.169,0.007,0.335,0.02,0.499
		l-15.69,2.597V39.531l11.776-0.329c0.478-0.013,0.855-0.412,0.842-0.89c-0.014-0.479-0.415-0.868-0.89-0.842l-11.728,0.327V18.934
		l31.34,4.337v19.364l-0.418,0.048V26.044c0-0.452-0.348-0.829-0.799-0.864L51.7,24.933c-0.242-0.017-0.478,0.064-0.656,0.228
		c-0.177,0.164-0.278,0.394-0.278,0.636v17.102c-0.443-0.302-0.946-0.475-1.486-0.475c-1.213,0-2.247,0.858-2.797,2.155
		C45.865,43.542,44.914,42.887,43.828,42.887z M49.28,49.32c-0.703,0-1.486-1.061-1.486-2.582c0-1.521,0.783-2.582,1.486-2.582
		s1.486,1.06,1.486,2.582C50.766,48.26,49.983,49.32,49.28,49.32z M52.341,48.092c0.047-0.198,0.083-0.403,0.109-0.613l3.938-0.663
		c0.153,0.136,0.353,0.222,0.574,0.222c0.23,0,0.438-0.091,0.593-0.238v0.238L52.341,48.092z"/>
	<path d="M41.97,40.275l-12.599,0.73c-0.478,0.028-0.842,0.438-0.815,0.915c0.027,0.461,0.408,0.816,0.864,0.816
		c0.017,0,0.034,0,0.051-0.001l12.599-0.73c0.478-0.028,0.842-0.438,0.815-0.915C42.857,40.612,42.447,40.245,41.97,40.275z"/>
	<path d="M19.392,41.011L6.639,39.359C6.164,39.3,5.73,39.633,5.669,40.107c-0.061,0.474,0.273,0.909,0.748,0.971l12.753,1.652
		c0.038,0.005,0.075,0.007,0.112,0.007c0.429,0,0.802-0.318,0.858-0.755C20.201,41.507,19.866,41.073,19.392,41.011z"/>
</g>
</svg>
