<?xml version="1.0" encoding="utf-8"?>
<!-- Generator: Adobe Illustrator 25.2.1, SVG Export Plug-In . SVG Version: 6.00 Build 0)  -->
<svg version="1.1" id="Layer_1" xmlns="http://www.w3.org/2000/svg" xmlns:xlink="http://www.w3.org/1999/xlink" x="0px" y="0px"
	 viewBox="0 0 60 60" style="enable-background:new 0 0 60 60;" xml:space="preserve">
<g>
	<path d="M48.198,40.608c0.455,0,0.826-0.37,0.826-0.826v-6.143c0-0.06-0.007-0.119-0.02-0.176
		c-0.002-0.007-0.005-0.014-0.006-0.021c-0.014-0.056-0.033-0.109-0.058-0.159c-0.003-0.007-0.004-0.015-0.008-0.022l-1.559-3.027
		c-0.028-0.053-0.064-0.098-0.101-0.143l-1.869-18.897l2.63-2.934c0.007-0.008,0.011-0.019,0.018-0.027
		c0.038-0.046,0.071-0.095,0.099-0.149c0.006-0.012,0.014-0.023,0.019-0.036c0.028-0.063,0.049-0.129,0.061-0.199
		c0.003-0.015,0.003-0.031,0.005-0.047c0.004-0.032,0.01-0.062,0.01-0.095V2.043c0-0.455-0.37-0.826-0.826-0.826H12.581
		c-0.455,0-0.826,0.37-0.826,0.826v5.666c0,0.032,0.006,0.063,0.01,0.095c0.002,0.016,0.002,0.032,0.005,0.048
		c0.012,0.069,0.033,0.136,0.061,0.198c0.005,0.012,0.013,0.023,0.019,0.035c0.028,0.055,0.062,0.105,0.101,0.152
		c0.006,0.007,0.009,0.016,0.016,0.023l2.63,2.935l-1.869,18.897c-0.037,0.045-0.074,0.091-0.101,0.144l-1.559,3.025
		c-0.004,0.008-0.005,0.016-0.009,0.024c-0.024,0.051-0.044,0.103-0.057,0.159c-0.002,0.007-0.005,0.013-0.006,0.02
		c-0.012,0.057-0.02,0.115-0.02,0.176v6.143c0,0.455,0.37,0.826,0.826,0.826h0.878v14.592h-0.878c-0.455,0-0.826,0.37-0.826,0.826
		v2.516c0,0.455,0.37,0.826,0.826,0.826h36.396c0.455,0,0.826-0.37,0.826-0.826v-2.516c0-0.455-0.37-0.826-0.826-0.826h-0.879
		V40.608H48.198z M46.593,6.883H13.407V2.869h33.186V6.883z M12.628,34.465h34.745v4.492h-0.879H13.506h-0.878V34.465z
		 M45.569,8.534l-1.393,1.554H15.824l-1.393-1.554H45.569z M19.387,15.329c0-0.793,0.729-1.438,1.625-1.438h17.977
		c0.895,0,1.625,0.669,1.627,1.518l0.776,8.004c0,0.793-0.728,1.439-1.624,1.439H20.232c-0.88,0-1.625-0.635-1.628-1.36
		L19.387,15.329z M20.584,28.522c-0.111,0-0.201-0.09-0.201-0.201c0-0.111,0.09-0.201,0.201-0.201c0.111,0,0.201,0.09,0.201,0.201
		C20.784,28.431,20.694,28.522,20.584,28.522z M23.104,32.126c0-0.297-0.182-0.524-0.524-0.687h13.587
		c-0.125,0.079-0.224,0.178-0.286,0.301c-0.375-0.133-0.841-0.165-1.189-0.165c-0.682,0-1.827,0.117-1.827,0.899
		c0,0.134,0.043,0.242,0.102,0.339H22.579C22.922,32.65,23.104,32.423,23.104,32.126z M36.445,32.773
		c0.045,0.016,0.093,0.028,0.141,0.041h-0.168C36.426,32.799,36.437,32.787,36.445,32.773z M43.797,11.74l1.785,18.047h-23.88
		c0.443-0.339,0.734-0.867,0.734-1.467c0-0.908-0.657-1.661-1.52-1.819h18.852c0.869,0,1.686-0.319,2.303-0.897
		c0.627-0.589,0.972-1.387,0.969-2.272l-0.776-8.004c0-1.704-1.469-3.09-3.276-3.09H21.012c-0.864,0-1.682,0.315-2.3,0.888
		c-0.63,0.583-0.975,1.346-0.973,2.123l-0.783,8.163c0,1.704,1.47,3.09,3.276,3.09h0.019c-0.863,0.157-1.52,0.911-1.52,1.819
		c0,0.599,0.291,1.128,0.734,1.467h-5.048l1.786-18.047H43.797z M38.681,32.813c0.293-0.081,0.542-0.216,0.674-0.431
		c0.389,0.166,0.904,0.206,1.283,0.206c0.682,0,1.827-0.117,1.827-0.899c0-0.093-0.018-0.176-0.048-0.251h3.72l0.707,1.374H38.681z
		 M18.645,31.439c-0.343,0.163-0.524,0.39-0.524,0.687c0,0.297,0.182,0.524,0.525,0.687h-5.489l0.707-1.374H18.645z M45.668,55.201
		H14.332V40.608h31.336V55.201z M47.372,56.852v0.864H12.628v-0.864h0.878h32.987H47.372z"/>
	<path d="M17.697,54.161h24.605c0.455,0,0.826-0.37,0.826-0.826V41.847c0-0.455-0.37-0.826-0.826-0.826H17.697
		c-0.455,0-0.826,0.37-0.826,0.826v11.489C16.872,53.791,17.242,54.161,17.697,54.161z M18.523,52.51v-9.837h22.953v9.837H18.523z"
		/>
	<path d="M28.825,42.735h-3.438c-0.455,0-0.826,0.37-0.826,0.826v4.352c0,0.455,0.37,0.826,0.826,0.826h3.438
		c0.455,0,0.826-0.37,0.826-0.826v-4.352C29.651,43.105,29.28,42.735,28.825,42.735z M27.073,47.087h-0.86v-2.7h0.864
		c-0.072,0.123-0.117,0.264-0.117,0.417v1.875C26.96,46.828,27.003,46.966,27.073,47.087z"/>
	<path d="M34.217,42.735h-3.438c-0.455,0-0.826,0.37-0.826,0.826v4.352c0,0.455,0.37,0.826,0.826,0.826h3.438
		c0.455,0,0.826-0.37,0.826-0.826v-4.352C35.042,43.105,34.672,42.735,34.217,42.735z M32.451,47.087h-0.846v-2.7h0.851
		c-0.072,0.123-0.117,0.264-0.117,0.417v1.875C32.338,46.828,32.381,46.966,32.451,47.087z"/>
</g>
</svg>
