<?xml version="1.0" encoding="utf-8"?>
<!-- Generator: Adobe Illustrator 25.2.1, SVG Export Plug-In . SVG Version: 6.00 Build 0)  -->
<svg version="1.1" id="Layer_1" xmlns="http://www.w3.org/2000/svg" xmlns:xlink="http://www.w3.org/1999/xlink" x="0px" y="0px"
	 viewBox="0 0 60 60" style="enable-background:new 0 0 60 60;" xml:space="preserve">
<g>
	<path d="M45.532,14.986C40.312,6.108,34.477,1.015,29.523,1.015s-10.79,5.092-16.009,13.971C8.82,22.968,5.787,32.155,5.787,38.391
		c0,12.398,9.76,21.057,23.735,21.057s23.735-8.659,23.735-21.057C53.258,32.155,50.225,22.968,45.532,14.986z M29.523,57.463
		c-12.807,0-21.75-7.842-21.75-19.072c0-5.656,2.948-14.563,7.335-22.165C19.887,7.945,25.276,3,29.523,3
		c4.299,0,9.712,4.96,14.48,13.268c4.349,7.577,7.271,16.469,7.271,22.124C51.273,49.621,42.329,57.463,29.523,57.463z"/>
	<path d="M29.523,18.439c-6.071,0-13.192,13.556-13.192,20.509c0,6.922,5.425,11.755,13.192,11.755
		c7.767,0,13.192-4.834,13.192-11.755C42.714,31.995,35.593,18.439,29.523,18.439z M29.523,48.719
		c-6.599,0-11.208-4.018-11.208-9.771c0-3.091,1.544-7.716,3.933-11.782c2.483-4.222,5.203-6.742,7.274-6.742
		c4.507,0,11.207,12.145,11.207,18.524C40.73,44.701,36.121,48.719,29.523,48.719z"/>
	<path d="M25.092,27.578c-0.232-0.125-0.501-0.151-0.755-0.074c-0.255,0.078-0.464,0.25-0.589,0.485
		c-2.384,4.509-3.753,8.249-3.755,10.261c-0.004,3.047,0.963,5.35,2.874,6.841c0.174,0.138,0.392,0.214,0.615,0.214
		c0.309,0,0.594-0.14,0.781-0.381c0.163-0.208,0.236-0.468,0.204-0.733c-0.033-0.263-0.166-0.498-0.375-0.66
		c-1.406-1.1-2.118-2.876-2.115-5.278c0.003-1.704,1.288-5.107,3.527-9.338c0.123-0.235,0.148-0.503,0.07-0.755
		C25.496,27.908,25.325,27.7,25.092,27.578z"/>
</g>
</svg>
